<?xml version="1.0" standalone="no"?>
<!DOCTYPE svg PUBLIC "-//W3C//DTD SVG 1.1//EN" "http://www.w3.org/Graphics/SVG/1.1/DTD/svg11.dtd" >
<svg xmlns="http://www.w3.org/2000/svg" xmlns:xlink="http://www.w3.org/1999/xlink" version="1.1">
<metadata>
Created by FontForge 20170731 at Thu May 18 21:27:56 2017
 By Aleksey,,,
Copyright (c) 2013 Schick Toikka. All rights reserved. Saol is a trademark of Schick Toikka. Unauthorised copying or modification of any of its data is illegal.
</metadata>
<defs>
<font id="SaolDisplay-Light" horiz-adv-x="290" >
  <font-face 
    font-family="Saol Display"
    font-weight="300"
    font-stretch="normal"
    units-per-em="1000"
    panose-1="0 0 0 0 0 0 0 0 0 0"
    ascent="800"
    descent="-200"
    x-height="490"
    cap-height="681"
    bbox="-227 -250 1180 1053"
    underline-thickness="50"
    underline-position="-350"
    unicode-range="U+000D-FB02"
  />
<missing-glyph horiz-adv-x="590" 
d="M542 -226h-494v1002h494v-1002zM525 -216l-230 479l-230 -479h460zM532 -207v964l-231 -482zM58 757v-964l231 482zM295 287l230 479h-460z" />
    <glyph glyph-name="fi" unicode="fi" horiz-adv-x="556" 
d="M235 0h-23q-14 0 -41 1.5t-48 1.5q-17 0 -40 -1.5t-34 -1.5h-14v7h1q35 0 44.5 9t9.5 41v365q0 34 6 59h-74v9h75q17 66 52 112q74 97 194 97q40 0 68 -10t28 -30q0 -11 -8 -19t-19 -8q-20 0 -63.5 16.5t-74.5 16.5q-49 0 -83.5 -35t-34.5 -112v-28h158v-9h-158v-424
q0 -31 14 -40.5t51 -9.5h14v-7zM521 0h-14q-11 0 -34 1.5t-40 1.5t-40 -1.5t-34 -1.5h-14v7h1q35 0 44.5 9t9.5 41v342q0 32 -9.5 40.5t-44.5 8.5h-1v7h6q33 0 68 13t41 30h6v-441q0 -32 9.5 -41t44.5 -9h1v-7z" />
    <glyph glyph-name="fl" unicode="fl" horiz-adv-x="548" 
d="M314 481h-158v-424q0 -31 14 -40.5t51 -9.5h14v-7h-23q-14 0 -41 1.5t-48 1.5q-17 0 -40 -1.5t-34 -1.5h-14v7h1q35 0 44.5 9t9.5 41v360q0 45 3 64h-71v9h72q13 100 62 154.5t135 54.5q67 0 105 -43q54 37 56 68h6v-667q0 -32 9.5 -41t44.5 -9h1v-7h-14q-11 0 -34 1.5
t-40 1.5t-40 -1.5t-34 -1.5h-14v7h1q35 0 44.5 9t9.5 41v590q-38 43 -101 43q-135 0 -135 -167v-33h158v-9z" />
    <glyph glyph-name="fb" unicode="fb" horiz-adv-x="841" 
d="M235 0h-23q-14 0 -41 1.5t-48 1.5q-17 0 -40 -1.5t-34 -1.5h-14v7h1q35 0 44.5 9t9.5 41v360q0 45 3 64h-71v9h72q13 100 62 154.5t135 54.5q67 0 105 -43q54 37 56 68h6v-291q65 65 152 65q74 0 129 -61t55 -192t-55 -192t-129 -61q-87 0 -154 67q-50 -34 -58 -69h-6
v657q-38 43 -101 43q-135 0 -135 -167v-33h158v-9h-158v-424q0 -31 14 -40.5t51 -9.5h14v-7zM610 1q25 0 42.5 9t33.5 34t24 75t8 126t-8 126t-24 75t-33.5 34t-42.5 9q-78 0 -152 -67v-354q74 -67 152 -67z" />
    <glyph glyph-name="fh" unicode="fh" horiz-adv-x="841" 
d="M314 481h-158v-424q0 -31 14 -40.5t51 -9.5h14v-7h-23q-14 0 -41 1.5t-48 1.5q-17 0 -40 -1.5t-34 -1.5h-14v7h1q35 0 44.5 9t9.5 41v360q0 45 3 64h-71v9h72q13 100 62 154.5t135 54.5q67 0 105 -43q54 37 56 68h6v-302l106 41q89 35 127 35q62 0 62 -70v-371
q0 -32 9.5 -41t44.5 -9h1v-7h-14q-12 0 -34 1.5t-40 1.5t-40 -1.5t-34 -1.5h-14v7h1q35 0 44.5 9t9.5 41v374q0 48 -35 48q-17 0 -85 -24l-109 -42v-356q0 -32 9.5 -41t44.5 -9h1v-7h-14q-11 0 -34 1.5t-40 1.5t-40 -1.5t-34 -1.5h-14v7h1q35 0 44.5 9t9.5 41v590
q-38 43 -101 43q-135 0 -135 -167v-33h158v-9z" />
    <glyph glyph-name="fj" unicode="fj" horiz-adv-x="543" 
d="M466 498v-459q0 -106 -46 -184q-56 -91 -142 -91q-13 0 -22 7t-9 19q0 26 29 26q12 0 36.5 -5t33.5 -5q54 0 54 85v508q0 32 -9.5 40.5t-44.5 8.5h-1v7h6q33 0 68 13t41 30h6zM235 0h-23q-14 0 -41 1.5t-48 1.5q-17 0 -40 -1.5t-34 -1.5h-14v7h1q35 0 44.5 9t9.5 41v365
q0 34 6 59h-74v9h75q17 66 52 112q74 97 194 97q40 0 68 -10t28 -30q0 -11 -8 -19t-19 -8q-20 0 -63.5 16.5t-74.5 16.5q-49 0 -83.5 -35t-34.5 -112v-28h158v-9h-158v-424q0 -31 14 -40.5t51 -9.5h14v-7z" />
    <glyph glyph-name="fk" unicode="fk" horiz-adv-x="827" 
d="M314 481h-158v-424q0 -31 14 -40.5t51 -9.5h14v-7h-23q-14 0 -41 1.5t-48 1.5q-17 0 -40 -1.5t-34 -1.5h-14v7h1q35 0 44.5 9t9.5 41v360q0 45 3 64h-71v9h72q13 100 62 154.5t135 54.5q67 0 105 -43q54 37 56 68h6v-537l85 88l-26 43q1 0 33 -0.5t35 0.5l80 83
q30 31 30 51q0 31 -48 31h-1v7h13q11 0 32 -1.5t39 -1.5q19 0 40 1.5t32 1.5h14v-7h-1q-57 0 -143 -86l-77 -80l163 -265q17 -28 30 -36.5t38 -8.5h1v-7h-12q-5 0 -27.5 1.5t-42.5 1.5q-19 0 -43 -1.5t-29 -1.5h-24v7h1q43 0 43 18q0 7 -6 17l-139 226l-90 -93v-118
q0 -32 9.5 -41t44.5 -9h1v-7h-14q-11 0 -34 1.5t-40 1.5t-40 -1.5t-34 -1.5h-14v7h1q35 0 44.5 9t9.5 41v590q-38 43 -101 43q-135 0 -135 -167v-33h158v-9z" />
    <glyph glyph-name=".notdef" horiz-adv-x="590" 
d="M542 -226h-494v1002h494v-1002zM525 -216l-230 479l-230 -479h460zM532 -207v964l-231 -482zM58 757v-964l231 482zM295 287l230 479h-460z" />
    <glyph glyph-name=".null" horiz-adv-x="0" 
 />
    <glyph glyph-name="nonmarkingreturn" horiz-adv-x="333" 
 />
    <glyph glyph-name="NULL" horiz-adv-x="0" 
 />
    <glyph glyph-name="NULL" horiz-adv-x="0" 
 />
    <glyph glyph-name="CR" unicode="&#xd;" horiz-adv-x="250" 
 />
    <glyph glyph-name="space" unicode=" " horiz-adv-x="190" 
 />
    <glyph glyph-name="exclam" unicode="!" horiz-adv-x="241" 
d="M126 206h-10v43q0 63 -16 204t-16 187q0 48 37 48q38 0 38 -48q0 -47 -16.5 -187.5t-16.5 -203.5v-43zM121 -8q-21 0 -36.5 15t-15.5 37t15.5 37t36.5 15t36.5 -15t15.5 -37t-15.5 -37t-36.5 -15z" />
    <glyph glyph-name="quotedbl" unicode="&#x22;" horiz-adv-x="300" 
d="M87 463h-8q-2 78 -19 128t-17 58q0 20 10.5 31t28.5 11t29.5 -11t11.5 -31q0 -13 -8 -32t-17 -57.5t-11 -96.5zM221 463h-8q-2 78 -19 128t-17 58q0 20 10.5 31t28.5 11t29.5 -11t11.5 -31q0 -13 -8 -32t-17 -57.5t-11 -96.5z" />
    <glyph glyph-name="numbersign" unicode="#" horiz-adv-x="593" 
d="M106 456v10h136l58 203l10 -3l-57 -200h157l58 203l10 -3l-57 -200h133v-10h-136l-68 -234h133v-10h-136l-58 -203l-10 3l57 200h-157l-58 -203l-10 3l57 200h-133v10h136l68 234h-133zM250 456l-68 -234h157l68 234h-157z" />
    <glyph glyph-name="dollar" unicode="$" horiz-adv-x="528" 
d="M277 -72h-10v72q-83 4 -150 42.5t-67 93.5q0 17 9 26.5t22 9.5q27 0 34 -24q1 -4 5 -18.5t8 -24.5q16 -47 48.5 -70.5t90.5 -25.5v309l-53 16q-63 19 -101 63t-38 109q0 75 51 125t141 50v72h10v-72q63 -2 122 -41t59 -91q0 -14 -9 -22t-20 -8q-21 0 -31 21q-2 6 -6 20
t-6 20q-15 47 -39.5 68.5t-69.5 23.5v-279l53 -15q151 -43 151 -180q0 -92 -60 -145t-139 -53h-5v-72zM444 158q0 61 -36.5 96t-112.5 56l-18 5v-306h4q73 0 118 42.5t45 106.5zM103 538q0 -52 32 -81t104 -52l28 -9v276q-79 0 -121.5 -38t-42.5 -96z" />
    <glyph glyph-name="percent" unicode="%" horiz-adv-x="713" 
d="M198 346q-64 0 -102.5 48.5t-38.5 122.5q0 73 38.5 122t102.5 49q48 0 83 -33q47 -46 103 -46q39 0 86 20.5t80 58.5l8 -5l-388 -692l-9 5l374 665q-26 -26 -67.5 -43.5t-83.5 -17.5t-80 25q26 -47 26 -108q0 -73 -34 -122t-98 -49zM198 355q58 0 90 46t32 116
q0 69 -32 115.5t-90 46.5q-25 0 -41.5 -12.5t-24.5 -36.5t-11 -50.5t-3 -62.5q0 -37 3 -63.5t11 -50t24.5 -36t41.5 -12.5zM518 -8q-64 0 -102.5 48.5t-38.5 122.5q0 73 38.5 122t102.5 49t98 -49t34 -122t-34 -122t-98 -49zM518 1q58 0 90 46t32 116q0 69 -32 115.5
t-90 46.5q-25 0 -41.5 -12.5t-24.5 -36.5t-11 -50.5t-3 -62.5q0 -37 3 -63.5t11 -50t24.5 -36t41.5 -12.5z" />
    <glyph glyph-name="ampersand" unicode="&#x26;" horiz-adv-x="785" 
d="M277 -10q-86 0 -143 55.5t-57 144.5q0 87 53.5 140.5t128.5 69.5q-42 20 -65.5 57t-23.5 81q0 71 52 112t115 41q66 0 123.5 -33t57.5 -78q0 -29 -28 -29q-26 0 -37 33q-15 44 -41 71t-75 27q-51 0 -89 -29.5t-38 -78.5q0 -83 119 -131q86 -34 131 -76t60 -123l49 78
q53 85 132 85q15 0 26.5 -7.5t11.5 -19.5q0 -30 -40 -30q-14 0 -35 5t-30 5q-30 0 -59 -46l-51 -83q0 -2 10 -47q21 -100 48 -135t73 -35q49 0 86 63l7 -4q-43 -80 -126 -80q-116 0 -150 147q-77 -150 -195 -150zM277 0q111 0 191 154q-13 70 -20 91q-15 47 -43 75.5
t-77 49.5q-44 18 -58 23q-58 -15 -88.5 -67t-30.5 -131q0 -195 126 -195z" />
    <glyph glyph-name="quotesingle" unicode="'" horiz-adv-x="166" 
d="M87 463h-8q-2 78 -19 128t-17 58q0 20 10.5 31t28.5 11t29.5 -11t11.5 -31q0 -13 -8 -32t-17 -57.5t-11 -96.5z" />
    <glyph glyph-name="parenleft" unicode="(" 
d="M127 276q0 -137 35.5 -260t119.5 -184l-5 -7q-97 67 -157 193.5t-60 257.5t60 258t157 194l5 -7q-84 -61 -119.5 -184t-35.5 -261z" />
    <glyph glyph-name="parenright" unicode=")" 
d="M163 276q0 86 -11.5 164t-48.5 159t-95 122l5 7q97 -67 157 -194t60 -258t-60 -257.5t-157 -193.5l-5 7q58 41 95 122t48.5 158.5t11.5 163.5z" />
    <glyph glyph-name="asterisk" unicode="*" horiz-adv-x="388" 
d="M194 400q-12 0 -20.5 8.5t-8.5 20.5q0 17 13 57.5t13 70.5q-25 -15 -53.5 -45.5t-43.5 -39.5q-8 -5 -17 -5q-12 0 -19.5 9t-7.5 21q0 15 14 24q14 8 56.5 17t68.5 24q-26 14 -68 23.5t-57 18.5q-14 9 -14 25q0 12 8 20.5t20 8.5q8 0 16 -5q15 -9 43.5 -40t53.5 -46
q0 30 -13 70.5t-13 57.5q0 12 8.5 20.5t20.5 8.5t20.5 -8.5t8.5 -20.5q0 -17 -13 -57.5t-13 -70.5q25 15 53.5 46t43.5 40q8 5 16 5q12 0 20 -8.5t8 -20.5q0 -16 -14 -25q-15 -9 -57 -18.5t-68 -23.5q26 -15 68.5 -24t56.5 -17q14 -9 14 -24q0 -12 -7.5 -21t-19.5 -9
q-9 0 -17 5q-15 9 -43.5 39.5t-53.5 45.5q0 -30 13 -70.5t13 -57.5q0 -12 -8.5 -20.5t-20.5 -8.5z" />
    <glyph glyph-name="plus" unicode="+" horiz-adv-x="530" 
d="M270 103h-10v214h-215v10h215v216h10v-216h215v-10h-215v-214z" />
    <glyph glyph-name="comma" unicode="," horiz-adv-x="221" 
d="M105 -5q-22 0 -36 14.5t-14 35.5t15 36.5t38 15.5q24 0 41 -19t17 -48q0 -57 -30 -92.5t-66 -42.5l-2 7q34 9 60.5 40.5t26.5 75.5q0 6 -1 9q-14 -32 -49 -32z" />
    <glyph glyph-name="hyphen" unicode="-" horiz-adv-x="303" 
d="M238 262h-173v39h173v-39z" />
    <glyph glyph-name="period" unicode="." horiz-adv-x="214" 
d="M107 -8q-21 0 -36.5 15t-15.5 37t15.5 37t36.5 15t36.5 -15t15.5 -37t-15.5 -37t-36.5 -15z" />
    <glyph glyph-name="slash" unicode="/" horiz-adv-x="351" 
d="M330 721l-300 -893l-9 3l300 893z" />
    <glyph glyph-name="zero" unicode="0" horiz-adv-x="604" 
d="M302 -1q46 0 78.5 19t50.5 47.5t28 76.5t12.5 91.5t2.5 107.5t-2.5 107t-12.5 91.5t-28 76.5t-50.5 47t-78.5 19t-78.5 -19t-50.5 -47t-28 -76.5t-12.5 -91.5t-2.5 -107t2.5 -107.5t12.5 -91.5t28 -76.5t50.5 -47.5t78.5 -19zM302 -10q-117 0 -184 101.5t-67 249.5
q0 96 28 174.5t86 127t137 48.5t137 -48.5t86 -127t28 -174.5q0 -148 -67 -249.5t-184 -101.5z" />
    <glyph glyph-name="one" unicode="1" horiz-adv-x="314" 
d="M253 0h-16q-11 0 -32.5 1.5t-37.5 1.5q-17 0 -38 -1.5t-32 -1.5h-36v8h9q37 0 50 8t13 38v501q0 24 -18 24q-8 0 -37 -13l-22 -11l-4 8q51 25 94 63.5t49 61.5h6v-630q0 -32 9.5 -41t41.5 -9h1v-8z" />
    <glyph glyph-name="two" unicode="2" horiz-adv-x="486" 
d="M444 66l-26 -128l-6 1q2 37 -10 49t-44 12h-342v4l137 145q102 109 153.5 195t51.5 181q0 85 -25.5 121t-80.5 36q-95 0 -137 -126q-12 -35 -37 -35q-31 0 -31 31q0 46 66.5 92.5t138.5 46.5q75 0 130 -43.5t55 -123.5q0 -41 -14.5 -80.5t-46.5 -79.5t-59.5 -69.5
t-77.5 -77t-76 -75.5l-74 -76h355z" />
    <glyph glyph-name="three" unicode="3" horiz-adv-x="525" 
d="M252 -10q-91 0 -159 54t-68 111q0 16 9.5 25.5t21.5 9.5q26 0 34 -34q38 -157 162 -157q73 0 113 52t40 152q0 91 -23 130.5t-71 39.5q-21 0 -49 -16l-73 -37l-5 9l91 47q86 44 86 161q0 69 -21.5 107t-82.5 38q-95 0 -133 -123q-10 -38 -39 -38q-12 0 -21 8.5t-9 22.5
q0 46 64.5 92.5t137.5 46.5q76 0 127 -40.5t51 -106.5q0 -50 -37.5 -93t-91.5 -68q25 2 53.5 -6t57.5 -27t48 -56.5t19 -87.5q0 -101 -73.5 -158.5t-158.5 -57.5z" />
    <glyph glyph-name="four" unicode="4" horiz-adv-x="515" 
d="M480 196h-116v-138q0 -32 9.5 -41t41.5 -9h1v-8h-16q-11 0 -32.5 1.5t-37.5 1.5t-38 -1.5t-32 -1.5h-36v8h9q37 0 50 8t13 38v142h-292v5l298 480q4 0 13.5 -0.5t13.5 -0.5q3 0 15 0.5t20 0.5v-475h5q81 0 135 127l5 -1zM296 206v445l-276 -445h276z" />
    <glyph glyph-name="five" unicode="5" horiz-adv-x="527" 
d="M244 -10q-72 0 -135.5 47.5t-63.5 90.5q0 14 8.5 23t21.5 9q28 0 38 -34q38 -127 131 -127q84 0 121 64t37 168q0 102 -29 155.5t-102 53.5q-51 0 -105.5 -29t-80.5 -77l-9 3l25 172l18 121l8 51h256q34 0 52.5 8t26.5 33l6 -1l-23 -106h-318l-38 -257q27 39 80 65.5
t102 26.5q98 0 153.5 -55.5t55.5 -158.5q0 -114 -67 -180t-169 -66z" />
    <glyph glyph-name="six" unicode="6" horiz-adv-x="551" 
d="M279 -10q-29 0 -57 7t-60 27.5t-55.5 52.5t-39.5 88t-16 128q0 145 109.5 257t273.5 142l2 -10q-266 -55 -301 -311q67 79 160 79q34 0 66.5 -10t65 -32.5t52.5 -66t20 -102.5q0 -62 -22 -112t-56.5 -78.5t-71 -43.5t-70.5 -15zM279 -1q142 0 142 237q0 204 -126 204
q-41 0 -85 -22t-76 -62q-4 -25 -4 -63q0 -164 37.5 -229t111.5 -65z" />
    <glyph glyph-name="seven" unicode="7" horiz-adv-x="466" 
d="M226 33q0 -18 -11.5 -29t-27.5 -11q-18 0 -29.5 10.5t-11.5 30.5q0 69 23.5 148t66 158.5t81.5 141t91 133.5h-282q-36 0 -54 -14t-31 -52l-6 1l36 171l6 -1q-2 -24 11.5 -31.5t42.5 -7.5h330v-4q-65 -94 -102 -155.5t-71 -140.5t-48 -162t-14 -186z" />
    <glyph glyph-name="eight" unicode="8" horiz-adv-x="539" 
d="M275 -10q-104 0 -166 53t-62 140q0 55 37.5 101.5t105.5 75.5q-113 50 -113 154q0 72 54.5 124.5t139.5 52.5q79 0 135 -43t56 -114q0 -101 -108 -161q68 -29 103 -72t35 -112q0 -87 -61 -143t-156 -56zM275 -1q78 0 121 45.5t43 115.5q0 103 -128 153l-111 43
q-42 -25 -63 -71t-21 -96q0 -79 41 -134.5t118 -55.5zM403 533q0 149 -133 149q-66 0 -105.5 -35t-39.5 -94q0 -89 108 -132l110 -44q60 49 60 156z" />
    <glyph glyph-name="nine" unicode="9" horiz-adv-x="551" 
d="M272 691q29 0 57 -7t60 -27.5t55.5 -52.5t39.5 -88t16 -128q0 -145 -109.5 -257t-273.5 -142l-2 10q266 55 301 311q-67 -79 -160 -79q-34 0 -66.5 10t-65 32.5t-52.5 66t-20 102.5q0 62 22 112t56.5 78.5t71 43.5t70.5 15zM272 682q-142 0 -142 -237q0 -204 126 -204
q41 0 85 22t76 62q4 25 4 63q0 164 -37.5 229t-111.5 65z" />
    <glyph glyph-name="colon" unicode=":" horiz-adv-x="214" 
d="M107 360q-21 0 -36.5 15t-15.5 37t15.5 37t36.5 15t36.5 -15t15.5 -37t-15.5 -37t-36.5 -15zM107 -8q-21 0 -36.5 15t-15.5 37t15.5 37t36.5 15t36.5 -15t15.5 -37t-15.5 -37t-36.5 -15z" />
    <glyph glyph-name="semicolon" unicode=";" horiz-adv-x="221" 
d="M107 360q-21 0 -36.5 15t-15.5 37t15.5 37t36.5 15t36.5 -15t15.5 -37t-15.5 -37t-36.5 -15zM105 -5q-22 0 -36 14.5t-14 35.5t15 36.5t38 15.5q24 0 41 -19t17 -48q0 -57 -30 -92.5t-66 -42.5l-2 7q34 9 60.5 40.5t26.5 75.5q0 6 -1 9q-14 -32 -49 -32z" />
    <glyph glyph-name="less" unicode="&#x3c;" horiz-adv-x="469" 
d="M43 328l376 174l4 -9l-368 -170l368 -170l-4 -9l-376 174v10z" />
    <glyph glyph-name="equal" unicode="=" horiz-adv-x="490" 
d="M45 408v10h400v-10h-400zM45 229v10h400v-10h-400z" />
    <glyph glyph-name="greater" unicode="&#x3e;" horiz-adv-x="469" 
d="M50 502l376 -174v-10l-376 -174l-4 9l368 170l-368 170z" />
    <glyph glyph-name="question" unicode="?" horiz-adv-x="345" 
d="M143 206h-10v202q69 14 108 52t39 83q0 35 -25 60t-73 25q-24 0 -54 -7t-39 -7q-15 0 -23.5 10.5t-8.5 25.5q0 38 57 38q80 0 129 -48.5t49 -121.5q0 -142 -149 -186v-126zM137 -8q-21 0 -36.5 15t-15.5 37t15.5 37t36.5 15t36.5 -15t15.5 -37t-15.5 -37t-36.5 -15z" />
    <glyph glyph-name="at" unicode="@" horiz-adv-x="833" 
d="M433 -145q-161 0 -272 112.5t-111 277.5q0 161 111.5 276.5t269.5 115.5q146 0 249 -92t103 -238q0 -105 -71.5 -200.5t-170.5 -95.5q-40 0 -64 22t-24 60q0 48 36 124l70 161l-177 -247q-87 -120 -138 -120q-55 0 -55 61q0 50 43 145.5t89 158.5q75 105 153 105
q55 0 100 -70q37 14 53.5 28t30.5 43l6 -2l-122 -294q-37 -86 -37 -119q0 -46 38 -46q93 0 161.5 93t68.5 193q0 140 -101 230t-241 90q-154 0 -262.5 -112.5t-108.5 -269.5q0 -162 107.5 -271t265.5 -109q109 0 202 56.5t130 153.5l9 -4q-37 -99 -133.5 -157.5
t-207.5 -58.5zM276 38q29 0 99 98l194 269q-39 65 -84 65q-30 0 -56 -24t-65 -88q-40 -65 -73.5 -158.5t-33.5 -132.5q0 -29 19 -29z" />
    <glyph glyph-name="A" unicode="A" horiz-adv-x="638" 
d="M653 0h-21q-6 0 -32 1.5t-41 1.5q-18 0 -45 -1.5t-32 -1.5h-21v8q52 0 52 31q0 11 -7 25l-52 124h-322l-27 -68q-14 -38 -14 -59q0 -53 71 -53v-8h-12q-11 0 -41 1.5t-43 1.5q-7 0 -34.5 -1.5t-35.5 -1.5h-21v8q42 2 69 27.5t51 86.5l187 478l-34 81q9 0 21 -0.5t18 -0.5
t16.5 0.5t18.5 0.5l260 -621q22 -52 71 -52v-8zM288 589l-152 -391h314z" />
    <glyph glyph-name="B" unicode="B" horiz-adv-x="608" 
d="M567 175q0 -83 -67 -129t-156 -46h-120q-15 0 -43.5 0.5t-50.5 0.5q-16 0 -38 -0.5t-32 -0.5h-16v8h1q33 0 42 8.5t9 40.5v567q0 32 -9 40.5t-42 8.5h-1v8h16q10 0 32 -0.5t38 -0.5q20 0 47 0.5t42 0.5h89q95 0 157.5 -46t62.5 -125q0 -65 -50 -110t-115 -54
q82 -3 143 -45.5t61 -125.5zM488 175q0 90 -37 127t-117 37h-170v-329h171q81 0 117 38t36 127zM453 510q0 82 -32 121.5t-118 39.5h-139v-322h143q85 0 115.5 39.5t30.5 121.5z" />
    <glyph glyph-name="C" unicode="C" horiz-adv-x="612" 
d="M317 -8q-125 0 -204 99.5t-79 251.5q0 86 28.5 155.5t73 110t93 61.5t94.5 21q35 0 78 -9.5t52 -9.5q35 0 33 33l6 2l92 -227l-6 -3q-68 113 -128 159t-127 46q-93 0 -161.5 -75.5t-68.5 -199.5q0 -164 77.5 -265.5t192.5 -101.5q138 0 213 140l7 -3
q-38 -80 -109.5 -132.5t-156.5 -52.5z" />
    <glyph glyph-name="D" unicode="D" horiz-adv-x="634" 
d="M520 340q0 185 -51.5 258t-190.5 73h-114v-661h114q139 0 190.5 72.5t51.5 257.5zM599 340q0 -160 -85 -250t-220 -90h-75q-15 0 -42 0.5t-47 0.5q-16 0 -38 -0.5t-32 -0.5h-16v8h1q33 0 42 8.5t9 40.5v567q0 32 -9 40.5t-42 8.5h-1v8h16q10 0 32 -0.5t38 -0.5
q20 0 47 0.5t42 0.5h75q135 0 220 -90t85 -251z" />
    <glyph glyph-name="E" unicode="E" horiz-adv-x="615" 
d="M493 -31l-6 2q2 14 -5 21.5t-26 7.5h-237q-15 0 -42 0.5t-47 0.5q-16 0 -38 -0.5t-32 -0.5h-16v8h1q33 0 42 8.5t9 40.5v567q0 32 -9 40.5t-42 8.5h-1v8h16q10 0 32 -0.5t38 -0.5q20 0 47 0.5t42 0.5h224q20 0 27.5 7.5t5.5 22.5l6 2l92 -226l-6 -3q-77 108 -113 148
q-36 39 -96 39h-195v-320h128q55 0 73 31t25 101h7v-277h-7q-4 35 -8 55t-14 41t-28.5 30t-47.5 9h-128v-331h206q33 0 54.5 8.5t46.5 36.5q50 57 111 160l6 -3z" />
    <glyph glyph-name="F" unicode="F" horiz-adv-x="568" 
d="M400 196h-7q-4 35 -8 55t-14 40.5t-28.5 29.5t-47.5 9h-131v-272q0 -29 15.5 -39.5t54.5 -10.5h20v-8h-30q-14 0 -41.5 1.5t-47.5 1.5q-17 0 -40 -1.5t-35 -1.5h-16v8h1q33 0 42 8.5t9 40.5v567q0 32 -9 40.5t-42 8.5h-1v8h16q10 0 32 -0.5t38 -0.5t38 0.5t32 0.5h231
q20 0 27.5 7.5t5.5 22.5l6 2l92 -226l-6 -3q-77 108 -113 148q-36 39 -96 39h-183v-331h131q55 0 73 31t25 102h7v-277z" />
    <glyph glyph-name="G" unicode="G" horiz-adv-x="648" 
d="M572 244v-254h-6q-1 8 -3.5 15t-7 13.5t-8.5 11.5t-10.5 11t-9.5 9t-10 8.5t-8 6.5q-73 -73 -182 -73q-126 0 -209.5 100t-83.5 239q0 90 26.5 161.5t69.5 113.5t93 63.5t101 21.5q46 0 88 -9.5t49 -9.5q16 0 25.5 7.5t8.5 25.5l6 2l92 -227l-6 -3q-71 114 -130.5 159.5
t-132.5 45.5q-94 0 -153 -82.5t-59 -254.5q0 -167 60 -254t172 -87q48 0 91 22t69 48v170q0 32 -9 40.5t-42 8.5h-1v8h16q10 0 32 -1.5t38 -1.5t38 1.5t32 1.5h16v-8h-1q-33 0 -42 -8.5t-9 -40.5z" />
    <glyph glyph-name="H" unicode="H" horiz-adv-x="691" 
d="M595 624v-567q0 -32 9 -40.5t42 -8.5h1v-8h-16q-11 0 -32 1.5t-38 1.5t-38 -1.5t-32 -1.5h-16v8h1q33 0 42 8.5t9 40.5v284h-363v-284q0 -32 9 -40.5t42 -8.5h1v-8h-16q-10 0 -32 1.5t-38 1.5t-38 -1.5t-32 -1.5h-16v8h1q33 0 42 8.5t9 40.5v567q0 32 -9 40.5t-42 8.5h-1
v8h16q10 0 32 -1.5t38 -1.5t38 1.5t32 1.5h16v-8h-1q-33 0 -42 -8.5t-9 -40.5v-273h363v273q0 32 -9 40.5t-42 8.5h-1v8h16q11 0 32 -1.5t38 -1.5t38 1.5t32 1.5h16v-8h-1q-33 0 -42 -8.5t-9 -40.5z" />
    <glyph glyph-name="I" unicode="I" horiz-adv-x="260" 
d="M164 624v-567q0 -32 9 -40.5t42 -8.5h1v-8h-16q-10 0 -32 1.5t-38 1.5t-38 -1.5t-32 -1.5h-16v8h1q33 0 42 8.5t9 40.5v567q0 32 -9 40.5t-42 8.5h-1v8h16q10 0 32 -1.5t38 -1.5t38 1.5t32 1.5h16v-8h-1q-33 0 -42 -8.5t-9 -40.5z" />
    <glyph glyph-name="J" unicode="J" horiz-adv-x="296" 
d="M207 624v-428q0 -152 -60 -223t-154 -71q-35 0 -35 30q0 31 31 31q11 0 44 -11t49 -11q31 0 44 27t13 85v571q0 32 -9 40.5t-42 8.5h-1v8h16q11 0 32 -1.5t38 -1.5t38 1.5t32 1.5h16v-8h-1q-33 0 -42 -8.5t-9 -40.5z" />
    <glyph glyph-name="K" unicode="K" horiz-adv-x="652" 
d="M652 0h-39q-5 0 -29 1.5t-41 1.5t-41 -1.5t-30 -1.5h-39v8h11q44 0 44 27q0 13 -12 29l-189 297l-123 -147v-157q0 -32 9 -40.5t42 -8.5h1v-8h-16q-10 0 -32 1.5t-38 1.5t-38 -1.5t-32 -1.5h-16v8h1q33 0 42 8.5t9 40.5v567q0 32 -9 40.5t-42 8.5h-1v8h16q10 0 32 -1.5
t38 -1.5t38 1.5t32 1.5h16v-8h-1q-33 0 -42 -8.5t-9 -40.5v-395l117 140l-34 53q36 -1 79 0l143 170q23 28 23 49q0 17 -13.5 24.5t-47.5 7.5v8h17q11 0 35.5 -1.5t36.5 -1.5q17 0 42 1.5t32 1.5h21v-8q-63 0 -138 -86l-144 -172l227 -356q33 -51 92 -51v-8z" />
    <glyph glyph-name="L" unicode="L" horiz-adv-x="561" 
d="M558 225l-100 -256l-6 2q2 15 -4.5 22t-26.5 7h-221q-10 0 -32 0.5t-38 0.5t-38 -0.5t-32 -0.5h-16v8h1q33 0 42 8.5t9 40.5v567q0 32 -9 40.5t-42 8.5h-1v8h16q10 0 32 -1.5t38 -1.5t38 1.5t32 1.5h16v-8h-1q-33 0 -42 -8.5t-9 -40.5v-614h171q33 0 54.5 8.5t46.5 36.5
q43 48 116 173z" />
    <glyph glyph-name="M" unicode="M" horiz-adv-x="856" 
d="M760 624v-567q0 -32 9 -40.5t42 -8.5h1v-8h-16q-10 0 -32 1.5t-38 1.5t-38 -1.5t-32 -1.5h-16v8h1q33 0 42 8.5t9 40.5v597l-251 -577l36 -77q-10 0 -21.5 0.5t-16.5 0.5q-7 0 -17 -0.5t-20 -0.5l-286 614v-483q0 -56 18.5 -89.5t70.5 -33.5h1v-8h-25q-5 0 -28 1.5
t-41 1.5t-41 -1.5t-29 -1.5h-24v8h1q51 0 69 33t18 90v494q-23 48 -66 48h-4v8h10q12 0 27.5 -0.5t25.5 -0.5q11 0 31 0.5t30 0.5l275 -591l257 591q3 0 21 -1t34 -1q5 0 20.5 1t28.5 1h16v-8h-1q-33 0 -42 -8.5t-9 -40.5z" />
    <glyph glyph-name="N" unicode="N" horiz-adv-x="690" 
d="M585 78l53 -78q-11 0 -22.5 0.5t-16.5 0.5q-7 0 -21 -0.5t-23 -0.5l-437 617v-486q0 -56 18.5 -89.5t70.5 -33.5h1v-8h-25q-5 0 -28 1.5t-41 1.5t-41.5 -1.5t-28.5 -1.5h-24v8h1q51 0 69 33t18 90v496q-1 2 -7 10t-7 9.5t-6 7.5t-7.5 7t-7.5 4.5t-9.5 4.5t-11 2t-13.5 1
h-1v8h7q15 0 30 -0.5t23 -0.5q11 0 30 0.5t29 0.5l418 -589v458q0 57 -18 90t-70 33h-1v8h25q5 0 28 -1.5t41 -1.5t41 1.5t29 1.5h24v-8h-1q-52 0 -70 -33t-18 -90v-472z" />
    <glyph glyph-name="O" unicode="O" horiz-adv-x="658" 
d="M329 -1q215 0 215 342q0 341 -215 341t-215 -341q0 -342 215 -342zM329 -10q-128 0 -211.5 100t-83.5 251t83.5 250.5t211.5 99.5t211.5 -99.5t83.5 -250.5t-83.5 -251t-211.5 -100z" />
    <glyph glyph-name="P" unicode="P" horiz-adv-x="566" 
d="M254 0h-30q-14 0 -41.5 1.5t-47.5 1.5q-17 0 -40 -1.5t-35 -1.5h-16v8h1q33 0 42 8.5t9 40.5v567q0 32 -9 40.5t-42 8.5h-1v8h16q10 0 32 -0.5t38 -0.5q20 0 47 0.5t42 0.5h108q96 0 159 -48.5t63 -134.5q0 -88 -63 -136.5t-159 -48.5h-163v-255q0 -31 11 -40.5t49 -9.5
h30v-8zM164 323h160q86 0 116.5 42t30.5 133q0 90 -30.5 131.5t-116.5 41.5h-160v-348z" />
    <glyph glyph-name="Q" unicode="Q" horiz-adv-x="658" 
d="M448 -235q-39 0 -79 38l-59 55q-39 36 -68 36q-28 0 -105 -36l-5 8l170 125q-118 10 -193 109t-75 241q0 151 83.5 250.5t211.5 99.5t211.5 -99.5t83.5 -250.5t-83.5 -251t-211.5 -100h-13l-141 -105q74 34 120 34q37 0 66 -27l47 -44q20 -19 28 -25.5t24 -15.5t29 -9
q21 0 40.5 14.5t65.5 62.5l6 -5q-57 -61 -86.5 -83t-66.5 -22zM544 341q0 341 -215 341t-215 -341q0 -342 215 -342t215 342z" />
    <glyph glyph-name="R" unicode="R" horiz-adv-x="633" 
d="M625 8v-8q-25 0 -46 1.5t-41 1.5q-11 0 -26 -1.5t-22 -1.5l-179 320h-147v-263q0 -32 9 -40.5t42 -8.5h1v-8h-16q-10 0 -32 1.5t-38 1.5t-38 -1.5t-32 -1.5h-16v8h1q33 0 42 8.5t9 40.5v567q0 32 -9 40.5t-42 8.5h-1v8h16q10 0 32 -0.5t38 -0.5q20 0 47 0.5t42 0.5h108
q95 0 159.5 -49t64.5 -132q0 -75 -60.5 -127.5t-162.5 -52.5h-4q19 -30 39.5 -41.5t55.5 -11.5l92 -165q33 -58 54.5 -75t59.5 -19zM474 500q0 87 -32.5 129t-117.5 42h-160v-341h160q84 0 117 39.5t33 130.5z" />
    <glyph glyph-name="S" unicode="S" horiz-adv-x="554" 
d="M516 188q0 -63 -32.5 -109.5t-78 -67.5t-94.5 -21q-44 0 -100 15.5t-63 15.5q-36 0 -33 -33l-6 -2l-81 230l6 3q32 -60 67.5 -104t62.5 -65.5t58.5 -34t48.5 -14.5t39 -2q68 0 114.5 41t46.5 99q0 108 -165 170l-81 30q-71 26 -118.5 73t-47.5 114q0 75 54 120t135 45
q28 0 72 -9.5t55 -9.5q37 0 33 33l6 2l87 -206l-6 -3q-66 108 -125 146t-122 38q-71 0 -110.5 -35t-39.5 -87q0 -53 36.5 -87.5t118.5 -64.5l83 -31q180 -66 180 -189z" />
    <glyph glyph-name="T" unicode="T" horiz-adv-x="640" 
d="M406 8v-8h-16q-10 0 -32 1.5t-38 1.5t-38 -1.5t-32 -1.5h-16v8h1q33 0 42 8.5t9 40.5v614h-88q-30 0 -43.5 -6t-33.5 -30q-34 -42 -106 -179l-6 3l76 253l6 -1q0 -30 36 -30h110q7 0 34.5 -0.5t48.5 -0.5t48.5 0.5t34.5 0.5h110q36 0 36 30l6 1l76 -253l-6 -3
q-72 137 -106 179q-20 24 -33.5 30t-43.5 6h-88v-614q0 -32 9 -40.5t42 -8.5h1z" />
    <glyph glyph-name="U" unicode="U" horiz-adv-x="620" 
d="M533 550v-339q0 -100 -57 -159.5t-156 -59.5q-240 0 -240 220v412q0 32 -9 40.5t-42 8.5h-1v8h16q10 0 32 -1.5t38 -1.5t38 1.5t32 1.5h16v-8h-1q-33 0 -42 -8.5t-9 -40.5v-371q0 -132 42.5 -190.5t140.5 -58.5q86 0 139 56.5t53 150.5v339q0 57 -18 90t-70 33h-1v8h25
q5 0 28 -1.5t41 -1.5t41 1.5t29 1.5h24v-8h-1q-52 0 -70 -33t-18 -90z" />
    <glyph glyph-name="V" unicode="V" horiz-adv-x="617" 
d="M519 559l-169 -479l31 -80q-9 0 -19.5 0.5t-17.5 0.5q-6 0 -15.5 -0.5t-20.5 -0.5l-250 622q-12 28 -27.5 39.5t-41.5 11.5h-1v8h21q6 0 32 -1.5t42 -1.5q18 0 44 1.5t31 1.5h21v-8h-1q-52 0 -52 -30q0 -9 6 -24l212 -527l165 469q14 38 14 59q0 53 -71 53v8h12
q11 0 41 -1.5t43 -1.5q7 0 34.5 1.5t35.5 1.5h21v-8q-43 -2 -71 -27.5t-49 -86.5z" />
    <glyph glyph-name="W" unicode="W" horiz-adv-x="976" 
d="M723 83l28 -83q-9 0 -20 0.5t-17 0.5t-15 -0.5t-20 -0.5l-191 554l-151 -474l29 -80q-9 0 -19.5 0.5t-17.5 0.5q-6 0 -15.5 -0.5t-20.5 -0.5l-231 622q-20 51 -69 51v8h21q6 0 31 -1.5t41 -1.5q18 0 45 1.5t32 1.5h21v-8q-53 0 -53 -30q0 -9 5 -24l195 -524l151 476
l-18 52q-11 29 -27 39.5t-42 10.5v8h21q6 0 33 -1.5t43 -1.5q18 0 42 1.5t30 1.5h21v-8q-53 0 -53 -30q0 -9 5 -24l180 -519l146 461q14 38 14 59q0 53 -71 53v8h12q11 0 41 -1.5t43 -1.5q7 0 34.5 1.5t35.5 1.5h21v-8q-86 -5 -120 -114z" />
    <glyph glyph-name="X" unicode="X" horiz-adv-x="632" 
d="M627 0h-39q-4 0 -26.5 1.5t-40.5 1.5q-17 0 -42 -1.5t-31 -1.5h-39v8q56 0 56 27q0 13 -11 30l-155 249l-142 -197q-29 -40 -29 -66q0 -20 12.5 -31.5t47.5 -11.5h1v-8h-13q-11 0 -40 1.5t-41 1.5q-6 0 -34.5 -1.5t-36.5 -1.5h-19v8h1q41 0 71.5 28t71.5 87l144 200
l-186 298q-33 52 -90 52v8h39q4 0 27 -1.5t41 -1.5t43 1.5t30 1.5h39v-8q-56 0 -56 -27q0 -13 11 -30l149 -240l126 188q29 40 29 66q0 20 -12.5 31.5t-47.5 11.5h-1v8h13q11 0 40 -1.5t41 -1.5q6 0 34.5 1.5t36.5 1.5h19v-8h-1q-42 -1 -73.5 -29.5t-69.5 -85.5l-128 -191
l191 -307q33 -52 90 -52v-8z" />
    <glyph glyph-name="Y" unicode="Y" horiz-adv-x="593" 
d="M339 327v-270q0 -32 9 -40.5t42 -8.5h1v-8h-16q-11 0 -32 1.5t-38 1.5t-38 -1.5t-32 -1.5h-16v8h1q33 0 42 8.5t9 40.5v253l-202 313q-18 27 -36 38.5t-45 11.5v8h29q6 0 28.5 -1.5t40.5 -1.5t42 1.5t30 1.5h34v-8q-29 0 -40 -5.5t-11 -19.5q0 -13 10 -29l183 -282
l139 227q26 43 26 63q0 46 -64 46h-1v8h13q11 0 39.5 -1.5t41.5 -1.5q6 0 34.5 1.5t36.5 1.5h19v-8h-1q-41 0 -71 -29t-66 -88z" />
    <glyph glyph-name="Z" unicode="Z" horiz-adv-x="586" 
d="M567 212l-95 -243l-6 2q2 14 -5 21.5t-26 7.5h-411v4l445 667h-209q-61 0 -96 -39q-42 -46 -116 -156l-6 3l95 234l6 -2q-2 -15 5.5 -22.5t27.5 -7.5h376v-4l-445 -667h244q33 0 53.5 8.5t45.5 36.5q50 57 111 160z" />
    <glyph glyph-name="bracketleft" unicode="[" horiz-adv-x="275" 
d="M85 -174v901q61 -3 165 -3v-9q-20 0 -55 -0.5t-48 -0.5l-47 -2q51 -196 51 -436q0 -243 -51 -435l47 -2q15 0 49.5 -0.5t53.5 -0.5v-9q-104 0 -165 -3z" />
    <glyph glyph-name="backslash" unicode="\" horiz-adv-x="351" 
d="M321 -172l-300 893l9 3l300 -893z" />
    <glyph glyph-name="bracketright" unicode="]" horiz-adv-x="275" 
d="M190 727v-901q-60 3 -165 3v9q20 0 55 0.5t48 0.5l47 2q-51 192 -51 435q0 240 51 436l-47 2q-15 0 -49.5 0.5t-53.5 0.5v9q105 0 165 3z" />
    <glyph glyph-name="asciicircum" unicode="^" horiz-adv-x="450" 
d="M402 321l-9 -4l-168 374l-168 -374l-9 4l173 384h8z" />
    <glyph glyph-name="underscore" unicode="_" horiz-adv-x="442" 
d="M432 -88h-422v10h422v-10z" />
    <glyph glyph-name="grave" unicode="`" horiz-adv-x="233" 
d="M184 546l-6 -4q-26 38 -68.5 77.5t-53.5 56.5q-6 9 -6 20q0 12 8 20t21 8q15 0 26 -15q14 -21 37 -74.5t42 -88.5z" />
    <glyph glyph-name="a" unicode="a" horiz-adv-x="500" 
d="M403 -8q-30 0 -45.5 19t-15.5 47q-78 -66 -158 -66q-63 0 -98.5 34t-35.5 93q0 107 163 172l129 52v78q0 39 -10 54t-41 15q-50 0 -88 -26t-78 -75q-14 -17 -29 -17q-10 0 -18 7.5t-8 18.5q0 30 70 65t152 35q63 0 89.5 -23.5t26.5 -67.5v-362q0 -35 24 -35q25 0 46 36
l5 -3q-27 -51 -80 -51zM193 3q34 0 75.5 18.5t73.5 46.5v18v248l-126 -52q-54 -22 -72 -61t-18 -100q0 -118 67 -118z" />
    <glyph glyph-name="b" unicode="b" horiz-adv-x="526" 
d="M479 245q0 -131 -55 -192t-129 -61t-156 67q-47 -32 -56 -69h-6v635q0 32 -9.5 40.5t-44.5 8.5h-1v7h6q33 0 68 13t41 30h6v-290q71 64 152 64q74 0 129 -61t55 -192zM403 245q0 76 -8 126t-24 75t-33.5 34t-42.5 9q-78 0 -152 -67v-354q72 -67 152 -67q25 0 42.5 9
t33.5 34t24 75t8 126z" />
    <glyph glyph-name="c" unicode="c" horiz-adv-x="472" 
d="M252 -8q-84 0 -147 68t-63 177q0 118 64 189.5t151 71.5q69 0 120 -43t51 -88q0 -12 -7.5 -20t-19.5 -8q-20 0 -27 20q-2 6 -8 35q-19 96 -110 96q-67 0 -102.5 -59t-35.5 -155q0 -123 46 -192.5t113 -69.5q107 0 149 126l6 -2q-47 -146 -180 -146z" />
    <glyph glyph-name="d" unicode="d" horiz-adv-x="539" 
d="M231 -8q-74 0 -129 61t-55 192t55 192t129 61q81 0 152 -64v191q0 32 -9.5 40.5t-44.5 8.5h-1v7h6q33 0 68 13t41 30h6v-667q0 -32 9.5 -41t44.5 -9h1v-7h-14q-12 0 -34.5 1t-39.5 1q-9 0 -19.5 -1t-13.5 -1v56q-77 -64 -152 -64zM231 1q73 0 152 67v354q-74 67 -152 67
q-25 0 -42.5 -9t-33.5 -34t-24 -75t-8 -126t8 -126t24 -75t33.5 -34t42.5 -9z" />
    <glyph glyph-name="e" unicode="e" horiz-adv-x="478" 
d="M252 -8q-84 0 -147 67.5t-63 176.5q0 120 64 191t151 71q70 0 125 -49.5t51 -132.5h-314q-1 -15 -1 -45q0 -109 43.5 -183t115.5 -74q106 0 149 126l6 -2q-47 -146 -180 -146zM120 325h245q-4 165 -113 165q-56 0 -89.5 -46t-42.5 -119z" />
    <glyph glyph-name="f" unicode="f" horiz-adv-x="302" 
d="M329 646q-6 0 -33 2t-37 2q-59 0 -81 -33t-22 -115v-12h158v-9h-158v-424q0 -31 14 -40.5t51 -9.5h14v-7h-23q-14 0 -41 1.5t-48 1.5q-17 0 -40 -1.5t-34 -1.5h-14v7h1q35 0 44.5 9t9.5 41v350q0 42 5 74h-73v9h75q15 59 44 100q35 50 88 79.5t100 29.5q30 0 30 -26
q0 -27 -30 -27z" />
    <glyph glyph-name="g" unicode="g" horiz-adv-x="518" 
d="M245 -234q-106 0 -168 33t-62 76q0 76 154 111q-61 9 -91 26.5t-30 49.5q0 18 10 32.5t29 26.5t35.5 19t41.5 16q-47 21 -75.5 62.5t-28.5 99.5q0 78 53 129t132 51q69 0 117 -37q51 69 106 69q38 0 38 -27q0 -12 -7.5 -19t-18.5 -7q-12 0 -29 7.5t-32 7.5q-23 0 -51 -36
q62 -51 62 -138q0 -78 -53 -128.5t-132 -50.5q-38 0 -71 12q-42 -14 -62 -27.5t-20 -34.5q0 -36 102 -47l123 -13q171 -19 171 -125q0 -66 -72.5 -102t-170.5 -36zM245 147q115 0 115 171q0 172 -115 172t-115 -172q0 -171 115 -171zM245 -226q89 0 143 29t54 80
q0 71 -138 87l-117 13q-62 -17 -88.5 -42t-26.5 -62q0 -44 46 -74.5t127 -30.5z" />
    <glyph glyph-name="h" unicode="h" horiz-adv-x="539" 
d="M451 428v-371q0 -32 9.5 -41t44.5 -9h1v-7h-14q-12 0 -34 1.5t-40 1.5t-40 -1.5t-34 -1.5h-14v7h1q35 0 44.5 9t9.5 41v374q0 48 -35 48q-17 0 -85 -24l-109 -42v-356q0 -32 9.5 -41t44.5 -9h1v-7h-14q-11 0 -34 1.5t-40 1.5t-40 -1.5t-34 -1.5h-14v7h1q35 0 44.5 9
t9.5 41v568q0 32 -9.5 40.5t-44.5 8.5h-1v7h6q33 0 68 13t41 30h6v-302l106 41q89 35 127 35q62 0 62 -70z" />
    <glyph glyph-name="i" unicode="i" horiz-adv-x="254" 
d="M219 0h-14q-11 0 -34 1.5t-40 1.5t-40 -1.5t-34 -1.5h-14v7h1q35 0 44.5 9t9.5 41v342q0 32 -9.5 40.5t-44.5 8.5h-1v7h6q33 0 68 13t41 30h6v-441q0 -32 9.5 -41t44.5 -9h1v-7zM131 592q-20 0 -34 13.5t-14 34.5t14 35t34 14t34.5 -14t14.5 -35t-14 -34.5t-35 -13.5z
" />
    <glyph glyph-name="j" unicode="j" horiz-adv-x="241" 
d="M-24 -236q-13 0 -22 7t-9 19q0 26 29 26q12 0 36.5 -5t33.5 -5q54 0 54 85v508q0 32 -9.5 40.5t-44.5 8.5h-1v7h6q33 0 68 13t41 30h6v-459q0 -106 -46 -184q-56 -91 -142 -91zM131 592q-20 0 -34 13.5t-14 34.5t14 35t34 14t34.5 -14t14.5 -35t-14 -34.5t-35 -13.5z" />
    <glyph glyph-name="k" unicode="k" horiz-adv-x="525" 
d="M370 397l-77 -80l163 -265q18 -28 30 -36.5t38 -8.5h1v-7h-12q-5 0 -28.5 1.5t-43.5 1.5q-19 0 -42 -1.5t-28 -1.5h-24v7h1q43 0 43 18q0 7 -6 17l-139 226l-90 -93v-118q0 -32 9.5 -41t44.5 -9h1v-7h-14q-11 0 -34 1.5t-40 1.5t-40 -1.5t-34 -1.5h-14v7h1q35 0 44.5 9
t9.5 41v568q0 32 -9.5 40.5t-44.5 8.5h-1v7h6q33 0 68 13t41 30h6v-537l85 88l-26 43h68l80 83q30 31 30 51q0 31 -48 31h-1v7h13q11 0 32 -1.5t39 -1.5q19 0 40 1.5t32 1.5h14v-7h-1q-57 0 -143 -86z" />
    <glyph glyph-name="l" unicode="l" horiz-adv-x="246" 
d="M156 724v-667q0 -32 9.5 -41t44.5 -9h1v-7h-14q-11 0 -34 1.5t-40 1.5t-40 -1.5t-34 -1.5h-14v7h1q35 0 44.5 9t9.5 41v568q0 32 -9.5 40.5t-44.5 8.5h-1v7h6q33 0 68 13t41 30h6z" />
    <glyph glyph-name="m" unicode="m" horiz-adv-x="822" 
d="M789 0h-14q-11 0 -34 1.5t-40 1.5t-40 -1.5t-34 -1.5h-14v7h1q35 0 44.5 9t9.5 41v374q0 48 -35 48q-16 0 -83 -26l-101 -40v-356q0 -32 9.5 -41t44.5 -9h1v-7h-14q-12 0 -34 1.5t-40 1.5t-40 -1.5t-34 -1.5h-14v7h1q35 0 44.5 9t9.5 41v374q0 48 -35 48q-16 0 -83 -26
l-101 -40v-356q0 -32 9.5 -41t44.5 -9h1v-7h-14q-11 0 -34 1.5t-40 1.5t-40 -1.5t-34 -1.5h-14v7h1q35 0 44.5 9t9.5 41v342q0 32 -9.5 40.5t-44.5 8.5h-1v7h6q33 0 68 13t41 30h6v-76l98 39q88 37 125 37q28 0 45 -15t17 -61l98 39q88 37 125 37q62 0 62 -70v-371
q0 -32 9.5 -41t44.5 -9h1v-7z" />
    <glyph glyph-name="n" unicode="n" horiz-adv-x="547" 
d="M514 0h-14q-12 0 -34 1.5t-40 1.5t-40 -1.5t-34 -1.5h-14v7h1q35 0 44.5 9t9.5 41v374q0 48 -35 48q-17 0 -85 -24l-109 -42v-356q0 -32 9.5 -41t44.5 -9h1v-7h-14q-11 0 -34 1.5t-40 1.5t-40 -1.5t-34 -1.5h-14v7h1q35 0 44.5 9t9.5 41v342q0 32 -9.5 40.5t-44.5 8.5h-1
v7h6q33 0 68 13t41 30h6v-76l106 41q89 35 127 35q62 0 62 -70v-371q0 -32 9.5 -41t44.5 -9h1v-7z" />
    <glyph glyph-name="o" unicode="o" horiz-adv-x="512" 
d="M256 -8q-88 0 -151 73.5t-63 179.5t63 179.5t151 73.5t151 -73.5t63 -179.5t-63 -179.5t-151 -73.5zM256 0q69 0 103.5 51.5t34.5 193.5t-34.5 193.5t-103.5 51.5t-103.5 -51.5t-34.5 -193.5t34.5 -193.5t103.5 -51.5z" />
    <glyph glyph-name="p" unicode="p" horiz-adv-x="539" 
d="M156 56v-225q0 -31 14 -40.5t51 -9.5h14v-7h-23q-14 0 -41 1.5t-48 1.5q-17 0 -40 -1.5t-34 -1.5h-14v7h1q35 0 44.5 9t9.5 41v568q0 32 -9.5 40.5t-44.5 8.5h-1v7h6q33 0 68 13t41 30h6v-64q71 64 152 64q74 0 129 -61t55 -192t-55 -192t-129 -61q-75 0 -152 64zM308 1
q25 0 42.5 9t33.5 34t24 75t8 126t-8 126t-24 75t-33.5 34t-42.5 9q-78 0 -152 -67v-354q79 -67 152 -67z" />
    <glyph glyph-name="q" unicode="q" horiz-adv-x="526" 
d="M47 245q0 131 55 192t129 61q84 0 156 -67q54 37 56 69h6v-669q0 -32 9.5 -41t44.5 -9h1v-7h-14q-12 0 -34.5 2t-39.5 2q-18 0 -40 -2t-34 -2h-28v7h14q35 0 45 9t10 41v225q-71 -64 -152 -64q-74 0 -129 61t-55 192zM123 245q0 -76 8 -126t24 -75t33.5 -34t42.5 -9
q73 0 152 67v354q-72 67 -152 67q-25 0 -42.5 -9t-33.5 -34t-24 -75t-8 -126z" />
    <glyph glyph-name="r" unicode="r" horiz-adv-x="354" 
d="M242 0h-23q-15 0 -42 1.5t-47 1.5q-18 0 -40 -1.5t-34 -1.5h-14v7h1q35 0 44.5 9t9.5 41v342q0 32 -9.5 40.5t-44.5 8.5h-1v7h6q33 0 68 13t41 30h6v-115q38 56 74 86q37 29 76 29q40 0 40 -26q0 -27 -39 -27q-9 0 -30 4.5t-33 4.5q-31 0 -88 -84v-313q0 -31 14 -40.5
t51 -9.5h14v-7z" />
    <glyph glyph-name="s" unicode="s" horiz-adv-x="451" 
d="M245 -8q-27 0 -67 10t-58 10q-11 0 -18.5 -5.5t-5.5 -14.5l-6 -2l-50 172l6 2q77 -164 200 -164q60 0 91.5 29t31.5 73q0 69 -112 112l-81 31q-107 41 -107 133q0 53 34.5 86.5t95.5 33.5q26 0 60.5 -8.5t48.5 -8.5q13 0 20 5t5 15l6 2l50 -168l-6 -2q-72 157 -184 157
q-51 0 -76 -23t-25 -54q0 -33 24.5 -57.5t83.5 -47.5l80 -31q60 -24 88.5 -56t28.5 -79q0 -70 -45 -110t-113 -40z" />
    <glyph glyph-name="t" unicode="t" horiz-adv-x="279" 
d="M164 -8q-76 0 -76 83v406h-68v9h68v79q27 0 43.5 17.5t16.5 42.5v1h6v-140h101v-9h-101v-417q0 -52 37 -52q15 0 32 14t29 35l6 -3q-13 -27 -38 -46.5t-56 -19.5z" />
    <glyph glyph-name="u" unicode="u" horiz-adv-x="534" 
d="M499 0h-14q-11 0 -34 1t-40 1q-9 0 -19.5 -1t-13.5 -1v68l-101 -41q-85 -35 -127 -35q-62 0 -62 70v337q0 32 -9.5 40.5t-44.5 8.5h-1v7h6q33 0 68 13t41 30h6v-439q0 -48 35 -48q23 0 85 24l104 42v322q0 32 -9.5 40.5t-44.5 8.5h-1v7h6q33 0 68 13t41 30h6v-441
q0 -32 9.5 -41t44.5 -9h1v-7z" />
    <glyph glyph-name="v" unicode="v" horiz-adv-x="465" 
d="M269 75l28 -75q-10 0 -20.5 0.5t-15.5 0.5q-6 0 -17 -0.5t-19 -0.5l-163 433q-11 30 -25.5 40t-42.5 10v7h23q6 0 27.5 -1.5t40.5 -1.5t40.5 1.5t26.5 1.5h24v-7q-50 0 -50 -24q0 -6 3 -15l135 -357l110 309q8 22 8 40q0 47 -66 47v7h10q12 0 35 -1.5t37 -1.5
q15 0 38 1.5t31 1.5h17v-7q-41 -2 -63.5 -24.5t-38.5 -66.5z" />
    <glyph glyph-name="w" unicode="w" horiz-adv-x="752" 
d="M557 75l28 -75q-10 0 -20.5 0.5t-15.5 0.5q-6 0 -17 -0.5t-19 -0.5l-139 370l-105 -295l28 -75q-10 0 -20 0.5t-15 0.5q-6 0 -17.5 -0.5t-19.5 -0.5l-163 433q-11 30 -25.5 40t-42.5 10v7h23q6 0 27.5 -1.5t40.5 -1.5t40.5 1.5t26.5 1.5h24v-7q-50 0 -50 -24q0 -6 3 -15
l135 -357l105 295l-19 51q-11 30 -25.5 40t-42.5 10v7h23q6 0 27 -1.5t40 -1.5t41 1.5t27 1.5h24v-7q-50 0 -50 -24q0 -7 3 -15l135 -357l110 309q8 22 8 40q0 47 -66 47v7h10q12 0 35 -1.5t38 -1.5t37.5 1.5t30.5 1.5h17v-7q-41 -2 -63.5 -24.5t-38.5 -66.5z" />
    <glyph glyph-name="x" unicode="x" horiz-adv-x="485" 
d="M480 0h-26q-6 0 -28 1.5t-41 1.5t-40 -1.5t-26 -1.5h-24v7q47 0 47 22q0 8 -6 17l-114 175l-92 -135q-16 -24 -16 -42q0 -19 11 -28t44 -9h1v-7h-10q-12 0 -35 1.5t-37 1.5q-15 0 -36.5 -1.5t-29.5 -1.5h-17v7h1q32 0 59 20t57 63l94 138l-126 196q-19 30 -37 44.5
t-42 14.5v7h26q6 0 28 -1.5t41 -1.5t40 1.5t26 1.5h24v-7q-47 0 -47 -22q0 -8 6 -17l107 -165l82 125q16 24 16 42q0 19 -11 28t-44 9h-1v7h10q12 0 35 -1.5t37 -1.5q15 0 36.5 1.5t29.5 1.5h17v-7h-1q-62 0 -116 -83l-84 -128l133 -206q19 -30 37 -44.5t42 -14.5v-7z" />
    <glyph glyph-name="y" unicode="y" horiz-adv-x="465" 
d="M269 75l28 -75q-9 0 -20 0.5t-16 0.5q-3 0 -11.5 -0.5t-14.5 -0.5l-20 -45q-49 -109 -82 -150t-95 -41q-41 0 -41 27q0 12 8 18.5t20 6.5t37 -6.5t35 -6.5q26 0 49 33t61 122l19 42l-164 434q-11 29 -25.5 39t-42.5 10v7h23q6 0 27.5 -1.5t40.5 -1.5t40.5 1.5t26.5 1.5
h24v-7q-50 0 -50 -24q0 -6 3 -15l135 -357l110 309q8 21 8 40q0 47 -66 47v7h10q12 0 35 -1.5t37 -1.5q15 0 38 1.5t31 1.5h17v-7q-41 -2 -63.5 -25t-38.5 -66z" />
    <glyph glyph-name="z" unicode="z" horiz-adv-x="446" 
d="M359 -21l-6 1q0 12 -9.5 16t-31.5 4h-280v4l299 478h-120q-34 0 -50.5 -6t-36.5 -26q-46 -46 -88 -113l-5 3l68 171l6 -1q0 -12 9.5 -16t31.5 -4h261v-4l-300 -478h135q41 0 60 8.5t46 37.5q21 22 79 105l5 -3z" />
    <glyph glyph-name="braceleft" unicode="{" horiz-adv-x="292" 
d="M170 -62q0 -47 21 -68.5t81 -35.5l-2 -8q-88 22 -123 52.5t-35 104.5q0 33 5 94.5t5 77.5q0 58 -16 85.5t-66 29.5v10q50 2 66 30t16 85q0 16 -5 78t-5 94q0 74 35 104.5t123 52.5l2 -8q-60 -14 -81 -35.5t-21 -68.5q0 -20 5 -100t5 -103q0 -59 -25.5 -92.5t-92.5 -41.5
q67 -8 92.5 -41.5t25.5 -92.5q0 -23 -5 -103t-5 -100z" />
    <glyph glyph-name="bar" unicode="|" horiz-adv-x="210" 
d="M110 -217h-10v987h10v-987z" />
    <glyph glyph-name="braceright" unicode="}" horiz-adv-x="292" 
d="M122 -62q0 20 -5 100t-5 103q0 59 25.5 92.5t92.5 41.5q-67 8 -92.5 41.5t-25.5 92.5q0 23 5 103t5 100q0 47 -21 68.5t-81 35.5l2 8q88 -22 123 -52.5t35 -104.5q0 -32 -5 -94t-5 -78q0 -57 16 -85t66 -30v-10q-50 -2 -66 -29.5t-16 -85.5q0 -16 5 -77.5t5 -94.5
q0 -74 -35 -104.5t-123 -52.5l-2 8q60 14 81 35.5t21 68.5z" />
    <glyph glyph-name="asciitilde" unicode="~" horiz-adv-x="531" 
d="M379 282q-42 0 -115 31t-112 31q-60 0 -98 -58l-9 5q15 24 43 43.5t64 19.5q43 0 115.5 -31t111.5 -31q60 0 98 58l9 -5q-15 -24 -43 -43.5t-64 -19.5z" />
    <glyph glyph-name="uni00A0" unicode="&#xa0;" horiz-adv-x="190" 
 />
    <glyph glyph-name="exclamdown" unicode="&#xa1;" horiz-adv-x="241" 
d="M115 284h10v-43q0 -63 16.5 -203.5t16.5 -187.5q0 -48 -38 -48q-37 0 -37 48q0 46 16 187t16 204v43zM120 498q21 0 36.5 -15t15.5 -37t-15.5 -37t-36.5 -15t-36.5 15t-15.5 37t15.5 37t36.5 15z" />
    <glyph glyph-name="cent" unicode="&#xa2;" horiz-adv-x="500" 
d="M265 -8q-54 0 -101 30l-55 -165l-9 3l55 167q-100 68 -100 210q0 118 64 189.5t151 71.5q15 0 40 -5l46 138l9 -3l-46 -137q52 -14 87 -51.5t35 -72.5q0 -12 -7.5 -20t-19.5 -8q-20 0 -27 20q-2 6 -8 35q-13 68 -63 87l-134 -405q42 -62 108 -62q107 0 149 126l6 -2
q-47 -146 -180 -146zM131 276q0 -118 44 -190l132 398q-17 6 -38 6q-67 0 -102.5 -59t-35.5 -155z" />
    <glyph glyph-name="sterling" unicode="&#xa3;" horiz-adv-x="586" 
d="M425 -8q-13 0 -25.5 2t-27 7.5t-23.5 8.5t-26.5 13t-23 13t-26 15.5t-23.5 14.5q-48 -76 -134 -76q-34 0 -57.5 18.5t-23.5 50.5q0 33 28 54.5t75 21.5q42 0 112 -27q3 16 3 35q0 71 -44 168h-133v10h129q-32 65 -47 109.5t-15 91.5q0 74 58.5 121.5t127.5 47.5
q63 0 123 -39.5t60 -93.5q0 -14 -8 -22.5t-21 -8.5q-18 0 -26 12t-15 43q-12 52 -38 76t-75 24q-56 0 -86.5 -33t-30.5 -86q0 -28 6.5 -61.5t12 -54t20.5 -65.5t20 -61h177v-10h-175q16 -62 16 -102q0 -56 -20 -108q4 -2 24.5 -10t27 -10t23.5 -8.5t26.5 -8.5t23.5 -6t26 -5
t24 -1q83 0 83 92q0 51 -30 91l7 6q19 -24 28 -58t9 -56q0 -62 -32 -98.5t-84 -36.5zM116 0q38 0 72 18.5t51 54.5q-79 46 -124 46q-30 0 -50 -16.5t-20 -43.5t20 -43t51 -16z" />
    <glyph glyph-name="currency" unicode="&#xa4;" horiz-adv-x="664" 
d="M331 110q-102 0 -167 59l-111 -110l-7 7l111 110q-63 63 -63 166q0 104 65 167l-111 113l7 7l112 -113q65 59 164 59q101 0 167 -61l113 113l7 -7l-113 -112q64 -66 64 -166q0 -102 -64 -166l111 -112l-7 -7l-112 112q-65 -59 -166 -59zM331 119q99 0 163.5 60.5
t64.5 162.5t-65 163t-163 61t-162.5 -61t-64.5 -163t64.5 -162.5t162.5 -60.5z" />
    <glyph glyph-name="yen" unicode="&#xa5;" horiz-adv-x="601" 
d="M389 0h-13q-12 0 -34 1.5t-39 1.5t-40 -1.5t-34 -1.5h-12v8h1q34 0 42.5 9.5t8.5 42.5v98h-156v10h156v93h-156v10h156v47l-183 305q-29 50 -81 50v8h29q6 0 29 -1.5t40 -1.5q18 0 42.5 1.5t30.5 1.5h34v-8q-29 0 -40 -5.5t-11 -19.5q0 -13 10 -29l162 -274l120 219
q26 47 26 65q0 44 -64 44h-1v8h13q11 0 39.5 -1.5t41.5 -1.5q6 0 34.5 1.5t36.5 1.5h19v-8h-1q-77 0 -137 -117l-121 -220v-65h156v-10h-156v-93h156v-10h-156v-98q0 -33 9 -42.5t42 -9.5h1v-8z" />
    <glyph glyph-name="brokenbar" unicode="&#xa6;" horiz-adv-x="210" 
d="M110 -217h-10v438h10v-438zM110 342h-10v428h10v-428z" />
    <glyph glyph-name="section" unicode="&#xa7;" horiz-adv-x="509" 
d="M177 -155q-84 0 -84 41q0 13 9 22.5t25 9.5q14 0 52 -18t71 -18q42 0 66.5 23t24.5 61q0 23 -11.5 47.5t-24 41t-42.5 52.5l-125 147q-45 53 -61.5 84t-16.5 67q0 82 72 138q12 64 70 105t130 41q84 0 84 -41q0 -13 -9 -22.5t-25 -9.5q-14 0 -51.5 18t-71.5 18
q-42 0 -66.5 -23t-24.5 -61q0 -23 11.5 -47.5t24 -41t42.5 -52.5l125 -147q46 -52 62 -83t16 -68q0 -82 -72 -138q-12 -64 -70 -105t-130 -41zM415 77q0 35 -16.5 61.5t-63.5 80.5l-133 155q-38 44 -54.5 78t-16.5 80q-37 -35 -37 -75q0 -35 16.5 -61.5t63.5 -80.5l133 -155
q38 -44 54.5 -78t16.5 -80q37 35 37 75z" />
    <glyph glyph-name="dieresis" unicode="&#xa8;" horiz-adv-x="401" 
d="M152 628q0 -19 -13 -31.5t-32 -12.5q-18 0 -31 12.5t-13 31.5t13 32t31 13q19 0 32 -13t13 -32zM341 628q0 -18 -13.5 -31t-31.5 -13q-19 0 -31.5 12.5t-12.5 31.5t12.5 32t31.5 13q18 0 31.5 -13t13.5 -32z" />
    <glyph glyph-name="copyright" unicode="&#xa9;" horiz-adv-x="792" 
d="M396 -9q-147 0 -246.5 96.5t-99.5 252.5t99.5 252.5t246.5 96.5q146 0 246 -97t100 -252q0 -156 -100 -252.5t-246 -96.5zM396 1q143 0 239.5 93.5t96.5 245.5q0 151 -96.5 245t-239.5 94q-144 0 -240 -93.5t-96 -245.5q0 -153 96 -246t240 -93zM397 127q-78 0 -134 61
t-56 148q0 54 17.5 96.5t45.5 66.5t58.5 36t60.5 12q21 0 47.5 -5.5t34.5 -5.5q25 0 22 23l6 2l64 -138l-6 -4q-50 60 -88 89.5t-81 29.5q-52 0 -86.5 -41.5t-34.5 -121.5q0 -89 47 -150.5t117 -61.5q41 0 78.5 20.5t59.5 59.5l7 -4q-24 -47 -73 -79.5t-106 -32.5z" />
    <glyph glyph-name="ordfeminine" unicode="&#xaa;" horiz-adv-x="378" 
d="M280 361q-41 0 -46 39q-47 -39 -93 -39q-43 0 -67 23t-24 63q0 68 98 108l85 34v49q0 25 -5.5 34t-25.5 9q-52 0 -99 -62q-13 -15 -24 -15q-8 0 -13.5 6t-5.5 14q0 21 46 43.5t99 22.5q44 0 62.5 -17.5t18.5 -52.5v-209q0 -31 19 -31q11 0 17 15l6 -2q-9 -32 -48 -32z
M157 373q31 0 76 37v26v144l-69 -28q-33 -14 -45.5 -36.5t-12.5 -58.5q0 -84 51 -84zM328 291h-276v9h276v-9z" />
    <glyph glyph-name="guillemotleft" unicode="&#xab;" horiz-adv-x="502" 
d="M276 74l-5 -5q-25 26 -79 71t-94.5 76.5t-47.5 36.5q7 5 47.5 36.5t94.5 76.5t79 71l5 -5q-22 -26 -52.5 -67t-54 -74t-27.5 -38q1 -2 52.5 -72.5t81.5 -106.5zM433 74l-5 -5q-25 26 -79 71t-94.5 76.5t-47.5 36.5q7 5 47.5 36.5t94.5 76.5t79 71l5 -5
q-18 -21 -41.5 -51.5t-39.5 -53t-34.5 -48t-18.5 -26.5q95 -132 134 -179z" />
    <glyph glyph-name="logicalnot" unicode="&#xac;" horiz-adv-x="506" 
d="M461 107h-10v213h-406v10h416v-223z" />
    <glyph glyph-name="uni00AD" unicode="&#xad;" horiz-adv-x="303" 
d="M238 262h-173v39h173v-39z" />
    <glyph glyph-name="registered" unicode="&#xae;" horiz-adv-x="520" 
d="M260 304q-89 0 -149.5 58.5t-60.5 151.5t60.5 151.5t149.5 58.5t149.5 -58.5t60.5 -151.5t-60.5 -151.5t-149.5 -58.5zM260 314q84 0 142 55.5t58 144.5t-58 144.5t-142 55.5t-142 -55.5t-58 -144.5t58 -144.5t142 -55.5zM388 401v-7q-9 0 -21.5 0.5t-20.5 0.5
q-4 0 -12 -0.5t-12 -0.5l-54 109h-49v-84q0 -12 5 -15t25 -3v-7h-16q-4 0 -14.5 0.5t-16.5 0.5t-16.5 -0.5t-14.5 -0.5h-16v7q20 0 24.5 3t4.5 15v190q0 11 -4.5 14t-24.5 3v7h16q4 0 14.5 -0.5t16.5 -0.5t16.5 0.5t14.5 0.5h46q40 0 62.5 -16.5t22.5 -48.5q0 -28 -20 -46.5
t-64 -18.5h-4q10 -18 32 -18h11l24 -51q11 -22 19 -27.5t26 -5.5zM329 568q0 29 -11 43t-41 14h-58v-114h60q50 0 50 57z" />
    <glyph glyph-name="macron" unicode="&#xaf;" horiz-adv-x="360" 
d="M300 608h-240v22h240v-22z" />
    <glyph glyph-name="degree" unicode="&#xb0;" horiz-adv-x="314" 
d="M274 573q0 -53 -34 -85.5t-83 -32.5t-83 32.5t-34 85.5t34 85.5t83 32.5t83 -32.5t34 -85.5zM264 573q0 49 -31.5 79t-75.5 30t-75.5 -30t-31.5 -79q0 -48 31.5 -78.5t75.5 -30.5t75.5 30.5t31.5 78.5z" />
    <glyph glyph-name="plusminus" unicode="&#xb1;" horiz-adv-x="490" 
d="M45 370v10h195v165h10v-165h195v-10h-195v-169h-10v169h-195zM45 111v10h400v-10h-400z" />
    <glyph glyph-name="twosuperior" unicode="&#xb2;" 
d="M238 620q0 -17 -6 -33t-23.5 -35t-27 -29t-38.5 -34t-37 -31l-19 -17h156l-16 -76l-6 1q2 31 -27 31h-160v4l61 60q87 87 87 159q0 62 -36 62q-32 0 -48 -48q-9 -27 -27 -27q-21 0 -21 21t28 41t72 20q39 0 63.5 -17.5t24.5 -51.5z" />
    <glyph glyph-name="threesuperior" unicode="&#xb3;" 
d="M254 481q0 -40 -33 -66t-74 -26q-50 0 -81 22.5t-31 53.5q0 9 6 16t15 7q21 0 26 -25q8 -38 22.5 -52t42.5 -14t39.5 19.5t11.5 62.5q0 73 -33 73q-7 0 -21 -6l-33 -16l-3 7l41 20q30 15 30 68q0 57 -36 57q-31 0 -47 -48q-9 -27 -27 -27q-21 0 -21 21q0 20 28 40.5
t70 20.5q39 0 63 -15.5t24 -44.5q0 -22 -19.5 -41t-48.5 -29q35 0 62 -21t27 -57z" />
    <glyph glyph-name="acute" unicode="&#xb4;" horiz-adv-x="233" 
d="M55 542l-6 4q19 35 42 88.5t37 74.5q11 15 26 15q12 0 20.5 -8t8.5 -20q0 -11 -6 -20q-11 -16 -53.5 -55.5t-68.5 -78.5z" />
    <glyph glyph-name="mu" unicode="&#xb5;" horiz-adv-x="534" 
d="M499 0h-14q-11 0 -34 1t-40 1q-9 0 -19.5 -1t-13.5 -1v68l-101 -41q-85 -35 -127 -35q-39 0 -54 27q5 -65 23 -133.5t18 -79.5q0 -20 -10.5 -31t-28.5 -11q-16 0 -26.5 11t-10.5 31q0 10 13.5 89.5t13.5 142.5v361q0 32 -9.5 40.5t-44.5 8.5h-1v7h6q33 0 68 13t41 30h6
v-439q0 -48 35 -48q23 0 85 24l104 42v322q0 32 -9.5 40.5t-44.5 8.5h-1v7h6q33 0 68 13t41 30h6v-441q0 -32 9.5 -41t44.5 -9h1v-7z" />
    <glyph glyph-name="paragraph" unicode="&#xb6;" horiz-adv-x="551" 
d="M405 -226h-10v226h-77q-119 0 -193.5 85.5t-74.5 255.5t74.5 255t193.5 85h183v-10h-96v-661h96v-10h-96v-226zM315 10h80v661h-80v-661z" />
    <glyph glyph-name="periodcentered" unicode="&#xb7;" horiz-adv-x="254" 
d="M127 293q-21 0 -36.5 15t-15.5 37t15.5 37t36.5 15t36.5 -15t15.5 -37t-15.5 -37t-36.5 -15z" />
    <glyph glyph-name="cedilla" unicode="&#xb8;" horiz-adv-x="288" 
d="M238 -117q0 -50 -60 -88t-128 -45l-1 7q65 8 105.5 41.5t40.5 69.5q0 41 -51 41q-35 0 -56 -12l-3 3l86 100h5l-35 -58q14 2 20 2q34 0 55.5 -16t21.5 -45z" />
    <glyph glyph-name="onesuperior" unicode="&#xb9;" 
d="M223 397h-7q-11 0 -29 1.5t-35 1.5t-35 -1.5t-29 -1.5h-22v7h18q26 0 34 9t8 41v141q0 22 -16 22q-4 0 -40 -17l-3 6l15 8q32 18 58.5 43t32.5 42h5v-245q0 -30 7 -40t30 -10h8v-7z" />
    <glyph glyph-name="ordmasculine" unicode="&#xba;" horiz-adv-x="385" 
d="M191 369q41 0 61.5 32.5t20.5 122.5q0 92 -20 124t-62 32q-41 0 -60.5 -32t-19.5 -124q0 -90 20 -122.5t60 -32.5zM191 360q-59 0 -100 48t-41 116q0 70 40.5 117.5t100.5 47.5q61 0 102.5 -47.5t41.5 -117.5q0 -68 -41.5 -116t-102.5 -48zM329 291h-276v9h276v-9z" />
    <glyph glyph-name="guillemotright" unicode="&#xbb;" horiz-adv-x="502" 
d="M74 69l-5 5q71 82 134 179q-87 127 -134 179l5 5q25 -26 79 -71t94.5 -76.5t47.5 -36.5q-7 -5 -47.5 -36.5t-94.5 -76.5t-79 -71zM231 69l-5 5q71 82 134 179q-80 120 -134 179l5 5q25 -26 79 -71t94.5 -76.5t47.5 -36.5q-7 -5 -47.5 -36.5t-94.5 -76.5t-79 -71z" />
    <glyph glyph-name="onequarter" unicode="&#xbc;" horiz-adv-x="390" 
d="M44 346h302v-9h-302v9zM271 397h-7q-11 0 -29 1.5t-35 1.5t-35 -1.5t-29 -1.5h-22v7h18q26 0 34 9t8 41v141q0 22 -16 22q-4 0 -40 -17l-3 6l15 8q32 18 58.5 43t32.5 42h5v-245q0 -30 7 -40t30 -10h8v-7zM286 0h-11q-5 0 -20 1.5t-34 1.5t-34 -1.5t-20 -1.5h-22v7h11
q24 0 31.5 9t7.5 41v19h-129v4l137 204q1 0 9 -0.5t12 -0.5q5 0 12 0.5t11 0.5v-200h3q33 0 65 66l5 -1l-16 -73h-57v-19q0 -32 7 -41t30 -9h2v-7zM195 84v174l-116 -174h116z" />
    <glyph glyph-name="onehalf" unicode="&#xbd;" horiz-adv-x="390" 
d="M44 346h302v-9h-302v9zM271 397h-7q-11 0 -29 1.5t-35 1.5t-35 -1.5t-29 -1.5h-22v7h18q26 0 34 9t8 41v141q0 22 -16 22q-4 0 -40 -17l-3 6l15 8q32 18 58.5 43t32.5 42h5v-245q0 -30 7 -40t30 -10h8v-7zM280 223q0 -17 -6 -33t-23.5 -35t-27 -29t-38.5 -34t-37 -31
l-19 -17h156l-16 -76l-6 1q2 31 -27 31h-160v4l61 60q87 87 87 159q0 62 -36 62q-32 0 -48 -48q-9 -27 -27 -27q-21 0 -21 21t28 41t72 20q39 0 63.5 -17.5t24.5 -51.5z" />
    <glyph glyph-name="threequarters" unicode="&#xbe;" horiz-adv-x="390" 
d="M44 346h302v-9h-302v9zM286 0h-11q-5 0 -20 1.5t-34 1.5t-34 -1.5t-20 -1.5h-22v7h11q24 0 31.5 9t7.5 41v19h-129v4l137 204q1 0 9 -0.5t12 -0.5q5 0 12 0.5t11 0.5v-200h3q33 0 65 66l5 -1l-16 -73h-57v-19q0 -32 7 -41t30 -9h2v-7zM195 84v174l-116 -174h116zM308 481
q0 -40 -33 -66t-74 -26q-50 0 -81 22.5t-31 53.5q0 9 6 16t15 7q21 0 26 -25q8 -38 22.5 -52t42.5 -14t39.5 19.5t11.5 62.5q0 73 -33 73q-7 0 -21 -6l-33 -16l-3 7l41 20q30 15 30 68q0 57 -36 57q-31 0 -47 -48q-9 -27 -27 -27q-21 0 -21 21q0 20 28 40.5t70 20.5
q39 0 63 -15.5t24 -44.5q0 -22 -19.5 -41t-48.5 -29q35 0 62 -21t27 -57z" />
    <glyph glyph-name="questiondown" unicode="&#xbf;" horiz-adv-x="345" 
d="M202 284h10v-202q-69 -14 -108 -52t-39 -83q0 -35 25 -60t73 -25q24 0 54 7t39 7q15 0 23.5 -10.5t8.5 -25.5q0 -38 -57 -38q-80 0 -129 48.5t-49 121.5q0 142 149 186v126zM208 498q21 0 36.5 -15t15.5 -37t-15.5 -37t-36.5 -15t-36.5 15t-15.5 37t15.5 37t36.5 15z" />
    <glyph glyph-name="Agrave" unicode="&#xc0;" horiz-adv-x="638" 
d="M653 0h-21q-6 0 -32 1.5t-41 1.5q-18 0 -45 -1.5t-32 -1.5h-21v8q52 0 52 31q0 11 -7 25l-52 124h-322l-27 -68q-14 -38 -14 -59q0 -53 71 -53v-8h-12q-11 0 -41 1.5t-43 1.5q-7 0 -34.5 -1.5t-35.5 -1.5h-21v8q42 2 69 27.5t51 86.5l187 478l-34 81q9 0 21 -0.5t18 -0.5
t16.5 0.5t18.5 0.5l260 -621q22 -52 71 -52v-8zM288 589l-152 -391h314zM358 735l-6 -4q-26 38 -68.5 77.5t-53.5 56.5q-6 9 -6 20t8 19.5t21 8.5q15 0 26 -15q14 -21 37 -74.5t42 -88.5z" />
    <glyph glyph-name="Aacute" unicode="&#xc1;" horiz-adv-x="638" 
d="M653 0h-21q-6 0 -32 1.5t-41 1.5q-18 0 -45 -1.5t-32 -1.5h-21v8q52 0 52 31q0 11 -7 25l-52 124h-322l-27 -68q-14 -38 -14 -59q0 -53 71 -53v-8h-12q-11 0 -41 1.5t-43 1.5q-7 0 -34.5 -1.5t-35.5 -1.5h-21v8q42 2 69 27.5t51 86.5l187 478l-34 81q9 0 21 -0.5t18 -0.5
t16.5 0.5t18.5 0.5l260 -621q22 -52 71 -52v-8zM288 589l-152 -391h314zM242 731l-6 4q19 35 42 88.5t37 74.5q11 15 26 15q13 0 21 -8.5t8 -19.5t-6 -20q-11 -16 -53.5 -55.5t-68.5 -78.5z" />
    <glyph glyph-name="Acircumflex" unicode="&#xc2;" horiz-adv-x="638" 
d="M653 0h-21q-6 0 -32 1.5t-41 1.5q-18 0 -45 -1.5t-32 -1.5h-21v8q52 0 52 31q0 11 -7 25l-52 124h-322l-27 -68q-14 -38 -14 -59q0 -53 71 -53v-8h-12q-11 0 -41 1.5t-43 1.5q-7 0 -34.5 -1.5t-35.5 -1.5h-21v8q42 2 69 27.5t51 86.5l187 478l-34 81q9 0 21 -0.5t18 -0.5
t16.5 0.5t18.5 0.5l260 -621q22 -52 71 -52v-8zM288 589l-152 -391h314zM411 735l-6 -4q-16 21 -33 39.5t-42.5 44l-32.5 32.5l-32.5 -32.5t-42.5 -44t-33 -39.5l-6 4q14 21 27.5 46t28.5 55.5t22 42.5q10 19 17.5 26.5t18.5 7.5t18.5 -7.5t17.5 -26.5q7 -12 22 -42.5
t28.5 -55.5t27.5 -46z" />
    <glyph glyph-name="Atilde" unicode="&#xc3;" horiz-adv-x="638" 
d="M653 0h-21q-6 0 -32 1.5t-41 1.5q-18 0 -45 -1.5t-32 -1.5h-21v8q52 0 52 31q0 11 -7 25l-52 124h-322l-27 -68q-14 -38 -14 -59q0 -53 71 -53v-8h-12q-11 0 -41 1.5t-43 1.5q-7 0 -34.5 -1.5t-35.5 -1.5h-21v8q42 2 69 27.5t51 86.5l187 478l-34 81q9 0 21 -0.5t18 -0.5
t16.5 0.5t18.5 0.5l260 -621q22 -52 71 -52v-8zM288 589l-152 -391h314zM337 777q-21 0 -55.5 21.5t-60.5 21.5q-11 0 -23.5 -11t-18 -18.5t-17.5 -26.5l-6 4q2 3 13 21t17.5 26.5t18 21.5t24.5 18.5t28 5.5q21 0 55 -21.5t61 -21.5q11 0 23.5 11t18 18.5t17.5 26.5l6 -4
q-35 -59 -58 -77q-21 -16 -43 -16z" />
    <glyph glyph-name="Adieresis" unicode="&#xc4;" horiz-adv-x="638" 
d="M653 0h-21q-6 0 -32 1.5t-41 1.5q-18 0 -45 -1.5t-32 -1.5h-21v8q52 0 52 31q0 11 -7 25l-52 124h-322l-27 -68q-14 -38 -14 -59q0 -53 71 -53v-8h-12q-11 0 -41 1.5t-43 1.5q-7 0 -34.5 -1.5t-35.5 -1.5h-21v8q42 2 69 27.5t51 86.5l187 478l-34 81q9 0 21 -0.5t18 -0.5
t16.5 0.5t18.5 0.5l260 -621q22 -52 71 -52v-8zM288 589l-152 -391h314zM248 807q0 -19 -13 -31.5t-32 -12.5q-18 0 -31 12.5t-13 31.5t13 32t31 13q19 0 32 -13t13 -32zM437 807q0 -18 -13.5 -31t-31.5 -13q-19 0 -31.5 12.5t-12.5 31.5t12.5 32t31.5 13q18 0 31.5 -13
t13.5 -32z" />
    <glyph glyph-name="Aring" unicode="&#xc5;" horiz-adv-x="638" 
d="M653 0h-21q-6 0 -32 1.5t-41 1.5q-18 0 -45 -1.5t-32 -1.5h-21v8q52 0 52 31q0 11 -7 25l-52 124h-322l-27 -68q-14 -38 -14 -59q0 -53 71 -53v-8h-12q-11 0 -41 1.5t-43 1.5q-7 0 -34.5 -1.5t-35.5 -1.5h-21v8q42 2 69 27.5t51 86.5l187 478l-34 81q9 0 21 -0.5t18 -0.5
t16.5 0.5t18.5 0.5l260 -621q22 -52 71 -52v-8zM288 589l-152 -391h314zM381 828q0 -36 -24 -61t-60 -25t-60 25t-24 61t24 61t60 25t60 -25t24 -61zM371 828q0 31 -21 53.5t-53 22.5t-53 -22.5t-21 -53.5t21 -53.5t53 -22.5t53 22.5t21 53.5z" />
    <glyph glyph-name="AE" unicode="&#xc6;" horiz-adv-x="1001" 
d="M482 198v429l-315 -429h315zM879 -31l-6 2q2 14 -5 21.5t-26 7.5h-237q-15 0 -42 0.5t-47 0.5q-16 0 -38 -0.5t-32 -0.5h-16v8h1q33 0 42 8.5t9 40.5v131h-323l-52 -71q-30 -40 -30 -67q0 -20 12.5 -31t48.5 -11h2v-8h-12q-12 0 -42 1.5t-44 1.5q-8 0 -36.5 -1.5
t-37.5 -1.5h-23v8h2q69 4 151 114l365 496q13 17 13 33q0 22 -41 22h-5v8h16q10 0 32 -0.5t38 -0.5q20 0 47 0.5t42 0.5h224q20 0 27.5 7.5t5.5 22.5l6 2l92 -226l-6 -3q-78 109 -113 148t-96 39h-195v-320h128q55 0 73 31t25 101h7v-277h-7q-4 35 -8 55t-14 41t-28.5 30
t-47.5 9h-128v-331h206q33 0 54.5 8.5t46.5 36.5q50 57 111 160l6 -3z" />
    <glyph glyph-name="Ccedilla" unicode="&#xc7;" horiz-adv-x="612" 
d="M368 -117q0 -50 -60 -88t-128 -45l-1 7q65 8 105.5 41.5t40.5 69.5q0 41 -51 41q-35 0 -56 -12l-3 3l78 93q-115 10 -187 108t-72 242q0 86 28.5 155.5t73 110t93 61.5t94.5 21q35 0 78 -9.5t52 -9.5q35 0 33 33l6 2l92 -227l-6 -3q-68 113 -128 159t-127 46
q-93 0 -161.5 -75.5t-68.5 -199.5q0 -164 77.5 -265.5t192.5 -101.5q138 0 213 140l7 -3q-38 -80 -109.5 -132.5t-156.5 -52.5q-11 0 -16 1l-30 -51q14 2 20 2q34 0 55.5 -16t21.5 -45z" />
    <glyph glyph-name="Egrave" unicode="&#xc8;" horiz-adv-x="615" 
d="M493 -31l-6 2q2 14 -5 21.5t-26 7.5h-237q-15 0 -42 0.5t-47 0.5q-16 0 -38 -0.5t-32 -0.5h-16v8h1q33 0 42 8.5t9 40.5v567q0 32 -9 40.5t-42 8.5h-1v8h16q10 0 32 -0.5t38 -0.5q20 0 47 0.5t42 0.5h224q20 0 27.5 7.5t5.5 22.5l6 2l92 -226l-6 -3q-77 108 -113 148
q-36 39 -96 39h-195v-320h128q55 0 73 31t25 101h7v-277h-7q-4 35 -8 55t-14 41t-28.5 30t-47.5 9h-128v-331h206q33 0 54.5 8.5t46.5 36.5q50 57 111 160l6 -3zM356 735l-6 -4q-26 38 -68.5 77.5t-53.5 56.5q-6 9 -6 20t8 19.5t21 8.5q15 0 26 -15q14 -21 37 -74.5
t42 -88.5z" />
    <glyph glyph-name="Eacute" unicode="&#xc9;" horiz-adv-x="615" 
d="M493 -31l-6 2q2 14 -5 21.5t-26 7.5h-237q-15 0 -42 0.5t-47 0.5q-16 0 -38 -0.5t-32 -0.5h-16v8h1q33 0 42 8.5t9 40.5v567q0 32 -9 40.5t-42 8.5h-1v8h16q10 0 32 -0.5t38 -0.5q20 0 47 0.5t42 0.5h224q20 0 27.5 7.5t5.5 22.5l6 2l92 -226l-6 -3q-77 108 -113 148
q-36 39 -96 39h-195v-320h128q55 0 73 31t25 101h7v-277h-7q-4 35 -8 55t-14 41t-28.5 30t-47.5 9h-128v-331h206q33 0 54.5 8.5t46.5 36.5q50 57 111 160l6 -3zM240 731l-6 4q19 35 42 88.5t37 74.5q11 15 26 15q13 0 21 -8.5t8 -19.5t-6 -20q-11 -16 -53.5 -55.5
t-68.5 -78.5z" />
    <glyph glyph-name="Ecircumflex" unicode="&#xca;" horiz-adv-x="615" 
d="M493 -31l-6 2q2 14 -5 21.5t-26 7.5h-237q-15 0 -42 0.5t-47 0.5q-16 0 -38 -0.5t-32 -0.5h-16v8h1q33 0 42 8.5t9 40.5v567q0 32 -9 40.5t-42 8.5h-1v8h16q10 0 32 -0.5t38 -0.5q20 0 47 0.5t42 0.5h224q20 0 27.5 7.5t5.5 22.5l6 2l92 -226l-6 -3q-77 108 -113 148
q-36 39 -96 39h-195v-320h128q55 0 73 31t25 101h7v-277h-7q-4 35 -8 55t-14 41t-28.5 30t-47.5 9h-128v-331h206q33 0 54.5 8.5t46.5 36.5q50 57 111 160l6 -3zM409 735l-6 -4q-16 21 -33 39.5t-42.5 44l-32.5 32.5l-32.5 -32.5t-42.5 -44t-33 -39.5l-6 4q14 21 27.5 46
t28.5 55.5t22 42.5q10 19 17.5 26.5t18.5 7.5t18.5 -7.5t17.5 -26.5q7 -12 22 -42.5t28.5 -55.5t27.5 -46z" />
    <glyph glyph-name="Edieresis" unicode="&#xcb;" horiz-adv-x="615" 
d="M493 -31l-6 2q2 14 -5 21.5t-26 7.5h-237q-15 0 -42 0.5t-47 0.5q-16 0 -38 -0.5t-32 -0.5h-16v8h1q33 0 42 8.5t9 40.5v567q0 32 -9 40.5t-42 8.5h-1v8h16q10 0 32 -0.5t38 -0.5q20 0 47 0.5t42 0.5h224q20 0 27.5 7.5t5.5 22.5l6 2l92 -226l-6 -3q-77 108 -113 148
q-36 39 -96 39h-195v-320h128q55 0 73 31t25 101h7v-277h-7q-4 35 -8 55t-14 41t-28.5 30t-47.5 9h-128v-331h206q33 0 54.5 8.5t46.5 36.5q50 57 111 160l6 -3zM246 807q0 -19 -13 -31.5t-32 -12.5q-18 0 -31 12.5t-13 31.5t13 32t31 13q19 0 32 -13t13 -32zM435 807
q0 -18 -13.5 -31t-31.5 -13q-19 0 -31.5 12.5t-12.5 31.5t12.5 32t31.5 13q18 0 31.5 -13t13.5 -32z" />
    <glyph glyph-name="Igrave" unicode="&#xcc;" horiz-adv-x="260" 
d="M164 624v-567q0 -32 9 -40.5t42 -8.5h1v-8h-16q-10 0 -32 1.5t-38 1.5t-38 -1.5t-32 -1.5h-16v8h1q33 0 42 8.5t9 40.5v567q0 32 -9 40.5t-42 8.5h-1v8h16q10 0 32 -1.5t38 -1.5t38 1.5t32 1.5h16v-8h-1q-33 0 -42 -8.5t-9 -40.5zM191 735l-6 -4q-26 38 -68.5 77.5
t-53.5 56.5q-6 9 -6 20t8.5 19.5t20.5 8.5q16 0 26 -15q14 -21 37 -74.5t42 -88.5z" />
    <glyph glyph-name="Iacute" unicode="&#xcd;" horiz-adv-x="260" 
d="M164 624v-567q0 -32 9 -40.5t42 -8.5h1v-8h-16q-10 0 -32 1.5t-38 1.5t-38 -1.5t-32 -1.5h-16v8h1q33 0 42 8.5t9 40.5v567q0 32 -9 40.5t-42 8.5h-1v8h16q10 0 32 -1.5t38 -1.5t38 1.5t32 1.5h16v-8h-1q-33 0 -42 -8.5t-9 -40.5zM75 731l-6 4q19 35 42 88.5t37 74.5
q10 15 26 15q12 0 20.5 -8.5t8.5 -19.5t-6 -20q-11 -16 -53.5 -55.5t-68.5 -78.5z" />
    <glyph glyph-name="Icircumflex" unicode="&#xce;" horiz-adv-x="260" 
d="M164 624v-567q0 -32 9 -40.5t42 -8.5h1v-8h-16q-10 0 -32 1.5t-38 1.5t-38 -1.5t-32 -1.5h-16v8h1q33 0 42 8.5t9 40.5v567q0 32 -9 40.5t-42 8.5h-1v8h16q10 0 32 -1.5t38 -1.5t38 1.5t32 1.5h16v-8h-1q-33 0 -42 -8.5t-9 -40.5zM244 735l-6 -4q-16 21 -33 39.5
t-42.5 44l-32.5 32.5l-32.5 -32.5t-42.5 -44t-33 -39.5l-6 4q14 21 27.5 46t28.5 55.5t22 42.5q10 19 17.5 26.5t18.5 7.5t18.5 -7.5t17.5 -26.5q7 -12 22 -42.5t28.5 -55.5t27.5 -46z" />
    <glyph glyph-name="Idieresis" unicode="&#xcf;" horiz-adv-x="260" 
d="M164 624v-567q0 -32 9 -40.5t42 -8.5h1v-8h-16q-10 0 -32 1.5t-38 1.5t-38 -1.5t-32 -1.5h-16v8h1q33 0 42 8.5t9 40.5v567q0 32 -9 40.5t-42 8.5h-1v8h16q10 0 32 -1.5t38 -1.5t38 1.5t32 1.5h16v-8h-1q-33 0 -42 -8.5t-9 -40.5zM81 807q0 -19 -13 -31.5t-32 -12.5
q-18 0 -31 12.5t-13 31.5t13 32t31 13q19 0 32 -13t13 -32zM270 807q0 -18 -13.5 -31t-31.5 -13q-19 0 -31.5 12.5t-12.5 31.5t12.5 32t31.5 13q18 0 31.5 -13t13.5 -32z" />
    <glyph glyph-name="Eth" unicode="&#xd0;" horiz-adv-x="634" 
d="M599 340q0 -160 -85 -250t-220 -90h-75q-15 0 -42 0.5t-47 0.5q-16 0 -38 -0.5t-32 -0.5h-16v8h1q33 0 42 8.5t9 40.5v285h-73v10h73v272q0 32 -9 40.5t-42 8.5h-1v8h16q10 0 32 -0.5t38 -0.5q20 0 47 0.5t42 0.5h75q135 0 220 -90t85 -251zM300 342h-136v-332h114
q139 0 190.5 72.5t51.5 257.5t-51.5 258t-190.5 73h-114v-319h136v-10z" />
    <glyph glyph-name="Ntilde" unicode="&#xd1;" horiz-adv-x="690" 
d="M585 78l53 -78q-11 0 -22.5 0.5t-16.5 0.5q-7 0 -21 -0.5t-23 -0.5l-437 617v-486q0 -56 18.5 -89.5t70.5 -33.5h1v-8h-25q-5 0 -28 1.5t-41 1.5t-41.5 -1.5t-28.5 -1.5h-24v8h1q51 0 69 33t18 90v496q-1 2 -7 10t-7 9.5t-6 7.5t-7.5 7t-7.5 4.5t-9.5 4.5t-11 2t-13.5 1
h-1v8h7q15 0 30 -0.5t23 -0.5q11 0 30 0.5t29 0.5l418 -589v458q0 57 -18 90t-70 33h-1v8h25q5 0 28 -1.5t41 -1.5t41 1.5t29 1.5h24v-8h-1q-52 0 -70 -33t-18 -90v-472zM398 777q-20 0 -55 21.5t-61 21.5q-11 0 -23.5 -11t-18 -18.5t-17.5 -26.5l-6 4q2 3 13 21t17.5 26.5
t18 21.5t24.5 18.5t28 5.5q20 0 55 -21.5t61 -21.5q11 0 23.5 11t18 18.5t17.5 26.5l6 -4q-35 -59 -58 -77q-21 -16 -43 -16z" />
    <glyph glyph-name="Ograve" unicode="&#xd2;" horiz-adv-x="658" 
d="M329 -1q215 0 215 342q0 341 -215 341t-215 -341q0 -342 215 -342zM329 -10q-128 0 -211.5 100t-83.5 251t83.5 250.5t211.5 99.5t211.5 -99.5t83.5 -250.5t-83.5 -251t-211.5 -100zM390 735l-6 -4q-26 38 -68.5 77.5t-53.5 56.5q-6 9 -6 20t8 19.5t21 8.5q15 0 26 -15
q14 -21 37 -74.5t42 -88.5z" />
    <glyph glyph-name="Oacute" unicode="&#xd3;" horiz-adv-x="658" 
d="M329 -1q215 0 215 342q0 341 -215 341t-215 -341q0 -342 215 -342zM329 -10q-128 0 -211.5 100t-83.5 251t83.5 250.5t211.5 99.5t211.5 -99.5t83.5 -250.5t-83.5 -251t-211.5 -100zM274 731l-6 4q19 35 42 88.5t37 74.5q11 15 26 15q13 0 21 -8.5t8 -19.5t-6 -20
q-11 -16 -53.5 -55.5t-68.5 -78.5z" />
    <glyph glyph-name="Ocircumflex" unicode="&#xd4;" horiz-adv-x="658" 
d="M329 -1q215 0 215 342q0 341 -215 341t-215 -341q0 -342 215 -342zM329 -10q-128 0 -211.5 100t-83.5 251t83.5 250.5t211.5 99.5t211.5 -99.5t83.5 -250.5t-83.5 -251t-211.5 -100zM443 735l-6 -4q-16 21 -33 39.5t-42.5 44l-32.5 32.5l-32.5 -32.5t-42.5 -44t-33 -39.5
l-6 4q14 21 27.5 46t28.5 55.5t22 42.5q10 19 17.5 26.5t18.5 7.5t18.5 -7.5t17.5 -26.5q7 -12 22 -42.5t28.5 -55.5t27.5 -46z" />
    <glyph glyph-name="Otilde" unicode="&#xd5;" horiz-adv-x="658" 
d="M329 -1q215 0 215 342q0 341 -215 341t-215 -341q0 -342 215 -342zM329 -10q-128 0 -211.5 100t-83.5 251t83.5 250.5t211.5 99.5t211.5 -99.5t83.5 -250.5t-83.5 -251t-211.5 -100zM369 777q-21 0 -55 21.5t-61 21.5q-11 0 -23.5 -11t-18 -18.5t-17.5 -26.5l-6 4
q2 3 13 21t17.5 26.5t18 21.5t24.5 18.5t28 5.5q21 0 55 -21.5t61 -21.5q11 0 23.5 11t18 18.5t17.5 26.5l6 -4q-35 -59 -58 -77q-21 -16 -43 -16z" />
    <glyph glyph-name="Odieresis" unicode="&#xd6;" horiz-adv-x="658" 
d="M329 -1q215 0 215 342q0 341 -215 341t-215 -341q0 -342 215 -342zM329 -10q-128 0 -211.5 100t-83.5 251t83.5 250.5t211.5 99.5t211.5 -99.5t83.5 -250.5t-83.5 -251t-211.5 -100zM280 807q0 -19 -13 -31.5t-32 -12.5q-18 0 -31 12.5t-13 31.5t13 32t31 13q19 0 32 -13
t13 -32zM469 807q0 -18 -13.5 -31t-31.5 -13q-19 0 -31.5 12.5t-12.5 31.5t12.5 32t31.5 13q18 0 31.5 -13t13.5 -32z" />
    <glyph glyph-name="multiply" unicode="&#xd7;" horiz-adv-x="407" 
d="M372 485l-162 -162l163 -163l-7 -7l-163 163l-163 -163l-7 7l163 163l-162 162l7 7l162 -162l162 162z" />
    <glyph glyph-name="Oslash" unicode="&#xd8;" horiz-adv-x="658" 
d="M329 -10q-99 0 -171 60l-64 -105l-8 5l64 106q-116 102 -116 285q0 151 83.5 250.5t211.5 99.5q99 0 171 -60l63 104l9 -5l-64 -105q116 -103 116 -284q0 -151 -83.5 -251t-211.5 -100zM329 682q-215 0 -215 -341q0 -171 54 -257l316 521q-53 77 -155 77zM329 -1
q215 0 215 342q0 170 -54 255l-317 -521q57 -76 156 -76z" />
    <glyph glyph-name="Ugrave" unicode="&#xd9;" horiz-adv-x="620" 
d="M533 550v-339q0 -100 -57 -159.5t-156 -59.5q-240 0 -240 220v412q0 32 -9 40.5t-42 8.5h-1v8h16q10 0 32 -1.5t38 -1.5t38 1.5t32 1.5h16v-8h-1q-33 0 -42 -8.5t-9 -40.5v-371q0 -132 42.5 -190.5t140.5 -58.5q86 0 139 56.5t53 150.5v339q0 57 -18 90t-70 33h-1v8h25
q5 0 28 -1.5t41 -1.5t41 1.5t29 1.5h24v-8h-1q-52 0 -70 -33t-18 -90zM388 735l-6 -4q-26 38 -68.5 77.5t-53.5 56.5q-6 9 -6 20t8 19.5t21 8.5q15 0 26 -15q14 -21 37 -74.5t42 -88.5z" />
    <glyph glyph-name="Uacute" unicode="&#xda;" horiz-adv-x="620" 
d="M533 550v-339q0 -100 -57 -159.5t-156 -59.5q-240 0 -240 220v412q0 32 -9 40.5t-42 8.5h-1v8h16q10 0 32 -1.5t38 -1.5t38 1.5t32 1.5h16v-8h-1q-33 0 -42 -8.5t-9 -40.5v-371q0 -132 42.5 -190.5t140.5 -58.5q86 0 139 56.5t53 150.5v339q0 57 -18 90t-70 33h-1v8h25
q5 0 28 -1.5t41 -1.5t41 1.5t29 1.5h24v-8h-1q-52 0 -70 -33t-18 -90zM272 731l-6 4q19 35 42 88.5t37 74.5q11 15 26 15q13 0 21 -8.5t8 -19.5t-6 -20q-11 -16 -53.5 -55.5t-68.5 -78.5z" />
    <glyph glyph-name="Ucircumflex" unicode="&#xdb;" horiz-adv-x="620" 
d="M533 550v-339q0 -100 -57 -159.5t-156 -59.5q-240 0 -240 220v412q0 32 -9 40.5t-42 8.5h-1v8h16q10 0 32 -1.5t38 -1.5t38 1.5t32 1.5h16v-8h-1q-33 0 -42 -8.5t-9 -40.5v-371q0 -132 42.5 -190.5t140.5 -58.5q86 0 139 56.5t53 150.5v339q0 57 -18 90t-70 33h-1v8h25
q5 0 28 -1.5t41 -1.5t41 1.5t29 1.5h24v-8h-1q-52 0 -70 -33t-18 -90zM441 735l-6 -4q-16 21 -33 39.5t-42.5 44l-32.5 32.5l-32.5 -32.5t-42.5 -44t-33 -39.5l-6 4q14 21 27.5 46t28.5 55.5t22 42.5q10 19 17.5 26.5t18.5 7.5t18.5 -7.5t17.5 -26.5q7 -12 22 -42.5
t28.5 -55.5t27.5 -46z" />
    <glyph glyph-name="Udieresis" unicode="&#xdc;" horiz-adv-x="620" 
d="M533 550v-339q0 -100 -57 -159.5t-156 -59.5q-240 0 -240 220v412q0 32 -9 40.5t-42 8.5h-1v8h16q10 0 32 -1.5t38 -1.5t38 1.5t32 1.5h16v-8h-1q-33 0 -42 -8.5t-9 -40.5v-371q0 -132 42.5 -190.5t140.5 -58.5q86 0 139 56.5t53 150.5v339q0 57 -18 90t-70 33h-1v8h25
q5 0 28 -1.5t41 -1.5t41 1.5t29 1.5h24v-8h-1q-52 0 -70 -33t-18 -90zM278 807q0 -19 -13 -31.5t-32 -12.5q-18 0 -31 12.5t-13 31.5t13 32t31 13q19 0 32 -13t13 -32zM467 807q0 -18 -13.5 -31t-31.5 -13q-19 0 -31.5 12.5t-12.5 31.5t12.5 32t31.5 13q18 0 31.5 -13
t13.5 -32z" />
    <glyph glyph-name="Yacute" unicode="&#xdd;" horiz-adv-x="593" 
d="M339 327v-270q0 -32 9 -40.5t42 -8.5h1v-8h-16q-11 0 -32 1.5t-38 1.5t-38 -1.5t-32 -1.5h-16v8h1q33 0 42 8.5t9 40.5v253l-202 313q-18 27 -36 38.5t-45 11.5v8h29q6 0 28.5 -1.5t40.5 -1.5t42 1.5t30 1.5h34v-8q-29 0 -40 -5.5t-11 -19.5q0 -13 10 -29l183 -282
l139 227q26 43 26 63q0 46 -64 46h-1v8h13q11 0 39.5 -1.5t41.5 -1.5q6 0 34.5 1.5t36.5 1.5h19v-8h-1q-41 0 -71 -29t-66 -88zM258 731l-6 4q19 35 42 88.5t37 74.5q11 15 26 15q13 0 21 -8.5t8 -19.5t-6 -20q-11 -16 -53.5 -55.5t-68.5 -78.5z" />
    <glyph glyph-name="Thorn" unicode="&#xde;" horiz-adv-x="566" 
d="M216 0h-16q-10 0 -32 1.5t-38 1.5t-38 -1.5t-32 -1.5h-16v8h1q33 0 42 8.5t9 40.5v567q0 32 -9 40.5t-42 8.5h-1v8h16q10 0 32 -1.5t38 -1.5t38 1.5t32 1.5h16v-8h-1q-33 0 -42 -8.5t-9 -40.5v-83h158q98 0 162.5 -48.5t64.5 -134.5q0 -87 -64.5 -136t-162.5 -49h-158
v-116q0 -32 9 -40.5t42 -8.5h1v-8zM164 183h150q92 0 124.5 42t32.5 133q0 90 -32.5 131.5t-124.5 41.5h-150v-348z" />
    <glyph glyph-name="germandbls" unicode="&#xdf;" horiz-adv-x="568" 
d="M546 159q0 -73 -46 -120t-106 -47q-18 0 -54 10t-47 10q-10 0 -16 -5.5t-5 -14.5l-6 -2l-50 172l6 3q90 -165 172 -165q47 0 76.5 34.5t29.5 83.5q0 85 -88 134l-65 36q-65 37 -65 80q0 24 12 42.5t45 51.5q59 60 59 129q0 100 -101 100q-77 0 -109 -45.5t-32 -139.5
v-506q-4 0 -17 0.5t-16 0.5q-17 0 -40 -0.5t-34 -0.5h-14v7h1q35 0 44.5 9t9.5 41v424h-68v9h68q5 97 57 153t150 56q63 0 110 -26.5t47 -76.5q0 -54 -71 -108q-61 -47 -61 -78q0 -18 14.5 -32t51.5 -35l62 -34q96 -53 96 -150z" />
    <glyph glyph-name="agrave" unicode="&#xe0;" horiz-adv-x="500" 
d="M403 -8q-30 0 -45.5 19t-15.5 47q-78 -66 -158 -66q-63 0 -98.5 34t-35.5 93q0 107 163 172l129 52v78q0 39 -10 54t-41 15q-50 0 -88 -26t-78 -75q-14 -17 -29 -17q-10 0 -18 7.5t-8 18.5q0 30 70 65t152 35q63 0 89.5 -23.5t26.5 -67.5v-362q0 -35 24 -35q25 0 46 36
l5 -3q-27 -51 -80 -51zM193 3q34 0 75.5 18.5t73.5 46.5v18v248l-126 -52q-54 -22 -72 -61t-18 -100q0 -118 67 -118zM315 546l-6 -4q-26 38 -68.5 77.5t-53.5 56.5q-6 9 -6 20q0 12 8.5 20t20.5 8q16 0 26 -15q14 -21 37 -74.5t42 -88.5z" />
    <glyph glyph-name="aacute" unicode="&#xe1;" horiz-adv-x="500" 
d="M403 -8q-30 0 -45.5 19t-15.5 47q-78 -66 -158 -66q-63 0 -98.5 34t-35.5 93q0 107 163 172l129 52v78q0 39 -10 54t-41 15q-50 0 -88 -26t-78 -75q-14 -17 -29 -17q-10 0 -18 7.5t-8 18.5q0 30 70 65t152 35q63 0 89.5 -23.5t26.5 -67.5v-362q0 -35 24 -35q25 0 46 36
l5 -3q-27 -51 -80 -51zM193 3q34 0 75.5 18.5t73.5 46.5v18v248l-126 -52q-54 -22 -72 -61t-18 -100q0 -118 67 -118zM199 542l-6 4q19 35 42 88.5t37 74.5q10 15 26 15q12 0 20.5 -8t8.5 -20q0 -11 -6 -20q-11 -16 -53.5 -55.5t-68.5 -78.5z" />
    <glyph glyph-name="acircumflex" unicode="&#xe2;" horiz-adv-x="500" 
d="M403 -8q-30 0 -45.5 19t-15.5 47q-78 -66 -158 -66q-63 0 -98.5 34t-35.5 93q0 107 163 172l129 52v78q0 39 -10 54t-41 15q-50 0 -88 -26t-78 -75q-14 -17 -29 -17q-10 0 -18 7.5t-8 18.5q0 30 70 65t152 35q63 0 89.5 -23.5t26.5 -67.5v-362q0 -35 24 -35q25 0 46 36
l5 -3q-27 -51 -80 -51zM193 3q34 0 75.5 18.5t73.5 46.5v18v248l-126 -52q-54 -22 -72 -61t-18 -100q0 -118 67 -118zM368 546l-6 -4q-16 21 -33 39.5t-42.5 44l-32.5 32.5l-32.5 -32.5t-42.5 -44t-33 -39.5l-6 4q14 21 27.5 46t28.5 55.5t22 42.5q10 19 17.5 26.5t18.5 7.5
t18.5 -7.5t17.5 -26.5q7 -12 22 -42.5t28.5 -55.5t27.5 -46z" />
    <glyph glyph-name="atilde" unicode="&#xe3;" horiz-adv-x="500" 
d="M403 -8q-30 0 -45.5 19t-15.5 47q-78 -66 -158 -66q-63 0 -98.5 34t-35.5 93q0 107 163 172l129 52v78q0 39 -10 54t-41 15q-50 0 -88 -26t-78 -75q-14 -17 -29 -17q-10 0 -18 7.5t-8 18.5q0 30 70 65t152 35q63 0 89.5 -23.5t26.5 -67.5v-362q0 -35 24 -35q25 0 46 36
l5 -3q-27 -51 -80 -51zM193 3q34 0 75.5 18.5t73.5 46.5v18v248l-126 -52q-54 -22 -72 -61t-18 -100q0 -118 67 -118zM294 588q-20 0 -55 21.5t-61 21.5q-11 0 -23.5 -11t-18 -18.5t-17.5 -26.5l-6 4q2 3 13 21t17.5 26.5t18 21.5t24.5 18.5t28 5.5q20 0 55 -21.5t61 -21.5
q11 0 23.5 11t18 18.5t17.5 26.5l6 -4q-35 -59 -58 -77q-21 -16 -43 -16z" />
    <glyph glyph-name="adieresis" unicode="&#xe4;" horiz-adv-x="500" 
d="M403 -8q-30 0 -45.5 19t-15.5 47q-78 -66 -158 -66q-63 0 -98.5 34t-35.5 93q0 107 163 172l129 52v78q0 39 -10 54t-41 15q-50 0 -88 -26t-78 -75q-14 -17 -29 -17q-10 0 -18 7.5t-8 18.5q0 30 70 65t152 35q63 0 89.5 -23.5t26.5 -67.5v-362q0 -35 24 -35q25 0 46 36
l5 -3q-27 -51 -80 -51zM193 3q34 0 75.5 18.5t73.5 46.5v18v248l-126 -52q-54 -22 -72 -61t-18 -100q0 -118 67 -118zM205 628q0 -19 -13 -31.5t-32 -12.5q-18 0 -31 12.5t-13 31.5t13 32t31 13q19 0 32 -13t13 -32zM394 628q0 -18 -13.5 -31t-31.5 -13q-19 0 -31.5 12.5
t-12.5 31.5t12.5 32t31.5 13q18 0 31.5 -13t13.5 -32z" />
    <glyph glyph-name="aring" unicode="&#xe5;" horiz-adv-x="500" 
d="M403 -8q-30 0 -45.5 19t-15.5 47q-78 -66 -158 -66q-63 0 -98.5 34t-35.5 93q0 107 163 172l129 52v78q0 39 -10 54t-41 15q-50 0 -88 -26t-78 -75q-14 -17 -29 -17q-10 0 -18 7.5t-8 18.5q0 30 70 65t152 35q63 0 89.5 -23.5t26.5 -67.5v-362q0 -35 24 -35q25 0 46 36
l5 -3q-27 -51 -80 -51zM193 3q34 0 75.5 18.5t73.5 46.5v18v248l-126 -52q-54 -22 -72 -61t-18 -100q0 -118 67 -118zM338 639q0 -36 -24 -61t-60 -25t-60 25t-24 61t24 61t60 25t60 -25t24 -61zM328 639q0 31 -21 53.5t-53 22.5t-53 -22.5t-21 -53.5t21 -53.5t53 -22.5
t53 22.5t21 53.5z" />
    <glyph glyph-name="ae" unicode="&#xe6;" horiz-adv-x="770" 
d="M544 -8q-102 0 -164 99q-78 -99 -181 -99q-61 0 -105 39t-44 118q0 82 65 129t157 47h70v94q0 40 -9.5 55.5t-41.5 15.5q-51 0 -87 -25.5t-79 -75.5q-14 -17 -29 -17q-10 0 -18 7.5t-8 18.5q0 30 70 65t152 35q55 0 78 -17.5t29 -58.5q58 76 150 76q70 0 125 -49.5
t51 -132.5h-314q-1 -15 -1 -45q0 -109 43.5 -183t115.5 -74q106 0 149 126l6 -2q-47 -146 -180 -146zM204 2q95 0 171 96q-33 64 -33 168v50h-68q-83 0 -115.5 -39.5t-32.5 -125.5q0 -149 78 -149zM545 490q-54 0 -89 -43t-44 -122h245q-4 165 -112 165z" />
    <glyph glyph-name="ccedilla" unicode="&#xe7;" horiz-adv-x="472" 
d="M312 -117q0 -50 -60 -88t-128 -45l-1 7q65 8 105.5 41.5t40.5 69.5q0 41 -51 41q-35 0 -56 -12l-3 3l79 92q-80 6 -138 73t-58 172q0 118 64 189.5t151 71.5q69 0 120 -43t51 -88q0 -12 -7.5 -20t-19.5 -8q-20 0 -27 20q-2 6 -8 35q-19 96 -110 96q-67 0 -102.5 -59
t-35.5 -155q0 -123 46 -192.5t113 -69.5q107 0 149 126l6 -2q-48 -150 -187 -146l-30 -50q14 2 20 2q34 0 55.5 -16t21.5 -45z" />
    <glyph glyph-name="egrave" unicode="&#xe8;" horiz-adv-x="478" 
d="M252 -8q-84 0 -147 67.5t-63 176.5q0 120 64 191t151 71q70 0 125 -49.5t51 -132.5h-314q-1 -15 -1 -45q0 -109 43.5 -183t115.5 -74q106 0 149 126l6 -2q-47 -146 -180 -146zM120 325h245q-4 165 -113 165q-56 0 -89.5 -46t-42.5 -119zM315 546l-6 -4q-26 38 -68.5 77.5
t-53.5 56.5q-6 9 -6 20q0 12 8.5 20t20.5 8q16 0 26 -15q14 -21 37 -74.5t42 -88.5z" />
    <glyph glyph-name="eacute" unicode="&#xe9;" horiz-adv-x="478" 
d="M252 -8q-84 0 -147 67.5t-63 176.5q0 120 64 191t151 71q70 0 125 -49.5t51 -132.5h-314q-1 -15 -1 -45q0 -109 43.5 -183t115.5 -74q106 0 149 126l6 -2q-47 -146 -180 -146zM120 325h245q-4 165 -113 165q-56 0 -89.5 -46t-42.5 -119zM199 542l-6 4q19 35 42 88.5
t37 74.5q10 15 26 15q12 0 20.5 -8t8.5 -20q0 -11 -6 -20q-11 -16 -53.5 -55.5t-68.5 -78.5z" />
    <glyph glyph-name="ecircumflex" unicode="&#xea;" horiz-adv-x="478" 
d="M252 -8q-84 0 -147 67.5t-63 176.5q0 120 64 191t151 71q70 0 125 -49.5t51 -132.5h-314q-1 -15 -1 -45q0 -109 43.5 -183t115.5 -74q106 0 149 126l6 -2q-47 -146 -180 -146zM120 325h245q-4 165 -113 165q-56 0 -89.5 -46t-42.5 -119zM368 546l-6 -4q-16 21 -33 39.5
t-42.5 44l-32.5 32.5l-32.5 -32.5t-42.5 -44t-33 -39.5l-6 4q14 21 27.5 46t28.5 55.5t22 42.5q10 19 17.5 26.5t18.5 7.5t18.5 -7.5t17.5 -26.5q7 -12 22 -42.5t28.5 -55.5t27.5 -46z" />
    <glyph glyph-name="edieresis" unicode="&#xeb;" horiz-adv-x="478" 
d="M252 -8q-84 0 -147 67.5t-63 176.5q0 120 64 191t151 71q70 0 125 -49.5t51 -132.5h-314q-1 -15 -1 -45q0 -109 43.5 -183t115.5 -74q106 0 149 126l6 -2q-47 -146 -180 -146zM120 325h245q-4 165 -113 165q-56 0 -89.5 -46t-42.5 -119zM205 628q0 -19 -13 -31.5
t-32 -12.5q-18 0 -31 12.5t-13 31.5t13 32t31 13q19 0 32 -13t13 -32zM394 628q0 -18 -13.5 -31t-31.5 -13q-19 0 -31.5 12.5t-12.5 31.5t12.5 32t31.5 13q18 0 31.5 -13t13.5 -32z" />
    <glyph glyph-name="igrave" unicode="&#xec;" horiz-adv-x="254" 
d="M219 0h-14q-11 0 -34 1.5t-40 1.5t-40 -1.5t-34 -1.5h-14v7h1q35 0 44.5 9t9.5 41v342q0 32 -9.5 40.5t-44.5 8.5h-1v7h6q33 0 68 13t41 30h6v-441q0 -32 9.5 -41t44.5 -9h1v-7zM192 546l-6 -4q-26 38 -68.5 77.5t-53.5 56.5q-6 9 -6 20q0 12 8 20t21 8q16 0 26 -15
q14 -21 37 -74.5t42 -88.5z" />
    <glyph glyph-name="iacute" unicode="&#xed;" horiz-adv-x="254" 
d="M219 0h-14q-11 0 -34 1.5t-40 1.5t-40 -1.5t-34 -1.5h-14v7h1q35 0 44.5 9t9.5 41v342q0 32 -9.5 40.5t-44.5 8.5h-1v7h6q33 0 68 13t41 30h6v-441q0 -32 9.5 -41t44.5 -9h1v-7zM76 542l-6 4q19 35 42 88.5t37 74.5q11 15 26 15q13 0 21 -8t8 -20q0 -11 -6 -20
q-11 -16 -53.5 -55.5t-68.5 -78.5z" />
    <glyph glyph-name="icircumflex" unicode="&#xee;" horiz-adv-x="254" 
d="M219 0h-14q-11 0 -34 1.5t-40 1.5t-40 -1.5t-34 -1.5h-14v7h1q35 0 44.5 9t9.5 41v342q0 32 -9.5 40.5t-44.5 8.5h-1v7h6q33 0 68 13t41 30h6v-441q0 -32 9.5 -41t44.5 -9h1v-7zM245 546l-6 -4q-16 21 -33 39.5t-42.5 44l-32.5 32.5l-32.5 -32.5t-42.5 -44t-33 -39.5
l-6 4q14 21 27.5 46t28.5 55.5t22 42.5q10 19 17.5 26.5t18.5 7.5t18.5 -7.5t17.5 -26.5q7 -12 22 -42.5t28.5 -55.5t27.5 -46z" />
    <glyph glyph-name="idieresis" unicode="&#xef;" horiz-adv-x="254" 
d="M219 0h-14q-11 0 -34 1.5t-40 1.5t-40 -1.5t-34 -1.5h-14v7h1q35 0 44.5 9t9.5 41v342q0 32 -9.5 40.5t-44.5 8.5h-1v7h6q33 0 68 13t41 30h6v-441q0 -32 9.5 -41t44.5 -9h1v-7zM82 628q0 -19 -13 -31.5t-32 -12.5q-18 0 -31 12.5t-13 31.5t13 32t31 13q19 0 32 -13
t13 -32zM271 628q0 -18 -13.5 -31t-31.5 -13q-19 0 -31.5 12.5t-12.5 31.5t12.5 32t31.5 13q18 0 31.5 -13t13.5 -32z" />
    <glyph glyph-name="eth" unicode="&#xf0;" horiz-adv-x="512" 
d="M255 -8q-88 0 -151 73.5t-63 179.5t63 179.5t151 73.5q65 0 112 -42q-29 91 -95 151l-106 -71l-5 7l104 70q-68 55 -162 73l2 8q100 -20 176 -71l97 65l5 -7l-95 -63q85 -57 133.5 -142t48.5 -182q0 -83 -20 -144.5t-53 -94t-68.5 -48t-73.5 -15.5zM255 0q34 0 57 10.5
t42.5 38.5t29 84t9.5 142q0 95 -21 166q-47 49 -117 49q-69 0 -103.5 -52t-34.5 -193t34.5 -193t103.5 -52z" />
    <glyph glyph-name="ntilde" unicode="&#xf1;" horiz-adv-x="547" 
d="M514 0h-14q-12 0 -34 1.5t-40 1.5t-40 -1.5t-34 -1.5h-14v7h1q35 0 44.5 9t9.5 41v374q0 48 -35 48q-17 0 -85 -24l-109 -42v-356q0 -32 9.5 -41t44.5 -9h1v-7h-14q-11 0 -34 1.5t-40 1.5t-40 -1.5t-34 -1.5h-14v7h1q35 0 44.5 9t9.5 41v342q0 32 -9.5 40.5t-44.5 8.5h-1
v7h6q33 0 68 13t41 30h6v-76l106 41q89 35 127 35q62 0 62 -70v-371q0 -32 9.5 -41t44.5 -9h1v-7zM319 588q-21 0 -55 21.5t-61 21.5q-11 0 -23.5 -11t-18 -18.5t-17.5 -26.5l-6 4q2 3 13 21t17.5 26.5t18 21.5t24.5 18.5t28 5.5q21 0 55 -21.5t61 -21.5q11 0 23.5 11
t18 18.5t17.5 26.5l6 -4q-35 -59 -58 -77q-21 -16 -43 -16z" />
    <glyph glyph-name="ograve" unicode="&#xf2;" horiz-adv-x="512" 
d="M256 -8q-88 0 -151 73.5t-63 179.5t63 179.5t151 73.5t151 -73.5t63 -179.5t-63 -179.5t-151 -73.5zM256 0q69 0 103.5 51.5t34.5 193.5t-34.5 193.5t-103.5 51.5t-103.5 -51.5t-34.5 -193.5t34.5 -193.5t103.5 -51.5zM317 546l-6 -4q-26 38 -68.5 77.5t-53.5 56.5
q-6 9 -6 20q0 12 8.5 20t20.5 8q16 0 26 -15q14 -21 37 -74.5t42 -88.5z" />
    <glyph glyph-name="oacute" unicode="&#xf3;" horiz-adv-x="512" 
d="M256 -8q-88 0 -151 73.5t-63 179.5t63 179.5t151 73.5t151 -73.5t63 -179.5t-63 -179.5t-151 -73.5zM256 0q69 0 103.5 51.5t34.5 193.5t-34.5 193.5t-103.5 51.5t-103.5 -51.5t-34.5 -193.5t34.5 -193.5t103.5 -51.5zM201 542l-6 4q19 35 42 88.5t37 74.5q10 15 26 15
q12 0 20.5 -8t8.5 -20q0 -11 -6 -20q-11 -16 -53.5 -55.5t-68.5 -78.5z" />
    <glyph glyph-name="ocircumflex" unicode="&#xf4;" horiz-adv-x="512" 
d="M256 -8q-88 0 -151 73.5t-63 179.5t63 179.5t151 73.5t151 -73.5t63 -179.5t-63 -179.5t-151 -73.5zM256 0q69 0 103.5 51.5t34.5 193.5t-34.5 193.5t-103.5 51.5t-103.5 -51.5t-34.5 -193.5t34.5 -193.5t103.5 -51.5zM370 546l-6 -4q-16 21 -33 39.5t-42.5 44
l-32.5 32.5l-32.5 -32.5t-42.5 -44t-33 -39.5l-6 4q14 21 27.5 46t28.5 55.5t22 42.5q10 19 17.5 26.5t18.5 7.5t18.5 -7.5t17.5 -26.5q7 -12 22 -42.5t28.5 -55.5t27.5 -46z" />
    <glyph glyph-name="otilde" unicode="&#xf5;" horiz-adv-x="512" 
d="M256 -8q-88 0 -151 73.5t-63 179.5t63 179.5t151 73.5t151 -73.5t63 -179.5t-63 -179.5t-151 -73.5zM256 0q69 0 103.5 51.5t34.5 193.5t-34.5 193.5t-103.5 51.5t-103.5 -51.5t-34.5 -193.5t34.5 -193.5t103.5 -51.5zM296 588q-20 0 -55 21.5t-61 21.5q-11 0 -23.5 -11
t-18 -18.5t-17.5 -26.5l-6 4q2 3 13 21t17.5 26.5t18 21.5t24.5 18.5t28 5.5q20 0 55 -21.5t61 -21.5q11 0 23.5 11t18 18.5t17.5 26.5l6 -4q-35 -59 -58 -77q-21 -16 -43 -16z" />
    <glyph glyph-name="odieresis" unicode="&#xf6;" horiz-adv-x="512" 
d="M256 -8q-88 0 -151 73.5t-63 179.5t63 179.5t151 73.5t151 -73.5t63 -179.5t-63 -179.5t-151 -73.5zM256 0q69 0 103.5 51.5t34.5 193.5t-34.5 193.5t-103.5 51.5t-103.5 -51.5t-34.5 -193.5t34.5 -193.5t103.5 -51.5zM207 628q0 -19 -13 -31.5t-32 -12.5q-18 0 -31 12.5
t-13 31.5t13 32t31 13q19 0 32 -13t13 -32zM396 628q0 -18 -13.5 -31t-31.5 -13q-19 0 -31.5 12.5t-12.5 31.5t12.5 32t31.5 13q18 0 31.5 -13t13.5 -32z" />
    <glyph glyph-name="divide" unicode="&#xf7;" horiz-adv-x="530" 
d="M259 426q-20 0 -34 13.5t-14 34.5t14 35t34 14t34.5 -14t14.5 -35t-14 -34.5t-35 -13.5zM45 317v10h440v-10h-440zM259 122q-20 0 -34 13.5t-14 34.5t14 35t34 14t34.5 -14t14.5 -35t-14 -34.5t-35 -13.5z" />
    <glyph glyph-name="oslash" unicode="&#xf8;" horiz-adv-x="512" 
d="M256 -8q-67 0 -122 44l-53 -86l-7 5l53 87q-85 74 -85 203q0 106 63 179.5t151 73.5q66 0 122 -45l53 88l8 -5l-54 -88q85 -78 85 -203q0 -106 -63 -179.5t-151 -73.5zM256 0q69 0 103.5 51.5t34.5 193.5q0 115 -26 175l-220 -360q32 -60 108 -60zM256 490
q-69 0 -103.5 -51.5t-34.5 -193.5q0 -116 26 -176l219 361q-31 60 -107 60z" />
    <glyph glyph-name="ugrave" unicode="&#xf9;" horiz-adv-x="534" 
d="M499 0h-14q-11 0 -34 1t-40 1q-9 0 -19.5 -1t-13.5 -1v68l-101 -41q-85 -35 -127 -35q-62 0 -62 70v337q0 32 -9.5 40.5t-44.5 8.5h-1v7h6q33 0 68 13t41 30h6v-439q0 -48 35 -48q23 0 85 24l104 42v322q0 32 -9.5 40.5t-44.5 8.5h-1v7h6q33 0 68 13t41 30h6v-441
q0 -32 9.5 -41t44.5 -9h1v-7zM327 546l-6 -4q-26 38 -68.5 77.5t-53.5 56.5q-6 9 -6 20q0 12 8.5 20t20.5 8q16 0 26 -15q14 -21 37 -74.5t42 -88.5z" />
    <glyph glyph-name="uacute" unicode="&#xfa;" horiz-adv-x="534" 
d="M499 0h-14q-11 0 -34 1t-40 1q-9 0 -19.5 -1t-13.5 -1v68l-101 -41q-85 -35 -127 -35q-62 0 -62 70v337q0 32 -9.5 40.5t-44.5 8.5h-1v7h6q33 0 68 13t41 30h6v-439q0 -48 35 -48q23 0 85 24l104 42v322q0 32 -9.5 40.5t-44.5 8.5h-1v7h6q33 0 68 13t41 30h6v-441
q0 -32 9.5 -41t44.5 -9h1v-7zM211 542l-6 4q19 35 42 88.5t37 74.5q10 15 26 15q12 0 20.5 -8t8.5 -20q0 -11 -6 -20q-11 -16 -53.5 -55.5t-68.5 -78.5z" />
    <glyph glyph-name="ucircumflex" unicode="&#xfb;" horiz-adv-x="534" 
d="M499 0h-14q-11 0 -34 1t-40 1q-9 0 -19.5 -1t-13.5 -1v68l-101 -41q-85 -35 -127 -35q-62 0 -62 70v337q0 32 -9.5 40.5t-44.5 8.5h-1v7h6q33 0 68 13t41 30h6v-439q0 -48 35 -48q23 0 85 24l104 42v322q0 32 -9.5 40.5t-44.5 8.5h-1v7h6q33 0 68 13t41 30h6v-441
q0 -32 9.5 -41t44.5 -9h1v-7zM380 546l-6 -4q-16 21 -33 39.5t-42.5 44l-32.5 32.5l-32.5 -32.5t-42.5 -44t-33 -39.5l-6 4q14 21 27.5 46t28.5 55.5t22 42.5q10 19 17.5 26.5t18.5 7.5t18.5 -7.5t17.5 -26.5q7 -12 22 -42.5t28.5 -55.5t27.5 -46z" />
    <glyph glyph-name="udieresis" unicode="&#xfc;" horiz-adv-x="534" 
d="M499 0h-14q-11 0 -34 1t-40 1q-9 0 -19.5 -1t-13.5 -1v68l-101 -41q-85 -35 -127 -35q-62 0 -62 70v337q0 32 -9.5 40.5t-44.5 8.5h-1v7h6q33 0 68 13t41 30h6v-439q0 -48 35 -48q23 0 85 24l104 42v322q0 32 -9.5 40.5t-44.5 8.5h-1v7h6q33 0 68 13t41 30h6v-441
q0 -32 9.5 -41t44.5 -9h1v-7zM217 628q0 -19 -13 -31.5t-32 -12.5q-18 0 -31 12.5t-13 31.5t13 32t31 13q19 0 32 -13t13 -32zM406 628q0 -18 -13.5 -31t-31.5 -13q-19 0 -31.5 12.5t-12.5 31.5t12.5 32t31.5 13q18 0 31.5 -13t13.5 -32z" />
    <glyph glyph-name="yacute" unicode="&#xfd;" horiz-adv-x="465" 
d="M269 75l28 -75q-9 0 -20 0.5t-16 0.5q-3 0 -11.5 -0.5t-14.5 -0.5l-20 -45q-49 -109 -82 -150t-95 -41q-41 0 -41 27q0 12 8 18.5t20 6.5t37 -6.5t35 -6.5q26 0 49 33t61 122l19 42l-164 434q-11 29 -25.5 39t-42.5 10v7h23q6 0 27.5 -1.5t40.5 -1.5t40.5 1.5t26.5 1.5
h24v-7q-50 0 -50 -24q0 -6 3 -15l135 -357l110 309q8 21 8 40q0 47 -66 47v7h10q12 0 35 -1.5t37 -1.5q15 0 38 1.5t31 1.5h17v-7q-41 -2 -63.5 -25t-38.5 -66zM187 542l-6 4q19 35 42 88.5t37 74.5q10 15 26 15q12 0 20.5 -8t8.5 -20q0 -11 -6 -20q-11 -16 -53.5 -55.5
t-68.5 -78.5z" />
    <glyph glyph-name="thorn" unicode="&#xfe;" horiz-adv-x="539" 
d="M156 56v-225q0 -31 14 -40.5t51 -9.5h14v-7h-23q-14 0 -41 1.5t-48 1.5q-17 0 -40 -1.5t-34 -1.5h-14v7h1q35 0 44.5 9t9.5 41v794q0 32 -9.5 40.5t-44.5 8.5h-1v7h6q33 0 68 13t41 30h6v-290q71 64 152 64q74 0 129 -61t55 -192t-55 -192t-129 -61q-75 0 -152 64z
M416 245q0 76 -8 126t-24 75t-33.5 34t-42.5 9q-78 0 -152 -67v-354q79 -67 152 -67q25 0 42.5 9t33.5 34t24 75t8 126z" />
    <glyph glyph-name="ydieresis" unicode="&#xff;" horiz-adv-x="465" 
d="M269 75l28 -75q-9 0 -20 0.5t-16 0.5q-3 0 -11.5 -0.5t-14.5 -0.5l-20 -45q-49 -109 -82 -150t-95 -41q-41 0 -41 27q0 12 8 18.5t20 6.5t37 -6.5t35 -6.5q26 0 49 33t61 122l19 42l-164 434q-11 29 -25.5 39t-42.5 10v7h23q6 0 27.5 -1.5t40.5 -1.5t40.5 1.5t26.5 1.5
h24v-7q-50 0 -50 -24q0 -6 3 -15l135 -357l110 309q8 21 8 40q0 47 -66 47v7h10q12 0 35 -1.5t37 -1.5q15 0 38 1.5t31 1.5h17v-7q-41 -2 -63.5 -25t-38.5 -66zM193 628q0 -19 -13 -31.5t-32 -12.5q-18 0 -31 12.5t-13 31.5t13 32t31 13q19 0 32 -13t13 -32zM382 628
q0 -18 -13.5 -31t-31.5 -13q-19 0 -31.5 12.5t-12.5 31.5t12.5 32t31.5 13q18 0 31.5 -13t13.5 -32z" />
    <glyph glyph-name="Amacron" unicode="&#x100;" horiz-adv-x="638" 
d="M653 0h-21q-6 0 -32 1.5t-41 1.5q-18 0 -45 -1.5t-32 -1.5h-21v8q52 0 52 31q0 11 -7 25l-52 124h-322l-27 -68q-14 -38 -14 -59q0 -53 71 -53v-8h-12q-11 0 -41 1.5t-43 1.5q-7 0 -34.5 -1.5t-35.5 -1.5h-21v8q42 2 69 27.5t51 86.5l187 478l-34 81q9 0 21 -0.5t18 -0.5
t16.5 0.5t18.5 0.5l260 -621q22 -52 71 -52v-8zM288 589l-152 -391h314zM416 797h-240v22h240v-22z" />
    <glyph glyph-name="amacron" unicode="&#x101;" horiz-adv-x="500" 
d="M403 -8q-30 0 -45.5 19t-15.5 47q-78 -66 -158 -66q-63 0 -98.5 34t-35.5 93q0 107 163 172l129 52v78q0 39 -10 54t-41 15q-50 0 -88 -26t-78 -75q-14 -17 -29 -17q-10 0 -18 7.5t-8 18.5q0 30 70 65t152 35q63 0 89.5 -23.5t26.5 -67.5v-362q0 -35 24 -35q25 0 46 36
l5 -3q-27 -51 -80 -51zM193 3q34 0 75.5 18.5t73.5 46.5v18v248l-126 -52q-54 -22 -72 -61t-18 -100q0 -118 67 -118zM373 608h-240v22h240v-22z" />
    <glyph glyph-name="Abreve" unicode="&#x102;" horiz-adv-x="638" 
d="M653 0h-21q-6 0 -32 1.5t-41 1.5q-18 0 -45 -1.5t-32 -1.5h-21v8q52 0 52 31q0 11 -7 25l-52 124h-322l-27 -68q-14 -38 -14 -59q0 -53 71 -53v-8h-12q-11 0 -41 1.5t-43 1.5q-7 0 -34.5 -1.5t-35.5 -1.5h-21v8q42 2 69 27.5t51 86.5l187 478l-34 81q9 0 21 -0.5t18 -0.5
t16.5 0.5t18.5 0.5l260 -621q22 -52 71 -52v-8zM288 589l-152 -391h314zM297 758q-46 0 -79 35t-50 80l6 3q34 -67 123 -67t123 67l6 -3q-17 -45 -50 -80t-79 -35z" />
    <glyph glyph-name="abreve" unicode="&#x103;" horiz-adv-x="500" 
d="M403 -8q-30 0 -45.5 19t-15.5 47q-78 -66 -158 -66q-63 0 -98.5 34t-35.5 93q0 107 163 172l129 52v78q0 39 -10 54t-41 15q-50 0 -88 -26t-78 -75q-14 -17 -29 -17q-10 0 -18 7.5t-8 18.5q0 30 70 65t152 35q63 0 89.5 -23.5t26.5 -67.5v-362q0 -35 24 -35q25 0 46 36
l5 -3q-27 -51 -80 -51zM193 3q34 0 75.5 18.5t73.5 46.5v18v248l-126 -52q-54 -22 -72 -61t-18 -100q0 -118 67 -118zM254 569q-46 0 -79 35t-50 80l6 3q34 -67 123 -67t123 67l6 -3q-17 -45 -50 -80t-79 -35z" />
    <glyph glyph-name="Aogonek" unicode="&#x104;" horiz-adv-x="638" 
d="M481 -178q-39 0 -62 18.5t-23 48.5q0 32 43 63t92 53l-77 183h-322l-27 -68q-14 -38 -14 -59q0 -53 71 -53v-8h-12q-11 0 -41 1.5t-43 1.5q-7 0 -34.5 -1.5t-35.5 -1.5h-21v8q42 2 69 27.5t51 86.5l187 478l-34 81q9 0 21 -0.5t18 -0.5t16.5 0.5t18.5 0.5l260 -621
q22 -52 71 -52v-8h-21q-6 0 -32 1.5t-41 1.5q-8 0 -17 -1q-88 -41 -88 -96q0 -27 17.5 -43.5t44.5 -16.5q41 0 73 40l6 -4q-18 -25 -49 -42.5t-65 -17.5zM450 198l-162 391l-152 -391h314z" />
    <glyph glyph-name="aogonek" unicode="&#x105;" horiz-adv-x="500" 
d="M408 -8h-5q-30 0 -45.5 19t-15.5 47q-78 -66 -158 -66q-63 0 -98.5 34t-35.5 93q0 107 163 172l129 52v78q0 39 -10 54t-41 15q-50 0 -88 -26t-78 -75q-14 -17 -29 -17q-10 0 -18 7.5t-8 18.5q0 30 70 65t152 35q63 0 89.5 -23.5t26.5 -67.5v-362q0 -35 24 -35
q25 0 46 36l5 -3q-18 -34 -53 -48q-78 -36 -78 -89q0 -27 17.5 -43.5t44.5 -16.5q41 0 73 40l6 -4q-18 -25 -49 -42.5t-65 -17.5q-39 0 -62 18.5t-23 48.5q0 47 114 103zM193 3q34 0 75.5 18.5t73.5 46.5v266l-126 -52q-54 -22 -72 -61t-18 -100q0 -118 67 -118z" />
    <glyph glyph-name="Cacute" unicode="&#x106;" horiz-adv-x="612" 
d="M317 -8q-125 0 -204 99.5t-79 251.5q0 86 28.5 155.5t73 110t93 61.5t94.5 21q35 0 78 -9.5t52 -9.5q35 0 33 33l6 2l92 -227l-6 -3q-68 113 -128 159t-127 46q-93 0 -161.5 -75.5t-68.5 -199.5q0 -164 77.5 -265.5t192.5 -101.5q138 0 213 140l7 -3
q-38 -80 -109.5 -132.5t-156.5 -52.5zM267 733l-6 4q19 35 42 88.5t37 74.5q10 15 26 15q12 0 20.5 -8.5t8.5 -19.5t-6 -20q-11 -16 -53.5 -55.5t-68.5 -78.5z" />
    <glyph glyph-name="cacute" unicode="&#x107;" horiz-adv-x="472" 
d="M252 -8q-84 0 -147 68t-63 177q0 118 64 189.5t151 71.5q69 0 120 -43t51 -88q0 -12 -7.5 -20t-19.5 -8q-20 0 -27 20q-2 6 -8 35q-19 96 -110 96q-67 0 -102.5 -59t-35.5 -155q0 -123 46 -192.5t113 -69.5q107 0 149 126l6 -2q-47 -146 -180 -146zM201 542l-6 4
q19 35 42 88.5t37 74.5q10 15 26 15q12 0 20.5 -8t8.5 -20q0 -11 -6 -20q-11 -16 -53.5 -55.5t-68.5 -78.5z" />
    <glyph glyph-name="Ccircumflex" unicode="&#x108;" horiz-adv-x="612" 
d="M317 -8q-125 0 -204 99.5t-79 251.5q0 86 28.5 155.5t73 110t93 61.5t94.5 21q35 0 78 -9.5t52 -9.5q35 0 33 33l6 2l92 -227l-6 -3q-68 113 -128 159t-127 46q-93 0 -161.5 -75.5t-68.5 -199.5q0 -164 77.5 -265.5t192.5 -101.5q138 0 213 140l7 -3
q-38 -80 -109.5 -132.5t-156.5 -52.5zM436 737l-6 -4q-16 21 -33 39.5t-42.5 44l-32.5 32.5l-32.5 -32.5t-42.5 -44t-33 -39.5l-6 4q14 21 27.5 46t28.5 55.5t22 42.5q10 19 17.5 26.5t18.5 7.5t18.5 -7.5t17.5 -26.5q7 -12 22 -42.5t28.5 -55.5t27.5 -46z" />
    <glyph glyph-name="ccircumflex" unicode="&#x109;" horiz-adv-x="472" 
d="M252 -8q-84 0 -147 68t-63 177q0 118 64 189.5t151 71.5q69 0 120 -43t51 -88q0 -12 -7.5 -20t-19.5 -8q-20 0 -27 20q-2 6 -8 35q-19 96 -110 96q-67 0 -102.5 -59t-35.5 -155q0 -123 46 -192.5t113 -69.5q107 0 149 126l6 -2q-47 -146 -180 -146zM370 546l-6 -4
q-16 21 -33 39.5t-42.5 44l-32.5 32.5l-32.5 -32.5t-42.5 -44t-33 -39.5l-6 4q14 21 27.5 46t28.5 55.5t22 42.5q10 19 17.5 26.5t18.5 7.5t18.5 -7.5t17.5 -26.5q7 -12 22 -42.5t28.5 -55.5t27.5 -46z" />
    <glyph glyph-name="Cdotaccent" unicode="&#x10a;" horiz-adv-x="612" 
d="M317 -8q-125 0 -204 99.5t-79 251.5q0 86 28.5 155.5t73 110t93 61.5t94.5 21q35 0 78 -9.5t52 -9.5q35 0 33 33l6 2l92 -227l-6 -3q-68 113 -128 159t-127 46q-93 0 -161.5 -75.5t-68.5 -199.5q0 -164 77.5 -265.5t192.5 -101.5q138 0 213 140l7 -3
q-38 -80 -109.5 -132.5t-156.5 -52.5zM322 757q-20 0 -34 13.5t-14 34.5t14 35t34 14t34.5 -14t14.5 -35t-14 -34.5t-35 -13.5z" />
    <glyph glyph-name="cdotaccent" unicode="&#x10b;" horiz-adv-x="472" 
d="M252 -8q-84 0 -147 68t-63 177q0 118 64 189.5t151 71.5q69 0 120 -43t51 -88q0 -12 -7.5 -20t-19.5 -8q-20 0 -27 20q-2 6 -8 35q-19 96 -110 96q-67 0 -102.5 -59t-35.5 -155q0 -123 46 -192.5t113 -69.5q107 0 149 126l6 -2q-47 -146 -180 -146zM256 576
q-20 0 -34 13.5t-14 34.5t14 35t34 14t34.5 -14t14.5 -35t-14 -34.5t-35 -13.5z" />
    <glyph glyph-name="Ccaron" unicode="&#x10c;" horiz-adv-x="612" 
d="M317 -8q-125 0 -204 99.5t-79 251.5q0 86 28.5 155.5t73 110t93 61.5t94.5 21q35 0 78 -9.5t52 -9.5q35 0 33 33l6 2l92 -227l-6 -3q-68 113 -128 159t-127 46q-93 0 -161.5 -75.5t-68.5 -199.5q0 -164 77.5 -265.5t192.5 -101.5q138 0 213 140l7 -3
q-38 -80 -109.5 -132.5t-156.5 -52.5zM322 734q-11 0 -18.5 7.5t-17.5 26.5q-7 12 -22 42.5t-28.5 55.5t-27.5 46l6 4q16 -21 33 -39.5t42.5 -44l32.5 -32.5l32.5 32.5t42.5 44t33 39.5l6 -4q-14 -21 -27.5 -46t-28.5 -55.5t-22 -42.5q-10 -19 -17.5 -26.5t-18.5 -7.5z" />
    <glyph glyph-name="ccaron" unicode="&#x10d;" horiz-adv-x="472" 
d="M252 -8q-84 0 -147 68t-63 177q0 118 64 189.5t151 71.5q69 0 120 -43t51 -88q0 -12 -7.5 -20t-19.5 -8q-20 0 -27 20q-2 6 -8 35q-19 96 -110 96q-67 0 -102.5 -59t-35.5 -155q0 -123 46 -192.5t113 -69.5q107 0 149 126l6 -2q-47 -146 -180 -146zM256 543
q-11 0 -18.5 7.5t-17.5 26.5q-7 12 -22 42.5t-28.5 55.5t-27.5 46l6 4q16 -21 33 -39.5t42.5 -44l32.5 -32.5l32.5 32.5t42.5 44t33 39.5l6 -4q-14 -21 -27.5 -46t-28.5 -55.5t-22 -42.5q-10 -19 -17.5 -26.5t-18.5 -7.5z" />
    <glyph glyph-name="Dcaron" unicode="&#x10e;" horiz-adv-x="634" 
d="M520 340q0 185 -51.5 258t-190.5 73h-114v-661h114q139 0 190.5 72.5t51.5 257.5zM599 340q0 -160 -85 -250t-220 -90h-75q-15 0 -42 0.5t-47 0.5q-16 0 -38 -0.5t-32 -0.5h-16v8h1q33 0 42 8.5t9 40.5v567q0 32 -9 40.5t-42 8.5h-1v8h16q10 0 32 -0.5t38 -0.5
q20 0 47 0.5t42 0.5h75q135 0 220 -90t85 -251zM308 734q-11 0 -18.5 7.5t-17.5 26.5q-7 12 -22 42.5t-28.5 55.5t-27.5 46l6 4q16 -21 33 -39.5t42.5 -44l32.5 -32.5l32.5 32.5t42.5 44t33 39.5l6 -4q-14 -21 -27.5 -46t-28.5 -55.5t-22 -42.5q-10 -19 -17.5 -26.5
t-18.5 -7.5z" />
    <glyph glyph-name="dcaron" unicode="&#x10f;" horiz-adv-x="551" 
d="M231 -8q-74 0 -129 61t-55 192t55 192t129 61q81 0 152 -64v191q0 32 -9.5 40.5t-44.5 8.5h-1v7h6q33 0 68 13t41 30h6v-667q0 -32 9.5 -41t44.5 -9h1v-7h-14q-12 0 -34.5 1t-39.5 1q-9 0 -19.5 -1t-13.5 -1v56q-77 -64 -152 -64zM231 1q73 0 152 67v354q-74 67 -152 67
q-25 0 -42.5 -9t-33.5 -34t-24 -75t-8 -126t8 -126t24 -75t33.5 -34t42.5 -9zM549 490l-7 2q8 45 12.5 114t10.5 92q8 26 31 26q12 0 21 -7.5t9 -19.5q0 -11 -3 -18q-5 -16 -32.5 -78.5t-41.5 -110.5z" />
    <glyph glyph-name="Dcroat" unicode="&#x110;" horiz-adv-x="634" 
d="M599 340q0 -160 -85 -250t-220 -90h-75q-15 0 -42 0.5t-47 0.5q-16 0 -38 -0.5t-32 -0.5h-16v8h1q33 0 42 8.5t9 40.5v285h-73v10h73v272q0 32 -9 40.5t-42 8.5h-1v8h16q10 0 32 -0.5t38 -0.5q20 0 47 0.5t42 0.5h75q135 0 220 -90t85 -251zM300 342h-136v-332h114
q139 0 190.5 72.5t51.5 257.5t-51.5 258t-190.5 73h-114v-319h136v-10z" />
    <glyph glyph-name="dcroat" unicode="&#x111;" horiz-adv-x="539" 
d="M231 -8q-74 0 -129 61t-55 192t55 192t129 61q81 0 152 -64v132h-107v8h107v51q0 32 -9.5 40.5t-44.5 8.5h-1v7h6q33 0 68 13t41 30h6v-150h65v-8h-65v-509q0 -32 9.5 -41t44.5 -9h1v-7h-14q-12 0 -34.5 1t-39.5 1q-9 0 -19.5 -1t-13.5 -1v56q-77 -64 -152 -64zM231 1
q73 0 152 67v354q-74 67 -152 67q-25 0 -42.5 -9t-33.5 -34t-24 -75t-8 -126t8 -126t24 -75t33.5 -34t42.5 -9z" />
    <glyph glyph-name="Emacron" unicode="&#x112;" horiz-adv-x="615" 
d="M493 -31l-6 2q2 14 -5 21.5t-26 7.5h-237q-15 0 -42 0.5t-47 0.5q-16 0 -38 -0.5t-32 -0.5h-16v8h1q33 0 42 8.5t9 40.5v567q0 32 -9 40.5t-42 8.5h-1v8h16q10 0 32 -0.5t38 -0.5q20 0 47 0.5t42 0.5h224q20 0 27.5 7.5t5.5 22.5l6 2l92 -226l-6 -3q-77 108 -113 148
q-36 39 -96 39h-195v-320h128q55 0 73 31t25 101h7v-277h-7q-4 35 -8 55t-14 41t-28.5 30t-47.5 9h-128v-331h206q33 0 54.5 8.5t46.5 36.5q50 57 111 160l6 -3zM414 797h-240v22h240v-22z" />
    <glyph glyph-name="emacron" unicode="&#x113;" horiz-adv-x="478" 
d="M252 -8q-84 0 -147 67.5t-63 176.5q0 120 64 191t151 71q70 0 125 -49.5t51 -132.5h-314q-1 -15 -1 -45q0 -109 43.5 -183t115.5 -74q106 0 149 126l6 -2q-47 -146 -180 -146zM120 325h245q-4 165 -113 165q-56 0 -89.5 -46t-42.5 -119zM373 608h-240v22h240v-22z" />
    <glyph glyph-name="Ebreve" unicode="&#x114;" horiz-adv-x="615" 
d="M493 -31l-6 2q2 14 -5 21.5t-26 7.5h-237q-15 0 -42 0.5t-47 0.5q-16 0 -38 -0.5t-32 -0.5h-16v8h1q33 0 42 8.5t9 40.5v567q0 32 -9 40.5t-42 8.5h-1v8h16q10 0 32 -0.5t38 -0.5q20 0 47 0.5t42 0.5h224q20 0 27.5 7.5t5.5 22.5l6 2l92 -226l-6 -3q-77 108 -113 148
q-36 39 -96 39h-195v-320h128q55 0 73 31t25 101h7v-277h-7q-4 35 -8 55t-14 41t-28.5 30t-47.5 9h-128v-331h206q33 0 54.5 8.5t46.5 36.5q50 57 111 160l6 -3zM295 758q-46 0 -79 35t-50 80l6 3q34 -67 123 -67t123 67l6 -3q-17 -45 -50 -80t-79 -35z" />
    <glyph glyph-name="ebreve" unicode="&#x115;" horiz-adv-x="478" 
d="M252 -8q-84 0 -147 67.5t-63 176.5q0 120 64 191t151 71q70 0 125 -49.5t51 -132.5h-314q-1 -15 -1 -45q0 -109 43.5 -183t115.5 -74q106 0 149 126l6 -2q-47 -146 -180 -146zM120 325h245q-4 165 -113 165q-56 0 -89.5 -46t-42.5 -119zM254 569q-46 0 -79 35t-50 80l6 3
q34 -67 123 -67t123 67l6 -3q-17 -45 -50 -80t-79 -35z" />
    <glyph glyph-name="Edotaccent" unicode="&#x116;" horiz-adv-x="615" 
d="M493 -31l-6 2q2 14 -5 21.5t-26 7.5h-237q-15 0 -42 0.5t-47 0.5q-16 0 -38 -0.5t-32 -0.5h-16v8h1q33 0 42 8.5t9 40.5v567q0 32 -9 40.5t-42 8.5h-1v8h16q10 0 32 -0.5t38 -0.5q20 0 47 0.5t42 0.5h224q20 0 27.5 7.5t5.5 22.5l6 2l92 -226l-6 -3q-77 108 -113 148
q-36 39 -96 39h-195v-320h128q55 0 73 31t25 101h7v-277h-7q-4 35 -8 55t-14 41t-28.5 30t-47.5 9h-128v-331h206q33 0 54.5 8.5t46.5 36.5q50 57 111 160l6 -3zM295 755q-20 0 -34 13.5t-14 34.5t14 35t34 14t34.5 -14t14.5 -35t-14 -34.5t-35 -13.5z" />
    <glyph glyph-name="edotaccent" unicode="&#x117;" horiz-adv-x="478" 
d="M252 -8q-84 0 -147 67.5t-63 176.5q0 120 64 191t151 71q70 0 125 -49.5t51 -132.5h-314q-1 -15 -1 -45q0 -109 43.5 -183t115.5 -74q106 0 149 126l6 -2q-47 -146 -180 -146zM120 325h245q-4 165 -113 165q-56 0 -89.5 -46t-42.5 -119zM254 576q-20 0 -34 13.5t-14 34.5
t14 35t34 14t34.5 -14t14.5 -35t-14 -34.5t-35 -13.5z" />
    <glyph glyph-name="Eogonek" unicode="&#x118;" horiz-adv-x="615" 
d="M493 -31l-6 2q2 14 -5 21.5t-26 7.5h-35q-85 -39 -85 -94q0 -27 17.5 -43.5t44.5 -16.5q41 0 73 40l6 -4q-18 -25 -49 -42.5t-65 -17.5q-39 0 -62 18.5t-23 48.5q0 56 129 111h-188q-15 0 -42 0.5t-47 0.5q-16 0 -38 -0.5t-32 -0.5h-16v8h1q33 0 42 8.5t9 40.5v567
q0 32 -9 40.5t-42 8.5h-1v8h16q10 0 32 -0.5t38 -0.5q20 0 47 0.5t42 0.5h224q20 0 27.5 7.5t5.5 22.5l6 2l92 -226l-6 -3q-77 108 -113 148q-36 39 -96 39h-195v-320h128q55 0 73 31t25 101h7v-277h-7q-4 35 -8 55t-14 41t-28.5 30t-47.5 9h-128v-331h206q33 0 54.5 8.5
t46.5 36.5q50 57 111 160l6 -3z" />
    <glyph glyph-name="eogonek" unicode="&#x119;" horiz-adv-x="478" 
d="M252 -8q-84 0 -147 67.5t-63 176.5q0 120 64 191t151 71q70 0 125 -49.5t51 -132.5h-314q-1 -15 -1 -45q0 -109 43.5 -183t115.5 -74q106 0 149 126l6 -2q-33 -103 -116 -139q-84 -36 -84 -93q0 -27 17.5 -43.5t44.5 -16.5q41 0 73 40l6 -4q-18 -25 -49 -42.5t-65 -17.5
q-39 0 -62 18.5t-23 48.5q0 51 120 107q-15 -4 -42 -4zM120 325h245q-4 165 -113 165q-56 0 -89.5 -46t-42.5 -119z" />
    <glyph glyph-name="Ecaron" unicode="&#x11a;" horiz-adv-x="615" 
d="M493 -31l-6 2q2 14 -5 21.5t-26 7.5h-237q-15 0 -42 0.5t-47 0.5q-16 0 -38 -0.5t-32 -0.5h-16v8h1q33 0 42 8.5t9 40.5v567q0 32 -9 40.5t-42 8.5h-1v8h16q10 0 32 -0.5t38 -0.5q20 0 47 0.5t42 0.5h224q20 0 27.5 7.5t5.5 22.5l6 2l92 -226l-6 -3q-77 108 -113 148
q-36 39 -96 39h-195v-320h128q55 0 73 31t25 101h7v-277h-7q-4 35 -8 55t-14 41t-28.5 30t-47.5 9h-128v-331h206q33 0 54.5 8.5t46.5 36.5q50 57 111 160l6 -3zM295 732q-11 0 -18.5 7.5t-17.5 26.5q-7 12 -22 42.5t-28.5 55.5t-27.5 46l6 4q16 -21 33 -39.5t42.5 -44
l32.5 -32.5l32.5 32.5t42.5 44t33 39.5l6 -4q-14 -21 -27.5 -46t-28.5 -55.5t-22 -42.5q-10 -19 -17.5 -26.5t-18.5 -7.5z" />
    <glyph glyph-name="ecaron" unicode="&#x11b;" horiz-adv-x="478" 
d="M252 -8q-84 0 -147 67.5t-63 176.5q0 120 64 191t151 71q70 0 125 -49.5t51 -132.5h-314q-1 -15 -1 -45q0 -109 43.5 -183t115.5 -74q106 0 149 126l6 -2q-47 -146 -180 -146zM120 325h245q-4 165 -113 165q-56 0 -89.5 -46t-42.5 -119zM254 543q-11 0 -18.5 7.5
t-17.5 26.5q-7 12 -22 42.5t-28.5 55.5t-27.5 46l6 4q16 -21 33 -39.5t42.5 -44l32.5 -32.5l32.5 32.5t42.5 44t33 39.5l6 -4q-14 -21 -27.5 -46t-28.5 -55.5t-22 -42.5q-10 -19 -17.5 -26.5t-18.5 -7.5z" />
    <glyph glyph-name="Gcircumflex" unicode="&#x11c;" horiz-adv-x="648" 
d="M572 244v-254h-6q-1 8 -3.5 15t-7 13.5t-8.5 11.5t-10.5 11t-9.5 9t-10 8.5t-8 6.5q-73 -73 -182 -73q-126 0 -209.5 100t-83.5 239q0 90 26.5 161.5t69.5 113.5t93 63.5t101 21.5q46 0 88 -9.5t49 -9.5q16 0 25.5 7.5t8.5 25.5l6 2l92 -227l-6 -3q-71 114 -130.5 159.5
t-132.5 45.5q-94 0 -153 -82.5t-59 -254.5q0 -167 60 -254t172 -87q48 0 91 22t69 48v170q0 32 -9 40.5t-42 8.5h-1v8h16q10 0 32 -1.5t38 -1.5t38 1.5t32 1.5h16v-8h-1q-33 0 -42 -8.5t-9 -40.5zM450 737l-6 -4q-16 21 -33 39.5t-42.5 44l-32.5 32.5l-32.5 -32.5t-42.5 -44
t-33 -39.5l-6 4q14 21 27.5 46t28.5 55.5t22 42.5q10 19 17.5 26.5t18.5 7.5t18.5 -7.5t17.5 -26.5q7 -12 22 -42.5t28.5 -55.5t27.5 -46z" />
    <glyph glyph-name="gcircumflex" unicode="&#x11d;" horiz-adv-x="518" 
d="M245 -234q-106 0 -168 33t-62 76q0 76 154 111q-61 9 -91 26.5t-30 49.5q0 18 10 32.5t29 26.5t35.5 19t41.5 16q-47 21 -75.5 62.5t-28.5 99.5q0 78 53 129t132 51q69 0 117 -37q51 69 106 69q38 0 38 -27q0 -12 -7.5 -19t-18.5 -7q-12 0 -29 7.5t-32 7.5q-23 0 -51 -36
q62 -51 62 -138q0 -78 -53 -128.5t-132 -50.5q-38 0 -71 12q-42 -14 -62 -27.5t-20 -34.5q0 -36 102 -47l123 -13q171 -19 171 -125q0 -66 -72.5 -102t-170.5 -36zM245 147q115 0 115 171q0 172 -115 172t-115 -172q0 -171 115 -171zM245 -226q89 0 143 29t54 80
q0 71 -138 87l-117 13q-62 -17 -88.5 -42t-26.5 -62q0 -44 46 -74.5t127 -30.5zM369 546l-6 -4q-16 21 -33 39.5t-42.5 44l-32.5 32.5l-32.5 -32.5t-42.5 -44t-33 -39.5l-6 4q14 21 27.5 46t28.5 55.5t22 42.5q10 19 17.5 26.5t18.5 7.5t18.5 -7.5t17.5 -26.5
q7 -12 22 -42.5t28.5 -55.5t27.5 -46z" />
    <glyph glyph-name="Gbreve" unicode="&#x11e;" horiz-adv-x="648" 
d="M572 244v-254h-6q-1 8 -3.5 15t-7 13.5t-8.5 11.5t-10.5 11t-9.5 9t-10 8.5t-8 6.5q-73 -73 -182 -73q-126 0 -209.5 100t-83.5 239q0 90 26.5 161.5t69.5 113.5t93 63.5t101 21.5q46 0 88 -9.5t49 -9.5q16 0 25.5 7.5t8.5 25.5l6 2l92 -227l-6 -3q-71 114 -130.5 159.5
t-132.5 45.5q-94 0 -153 -82.5t-59 -254.5q0 -167 60 -254t172 -87q48 0 91 22t69 48v170q0 32 -9 40.5t-42 8.5h-1v8h16q10 0 32 -1.5t38 -1.5t38 1.5t32 1.5h16v-8h-1q-33 0 -42 -8.5t-9 -40.5zM336 760q-46 0 -79 35t-50 80l6 3q34 -67 123 -67t123 67l6 -3
q-17 -45 -50 -80t-79 -35z" />
    <glyph glyph-name="gbreve" unicode="&#x11f;" horiz-adv-x="518" 
d="M245 -234q-106 0 -168 33t-62 76q0 76 154 111q-61 9 -91 26.5t-30 49.5q0 18 10 32.5t29 26.5t35.5 19t41.5 16q-47 21 -75.5 62.5t-28.5 99.5q0 78 53 129t132 51q69 0 117 -37q51 69 106 69q38 0 38 -27q0 -12 -7.5 -19t-18.5 -7q-12 0 -29 7.5t-32 7.5q-23 0 -51 -36
q62 -51 62 -138q0 -78 -53 -128.5t-132 -50.5q-38 0 -71 12q-42 -14 -62 -27.5t-20 -34.5q0 -36 102 -47l123 -13q171 -19 171 -125q0 -66 -72.5 -102t-170.5 -36zM245 147q115 0 115 171q0 172 -115 172t-115 -172q0 -171 115 -171zM245 -226q89 0 143 29t54 80
q0 71 -138 87l-117 13q-62 -17 -88.5 -42t-26.5 -62q0 -44 46 -74.5t127 -30.5zM255 569q-46 0 -79 35t-50 80l6 3q34 -67 123 -67t123 67l6 -3q-17 -45 -50 -80t-79 -35z" />
    <glyph glyph-name="Gdotaccent" unicode="&#x120;" horiz-adv-x="648" 
d="M572 244v-254h-6q-1 8 -3.5 15t-7 13.5t-8.5 11.5t-10.5 11t-9.5 9t-10 8.5t-8 6.5q-73 -73 -182 -73q-126 0 -209.5 100t-83.5 239q0 90 26.5 161.5t69.5 113.5t93 63.5t101 21.5q46 0 88 -9.5t49 -9.5q16 0 25.5 7.5t8.5 25.5l6 2l92 -227l-6 -3q-71 114 -130.5 159.5
t-132.5 45.5q-94 0 -153 -82.5t-59 -254.5q0 -167 60 -254t172 -87q48 0 91 22t69 48v170q0 32 -9 40.5t-42 8.5h-1v8h16q10 0 32 -1.5t38 -1.5t38 1.5t32 1.5h16v-8h-1q-33 0 -42 -8.5t-9 -40.5zM336 757q-20 0 -34 13.5t-14 34.5t14 35t34 14t34.5 -14t14.5 -35t-14 -34.5
t-35 -13.5z" />
    <glyph glyph-name="gdotaccent" unicode="&#x121;" horiz-adv-x="518" 
d="M245 -234q-106 0 -168 33t-62 76q0 76 154 111q-61 9 -91 26.5t-30 49.5q0 18 10 32.5t29 26.5t35.5 19t41.5 16q-47 21 -75.5 62.5t-28.5 99.5q0 78 53 129t132 51q69 0 117 -37q51 69 106 69q38 0 38 -27q0 -12 -7.5 -19t-18.5 -7q-12 0 -29 7.5t-32 7.5q-23 0 -51 -36
q62 -51 62 -138q0 -78 -53 -128.5t-132 -50.5q-38 0 -71 12q-42 -14 -62 -27.5t-20 -34.5q0 -36 102 -47l123 -13q171 -19 171 -125q0 -66 -72.5 -102t-170.5 -36zM245 147q115 0 115 171q0 172 -115 172t-115 -172q0 -171 115 -171zM245 -226q89 0 143 29t54 80
q0 71 -138 87l-117 13q-62 -17 -88.5 -42t-26.5 -62q0 -44 46 -74.5t127 -30.5zM255 576q-20 0 -34 13.5t-14 34.5t14 35t34 14t34.5 -14t14.5 -35t-14 -34.5t-35 -13.5z" />
    <glyph glyph-name="Gcommaaccent" unicode="&#x122;" horiz-adv-x="648" 
d="M572 244v-254h-6q-1 8 -3.5 15t-7 13.5t-8.5 11.5t-10.5 11t-9.5 9t-10 8.5t-8 6.5q-73 -73 -182 -73q-126 0 -209.5 100t-83.5 239q0 90 26.5 161.5t69.5 113.5t93 63.5t101 21.5q46 0 88 -9.5t49 -9.5q16 0 25.5 7.5t8.5 25.5l6 2l92 -227l-6 -3q-71 114 -130.5 159.5
t-132.5 45.5q-94 0 -153 -82.5t-59 -254.5q0 -167 60 -254t172 -87q48 0 91 22t69 48v170q0 32 -9 40.5t-42 8.5h-1v8h16q10 0 32 -1.5t38 -1.5t38 1.5t32 1.5h16v-8h-1q-33 0 -42 -8.5t-9 -40.5zM332 -155q-19 0 -31 12.5t-12 30.5t12.5 31t32.5 13q21 0 35.5 -16.5
t14.5 -40.5q0 -48 -25.5 -78t-56.5 -37l-1 6q28 7 50 32.5t22 62.5q0 4 -1 11q-13 -27 -40 -27z" />
    <glyph glyph-name="gcommaaccent" unicode="&#x123;" horiz-adv-x="518" 
d="M245 -234q-106 0 -168 33t-62 76q0 76 154 111q-61 9 -91 26.5t-30 49.5q0 18 10 32.5t29 26.5t35.5 19t41.5 16q-47 21 -75.5 62.5t-28.5 99.5q0 78 53 129t132 51q69 0 117 -37q51 69 106 69q38 0 38 -27q0 -12 -7.5 -19t-18.5 -7q-12 0 -29 7.5t-32 7.5q-23 0 -51 -36
q62 -51 62 -138q0 -78 -53 -128.5t-132 -50.5q-38 0 -71 12q-42 -14 -62 -27.5t-20 -34.5q0 -36 102 -47l123 -13q171 -19 171 -125q0 -66 -72.5 -102t-170.5 -36zM245 147q115 0 115 171q0 172 -115 172t-115 -172q0 -171 115 -171zM245 -226q89 0 143 29t54 80
q0 71 -138 87l-117 13q-62 -17 -88.5 -42t-26.5 -62q0 -44 46 -74.5t127 -30.5zM260 653q19 0 31 -12.5t12 -30.5t-12.5 -31t-32.5 -13q-21 0 -35.5 16.5t-14.5 40.5q0 48 25.5 78t56.5 37l1 -6q-28 -7 -50 -32.5t-22 -62.5q0 -4 1 -11q13 27 40 27z" />
    <glyph glyph-name="Hcircumflex" unicode="&#x124;" horiz-adv-x="691" 
d="M595 624v-567q0 -32 9 -40.5t42 -8.5h1v-8h-16q-11 0 -32 1.5t-38 1.5t-38 -1.5t-32 -1.5h-16v8h1q33 0 42 8.5t9 40.5v284h-363v-284q0 -32 9 -40.5t42 -8.5h1v-8h-16q-10 0 -32 1.5t-38 1.5t-38 -1.5t-32 -1.5h-16v8h1q33 0 42 8.5t9 40.5v567q0 32 -9 40.5t-42 8.5h-1
v8h16q10 0 32 -1.5t38 -1.5t38 1.5t32 1.5h16v-8h-1q-33 0 -42 -8.5t-9 -40.5v-273h363v273q0 32 -9 40.5t-42 8.5h-1v8h16q11 0 32 -1.5t38 -1.5t38 1.5t32 1.5h16v-8h-1q-33 0 -42 -8.5t-9 -40.5zM460 735l-6 -4q-16 21 -33 39.5t-42.5 44l-32.5 32.5l-32.5 -32.5
t-42.5 -44t-33 -39.5l-6 4q14 21 27.5 46t28.5 55.5t22 42.5q10 19 17.5 26.5t18.5 7.5t18.5 -7.5t17.5 -26.5q7 -12 22 -42.5t28.5 -55.5t27.5 -46z" />
    <glyph glyph-name="hcircumflex" unicode="&#x125;" horiz-adv-x="539" 
d="M451 428v-371q0 -32 9.5 -41t44.5 -9h1v-7h-14q-12 0 -34 1.5t-40 1.5t-40 -1.5t-34 -1.5h-14v7h1q35 0 44.5 9t9.5 41v374q0 48 -35 48q-17 0 -85 -24l-109 -42v-356q0 -32 9.5 -41t44.5 -9h1v-7h-14q-11 0 -34 1.5t-40 1.5t-40 -1.5t-34 -1.5h-14v7h1q35 0 44.5 9
t9.5 41v568q0 32 -9.5 40.5t-44.5 8.5h-1v7h6q33 0 68 13t41 30h6v-302l106 41q89 35 127 35q62 0 62 -70zM230 737l-6 -4q-16 21 -33 39.5t-42.5 44l-32.5 32.5l-32.5 -32.5t-42.5 -44t-33 -39.5l-6 4q14 21 27.5 46t28.5 55.5t22 42.5q10 19 17.5 26.5t18.5 7.5t18.5 -7.5
t17.5 -26.5q7 -12 22 -42.5t28.5 -55.5t27.5 -46z" />
    <glyph glyph-name="Hbar" unicode="&#x126;" horiz-adv-x="697" 
d="M651 0h-16q-11 0 -32 1.5t-38 1.5t-38.5 -1.5t-31.5 -1.5h-16v8h1q33 0 42 8.5t9 40.5v252h-363v-252q0 -32 9 -40.5t42 -8.5h1v-8h-16q-10 0 -32 1.5t-38 1.5t-38 -1.5t-32 -1.5h-16v8h1q33 0 42 8.5t9 40.5v415h-75v10h75v142q0 32 -9 40.5t-42 8.5h-1v8h16
q10 0 32 -1.5t38 -1.5t38 1.5t32 1.5h16v-8h-1q-33 0 -42 -8.5t-9 -40.5v-142h363v142q0 32 -9 40.5t-42 8.5h-1v8h16q10 0 31.5 -1.5t38.5 -1.5t38 1.5t32 1.5h16v-8h-1q-33 0 -42 -8.5t-9 -40.5v-142h73v-10h-73v-415q0 -32 9 -40.5t42 -8.5h1v-8zM531 319v153h-363v-153
h363z" />
    <glyph glyph-name="hbar" unicode="&#x127;" horiz-adv-x="539" 
d="M451 428v-371q0 -32 9.5 -41t44.5 -9h1v-7h-14q-12 0 -34 1.5t-40 1.5t-40 -1.5t-34 -1.5h-14l1 7q34 0 44 9t10 41v374q0 48 -35 48q-17 0 -85 -24l-109 -42v-356q0 -32 9.5 -41t44.5 -9h1v-7h-14q-11 0 -34 1.5t-40 1.5t-40 -1.5t-34 -1.5h-14v7h1q35 0 44.5 9t9.5 41
v509h-65v8h65v51q0 32 -9.5 40.5t-44.5 8.5h-1v7h6q33 0 68 13t41 30h6v-150h107v-8h-107v-144l106 41q89 35 127 35q62 0 62 -70z" />
    <glyph glyph-name="Itilde" unicode="&#x128;" horiz-adv-x="260" 
d="M164 624v-567q0 -32 9 -40.5t42 -8.5h1v-8h-16q-10 0 -32 1.5t-38 1.5t-38 -1.5t-32 -1.5h-16v8h1q33 0 42 8.5t9 40.5v567q0 32 -9 40.5t-42 8.5h-1v8h16q10 0 32 -1.5t38 -1.5t38 1.5t32 1.5h16v-8h-1q-33 0 -42 -8.5t-9 -40.5zM170 777q-20 0 -54.5 21.5t-61.5 21.5
q-11 0 -23.5 -11t-18 -18.5t-17.5 -26.5l-6 4q35 59 58 77q21 16 43 16q20 0 55 -21.5t61 -21.5q11 0 23.5 11t18 18.5t17.5 26.5l6 -4q-35 -59 -58 -77q-21 -16 -43 -16z" />
    <glyph glyph-name="itilde" unicode="&#x129;" horiz-adv-x="254" 
d="M219 0h-14q-11 0 -34 1.5t-40 1.5t-40 -1.5t-34 -1.5h-14v7h1q35 0 44.5 9t9.5 41v342q0 32 -9.5 40.5t-44.5 8.5h-1v7h6q33 0 68 13t41 30h6v-441q0 -32 9.5 -41t44.5 -9h1v-7zM171 588q-21 0 -55 21.5t-61 21.5q-11 0 -23.5 -11t-18 -18.5t-17.5 -26.5l-6 4
q35 59 58 77q21 16 43 16q21 0 55 -21.5t61 -21.5q11 0 23.5 11t18 18.5t17.5 26.5l6 -4q-35 -59 -58 -77q-21 -16 -43 -16z" />
    <glyph glyph-name="Imacron" unicode="&#x12a;" horiz-adv-x="260" 
d="M164 624v-567q0 -32 9 -40.5t42 -8.5h1v-8h-16q-10 0 -32 1.5t-38 1.5t-38 -1.5t-32 -1.5h-16v8h1q33 0 42 8.5t9 40.5v567q0 32 -9 40.5t-42 8.5h-1v8h16q10 0 32 -1.5t38 -1.5t38 1.5t32 1.5h16v-8h-1q-33 0 -42 -8.5t-9 -40.5zM249 797h-240v22h240v-22z" />
    <glyph glyph-name="imacron" unicode="&#x12b;" horiz-adv-x="254" 
d="M219 0h-14q-11 0 -34 1.5t-40 1.5t-40 -1.5t-34 -1.5h-14v7h1q35 0 44.5 9t9.5 41v342q0 32 -9.5 40.5t-44.5 8.5h-1v7h6q33 0 68 13t41 30h6v-441q0 -32 9.5 -41t44.5 -9h1v-7zM250 608h-240v22h240v-22z" />
    <glyph glyph-name="Ibreve" unicode="&#x12c;" horiz-adv-x="260" 
d="M164 624v-567q0 -32 9 -40.5t42 -8.5h1v-8h-16q-10 0 -32 1.5t-38 1.5t-38 -1.5t-32 -1.5h-16v8h1q33 0 42 8.5t9 40.5v567q0 32 -9 40.5t-42 8.5h-1v8h16q10 0 32 -1.5t38 -1.5t38 1.5t32 1.5h16v-8h-1q-33 0 -42 -8.5t-9 -40.5zM130 758q-46 0 -79 35t-50 80l6 3
q34 -67 123 -67t123 67l6 -3q-17 -45 -50 -80t-79 -35z" />
    <glyph glyph-name="ibreve" unicode="&#x12d;" horiz-adv-x="254" 
d="M219 0h-14q-11 0 -34 1.5t-40 1.5t-40 -1.5t-34 -1.5h-14v7h1q35 0 44.5 9t9.5 41v342q0 32 -9.5 40.5t-44.5 8.5h-1v7h6q33 0 68 13t41 30h6v-441q0 -32 9.5 -41t44.5 -9h1v-7zM131 569q-46 0 -79 35t-50 80l6 3q34 -67 123 -67t123 67l6 -3q-17 -45 -50 -80t-79 -35z
" />
    <glyph glyph-name="Iogonek" unicode="&#x12e;" horiz-adv-x="260" 
d="M164 624v-567q0 -32 9 -40.5t42 -8.5h1v-8h-16q-12 0 -38 2q-33 -15 -59 -40t-26 -56q0 -27 17.5 -43.5t44.5 -16.5q41 0 73 40l6 -4q-18 -25 -49 -42.5t-65 -17.5q-39 0 -62 18.5t-23 48.5q0 32 43.5 64t86.5 50h-19q-16 0 -38 -1.5t-32 -1.5h-16v8h1q33 0 42 8.5
t9 40.5v567q0 32 -9 40.5t-42 8.5h-1v8h16q10 0 32 -1.5t38 -1.5t38 1.5t32 1.5h16v-8h-1q-33 0 -42 -8.5t-9 -40.5z" />
    <glyph glyph-name="iogonek" unicode="&#x12f;" horiz-adv-x="254" 
d="M219 0h-14q-12 0 -42 2q-33 -15 -59 -40t-26 -56q0 -27 17.5 -43.5t44.5 -16.5q41 0 73 40l6 -4q-18 -25 -49 -42.5t-65 -17.5q-39 0 -62 18.5t-23 48.5q0 32 43.5 64t86.5 50h-19q-17 0 -40 -1.5t-34 -1.5h-14v7h1q35 0 44.5 9t9.5 41v342q0 32 -9.5 40.5t-44.5 8.5h-1
v7h6q33 0 68 13t41 30h6v-441q0 -32 9.5 -41t44.5 -9h1v-7zM131 592q-20 0 -34 13.5t-14 34.5t14 35t34 14t34.5 -14t14.5 -35t-14 -34.5t-35 -13.5z" />
    <glyph glyph-name="Idotaccent" unicode="&#x130;" horiz-adv-x="260" 
d="M164 624v-567q0 -32 9 -40.5t42 -8.5h1v-8h-16q-10 0 -32 1.5t-38 1.5t-38 -1.5t-32 -1.5h-16v8h1q33 0 42 8.5t9 40.5v567q0 32 -9 40.5t-42 8.5h-1v8h16q10 0 32 -1.5t38 -1.5t38 1.5t32 1.5h16v-8h-1q-33 0 -42 -8.5t-9 -40.5zM130 755q-20 0 -34 13.5t-14 34.5t14 35
t34 14t34.5 -14t14.5 -35t-14 -34.5t-35 -13.5z" />
    <glyph glyph-name="dotlessi" unicode="&#x131;" horiz-adv-x="254" 
d="M219 0h-14q-11 0 -34 1.5t-40 1.5t-40 -1.5t-34 -1.5h-14v7h1q35 0 44.5 9t9.5 41v342q0 32 -9.5 40.5t-44.5 8.5h-1v7h6q33 0 68 13t41 30h6v-441q0 -32 9.5 -41t44.5 -9h1v-7z" />
    <glyph glyph-name="IJ" unicode="&#x132;" horiz-adv-x="556" 
d="M164 624v-567q0 -32 9 -40.5t42 -8.5h1v-8h-16q-10 0 -32 1.5t-38 1.5t-38 -1.5t-32 -1.5h-16v8h1q33 0 42 8.5t9 40.5v567q0 32 -9 40.5t-42 8.5h-1v8h16q10 0 32 -1.5t38 -1.5t38 1.5t32 1.5h16v-8h-1q-33 0 -42 -8.5t-9 -40.5zM467 624v-428q0 -152 -60 -223t-154 -71
q-35 0 -35 30q0 31 31 31q11 0 44 -11t49 -11q31 0 44 27t13 85v571q0 32 -9 40.5t-42 8.5h-1v8h16q11 0 32 -1.5t38 -1.5q16 0 37.5 1.5t32.5 1.5h16v-8h-1q-33 0 -42 -8.5t-9 -40.5z" />
    <glyph glyph-name="ij" unicode="&#x133;" horiz-adv-x="495" 
d="M219 0h-14q-11 0 -34 1.5t-40 1.5t-40 -1.5t-34 -1.5h-14v7h1q35 0 44.5 9t9.5 41v342q0 32 -9.5 40.5t-44.5 8.5h-1v7h6q33 0 68 13t41 30h6v-441q0 -32 9.5 -41t44.5 -9h1v-7zM131 592q-20 0 -34 13.5t-14 34.5t14 35t34 14t34.5 -14t14.5 -35t-14 -34.5t-35 -13.5z
M230 -236q-13 0 -22 7t-9 19q0 26 29 26q12 0 36.5 -5t33.5 -5q54 0 54 85v508q0 32 -9.5 40.5t-44.5 8.5h-1v7h6q33 0 68 13t41 30h6v-459q0 -106 -46 -184q-56 -91 -142 -91zM385 592q-20 0 -34 13.5t-14 34.5t14 35t34 14t34.5 -14t14.5 -35t-14 -34.5t-35 -13.5z" />
    <glyph glyph-name="Jcircumflex" unicode="&#x134;" horiz-adv-x="296" 
d="M207 624v-428q0 -152 -60 -223t-154 -71q-35 0 -35 30q0 31 31 31q11 0 44 -11t49 -11q31 0 44 27t13 85v571q0 32 -9 40.5t-42 8.5h-1v8h16q11 0 32 -1.5t38 -1.5t38 1.5t32 1.5h16v-8h-1q-33 0 -42 -8.5t-9 -40.5zM288 735l-6 -4q-16 21 -33 39.5t-42.5 44l-32.5 32.5
l-32.5 -32.5t-42.5 -44t-33 -39.5l-6 4q14 21 27.5 46t28.5 55.5t22 42.5q10 19 17.5 26.5t18.5 7.5t18.5 -7.5t17.5 -26.5q7 -12 22 -42.5t28.5 -55.5t27.5 -46z" />
    <glyph glyph-name="jcircumflex" unicode="&#x135;" horiz-adv-x="241" 
d="M164 498v-459q0 -106 -46 -184q-56 -91 -142 -91q-13 0 -22 7t-9 19q0 26 29 26q12 0 36.5 -5t33.5 -5q54 0 54 85v508q0 32 -9.5 40.5t-44.5 8.5h-1v7h6q33 0 68 13t41 30h6zM245 546l-6 -4q-16 21 -33 39.5t-42.5 44l-32.5 32.5l-32.5 -32.5t-42.5 -44t-33 -39.5l-6 4
q14 21 27.5 46t28.5 55.5t22 42.5q10 19 17.5 26.5t18.5 7.5t18.5 -7.5t17.5 -26.5q7 -12 22 -42.5t28.5 -55.5t27.5 -46z" />
    <glyph glyph-name="Kcommaaccent" unicode="&#x136;" horiz-adv-x="652" 
d="M652 0h-39q-5 0 -29 1.5t-41 1.5t-41 -1.5t-30 -1.5h-39v8h11q44 0 44 27q0 13 -12 29l-189 297l-123 -147v-157q0 -32 9 -40.5t42 -8.5h1v-8h-16q-10 0 -32 1.5t-38 1.5t-38 -1.5t-32 -1.5h-16v8h1q33 0 42 8.5t9 40.5v567q0 32 -9 40.5t-42 8.5h-1v8h16q10 0 32 -1.5
t38 -1.5t38 1.5t32 1.5h16v-8h-1q-33 0 -42 -8.5t-9 -40.5v-395l117 140l-34 53q36 -1 79 0l143 170q23 28 23 49q0 17 -13.5 24.5t-47.5 7.5v8h17q11 0 35.5 -1.5t36.5 -1.5q17 0 42 1.5t32 1.5h21v-8q-63 0 -138 -86l-144 -172l227 -356q33 -51 92 -51v-8zM325 -155
q-19 0 -31 12.5t-12 30.5t12.5 31t32.5 13q21 0 35.5 -16.5t14.5 -40.5q0 -48 -25.5 -78t-56.5 -37l-1 6q28 7 50 32.5t22 62.5q0 4 -1 11q-13 -27 -40 -27z" />
    <glyph glyph-name="kcommaaccent" unicode="&#x137;" horiz-adv-x="525" 
d="M370 397l-77 -80l163 -265q18 -28 30 -36.5t38 -8.5h1v-7h-12q-5 0 -28.5 1.5t-43.5 1.5q-19 0 -42 -1.5t-28 -1.5h-24v7h1q43 0 43 18q0 7 -6 17l-139 226l-90 -93v-118q0 -32 9.5 -41t44.5 -9h1v-7h-14q-11 0 -34 1.5t-40 1.5t-40 -1.5t-34 -1.5h-14v7h1q35 0 44.5 9
t9.5 41v568q0 32 -9.5 40.5t-44.5 8.5h-1v7h6q33 0 68 13t41 30h6v-537l85 88l-26 43h68l80 83q30 31 30 51q0 31 -48 31h-1v7h13q11 0 32 -1.5t39 -1.5q19 0 40 1.5t32 1.5h14v-7h-1q-57 0 -143 -86zM268 -155q-19 0 -31 12.5t-12 30.5t12.5 31t32.5 13q21 0 35.5 -16.5
t14.5 -40.5q0 -48 -25.5 -78t-56.5 -37l-1 6q28 7 50 32.5t22 62.5q0 4 -1 11q-13 -27 -40 -27z" />
    <glyph glyph-name="kgreenlandic" unicode="&#x138;" horiz-adv-x="533" 
d="M533 0h-12q-5 0 -28.5 1.5t-43.5 1.5q-19 0 -42 -1.5t-28 -1.5h-24v7h1q43 0 43 18q0 7 -6 17l-139 226l-90 -93v-118q0 -32 9.5 -41t44.5 -9h1v-7h-14q-11 0 -34 1.5t-40 1.5t-40 -1.5t-34 -1.5h-14v7h1q35 0 44.5 9t9.5 41v342q0 32 -9.5 40.5t-44.5 8.5h-1v7h6
q33 0 68 13t41 30h6v-311l85 88l-26 43h68l80 83q30 31 30 51q0 31 -48 31h-1v7h13q11 0 32 -1.5t39 -1.5q19 0 40 1.5t32 1.5h14v-7h-1q-57 0 -143 -86l-77 -80l163 -265q18 -28 30 -36.5t38 -8.5h1v-7z" />
    <glyph glyph-name="Lacute" unicode="&#x139;" horiz-adv-x="561" 
d="M558 225l-100 -256l-6 2q2 15 -4.5 22t-26.5 7h-221q-10 0 -32 0.5t-38 0.5t-38 -0.5t-32 -0.5h-16v8h1q33 0 42 8.5t9 40.5v567q0 32 -9 40.5t-42 8.5h-1v8h16q10 0 32 -1.5t38 -1.5t38 1.5t32 1.5h16v-8h-1q-33 0 -42 -8.5t-9 -40.5v-614h171q33 0 54.5 8.5t46.5 36.5
q43 48 116 173zM82 733l-6 4q19 35 42 88.5t37 74.5q11 15 26 15q13 0 21 -8.5t8 -19.5t-6 -20q-11 -16 -53.5 -55.5t-68.5 -78.5z" />
    <glyph glyph-name="lacute" unicode="&#x13a;" horiz-adv-x="246" 
d="M156 724v-667q0 -32 9.5 -41t44.5 -9h1v-7h-14q-11 0 -34 1.5t-40 1.5t-40 -1.5t-34 -1.5h-14v7h1q35 0 44.5 9t9.5 41v568q0 32 -9.5 40.5t-44.5 8.5h-1v7h6q33 0 68 13t41 30h6zM67 776l-6 4q19 35 42 88.5t37 74.5q10 15 26 15q12 0 20.5 -8t8.5 -20q0 -11 -6 -20
q-11 -16 -53.5 -55.5t-68.5 -78.5z" />
    <glyph glyph-name="Lcommaaccent" unicode="&#x13b;" horiz-adv-x="561" 
d="M558 225l-100 -256l-6 2q2 15 -4.5 22t-26.5 7h-221q-10 0 -32 0.5t-38 0.5t-38 -0.5t-32 -0.5h-16v8h1q33 0 42 8.5t9 40.5v567q0 32 -9 40.5t-42 8.5h-1v8h16q10 0 32 -1.5t38 -1.5t38 1.5t32 1.5h16v-8h-1q-33 0 -42 -8.5t-9 -40.5v-614h171q33 0 54.5 8.5t46.5 36.5
q43 48 116 173zM270 -155q-19 0 -31 12.5t-12 30.5t12.5 31t32.5 13q21 0 35.5 -16.5t14.5 -40.5q0 -48 -25.5 -78t-56.5 -37l-1 6q28 7 50 32.5t22 62.5q0 4 -1 11q-13 -27 -40 -27z" />
    <glyph glyph-name="lcommaaccent" unicode="&#x13c;" horiz-adv-x="246" 
d="M156 724v-667q0 -32 9.5 -41t44.5 -9h1v-7h-14q-11 0 -34 1.5t-40 1.5t-40 -1.5t-34 -1.5h-14v7h1q35 0 44.5 9t9.5 41v568q0 32 -9.5 40.5t-44.5 8.5h-1v7h6q33 0 68 13t41 30h6zM120 -155q-19 0 -31 12.5t-12 30.5t12.5 31t32.5 13q21 0 35.5 -16.5t14.5 -40.5
q0 -48 -25.5 -78t-56.5 -37l-1 6q28 7 50 32.5t22 62.5q0 4 -1 11q-13 -27 -40 -27z" />
    <glyph glyph-name="Lcaron" unicode="&#x13d;" horiz-adv-x="561" 
d="M558 225l-100 -256l-6 2q2 15 -4.5 22t-26.5 7h-221q-10 0 -32 0.5t-38 0.5t-38 -0.5t-32 -0.5h-16v8h1q33 0 42 8.5t9 40.5v567q0 32 -9 40.5t-42 8.5h-1v8h16q10 0 32 -1.5t38 -1.5t38 1.5t32 1.5h16v-8h-1q-33 0 -42 -8.5t-9 -40.5v-614h171q33 0 54.5 8.5t46.5 36.5
q43 48 116 173zM401 456l-7 2q8 45 12.5 114t10.5 92q8 26 31 26q12 0 21 -7.5t9 -19.5q0 -11 -3 -18q-5 -16 -32.5 -78.5t-41.5 -110.5z" />
    <glyph glyph-name="lcaron" unicode="&#x13e;" horiz-adv-x="258" 
d="M156 724v-667q0 -32 9.5 -41t44.5 -9h1v-7h-14q-11 0 -34 1.5t-40 1.5t-40 -1.5t-34 -1.5h-14v7h1q35 0 44.5 9t9.5 41v568q0 32 -9.5 40.5t-44.5 8.5h-1v7h6q33 0 68 13t41 30h6zM256 490l-7 2q8 45 12.5 114t10.5 92q8 26 31 26q12 0 21 -7.5t9 -19.5q0 -11 -3 -18
q-5 -16 -32.5 -78.5t-41.5 -110.5z" />
    <glyph glyph-name="Ldot" unicode="&#x13f;" horiz-adv-x="561" 
d="M558 225l-100 -256l-6 2q2 15 -4.5 22t-26.5 7h-221q-10 0 -32 0.5t-38 0.5t-38 -0.5t-32 -0.5h-16v8h1q33 0 42 8.5t9 40.5v567q0 32 -9 40.5t-42 8.5h-1v8h16q10 0 32 -1.5t38 -1.5t38 1.5t32 1.5h16v-8h-1q-33 0 -42 -8.5t-9 -40.5v-614h171q33 0 54.5 8.5t46.5 36.5
q43 48 116 173zM375 306q-20 0 -34 13.5t-14 34.5t14 35t34 14t34.5 -14t14.5 -35t-14 -34.5t-35 -13.5z" />
    <glyph glyph-name="ldot" unicode="&#x140;" horiz-adv-x="388" 
d="M156 724v-667q0 -32 9.5 -41t44.5 -9h1v-7h-14q-11 0 -34 1.5t-40 1.5t-40 -1.5t-34 -1.5h-14v7h1q35 0 44.5 9t9.5 41v568q0 32 -9.5 40.5t-44.5 8.5h-1v7h6q33 0 68 13t41 30h6zM319 226q-20 0 -34 13.5t-14 34.5t14 35t34 14t34.5 -14t14.5 -35t-14 -34.5t-35 -13.5z
" />
    <glyph glyph-name="Lslash" unicode="&#x141;" horiz-adv-x="566" 
d="M563 225l-100 -256l-6 2q2 15 -4.5 22t-26.5 7h-221q-11 0 -32 0.5t-38 0.5t-38 -0.5t-32 -0.5h-16v8h1q33 0 42 8.5t9 40.5v236l-71 -37l-5 9l76 39v320q0 32 -9 40.5t-42 8.5h-1v8h16q11 0 32 -1.5t38 -1.5t38 1.5t32 1.5h16v-8h-1q-33 0 -42 -8.5t-9 -40.5v-284
l124 65l5 -9l-129 -68v-318h171q33 0 54.5 8.5t46.5 36.5q43 48 116 173z" />
    <glyph glyph-name="lslash" unicode="&#x142;" horiz-adv-x="287" 
d="M262 379l-86 -45v-277q0 -32 9.5 -41t44.5 -9h1v-7h-14q-11 0 -34 1.5t-40 1.5t-40 -1.5t-34 -1.5h-14v7h1q35 0 44.5 9t9.5 41v243l-81 -41l-4 8l85 44v314q0 32 -9.5 40.5t-44.5 8.5h-1v7h6q33 0 68 13t41 30h6v-379l82 42z" />
    <glyph glyph-name="Nacute" unicode="&#x143;" horiz-adv-x="690" 
d="M585 78l53 -78q-11 0 -22.5 0.5t-16.5 0.5q-7 0 -21 -0.5t-23 -0.5l-437 617v-486q0 -56 18.5 -89.5t70.5 -33.5h1v-8h-25q-5 0 -28 1.5t-41 1.5t-41.5 -1.5t-28.5 -1.5h-24v8h1q51 0 69 33t18 90v496q-1 2 -7 10t-7 9.5t-6 7.5t-7.5 7t-7.5 4.5t-9.5 4.5t-11 2t-13.5 1
h-1v8h7q15 0 30 -0.5t23 -0.5q11 0 30 0.5t29 0.5l418 -589v458q0 57 -18 90t-70 33h-1v8h25q5 0 28 -1.5t41 -1.5t41 1.5t29 1.5h24v-8h-1q-52 0 -70 -33t-18 -90v-472zM312 733l-6 4q19 35 42 88.5t37 74.5q11 15 26 15q13 0 21 -8.5t8 -19.5t-6 -20q-11 -16 -53.5 -55.5
t-68.5 -78.5z" />
    <glyph glyph-name="nacute" unicode="&#x144;" horiz-adv-x="547" 
d="M514 0h-14q-12 0 -34 1.5t-40 1.5t-40 -1.5t-34 -1.5h-14v7h1q35 0 44.5 9t9.5 41v374q0 48 -35 48q-17 0 -85 -24l-109 -42v-356q0 -32 9.5 -41t44.5 -9h1v-7h-14q-11 0 -34 1.5t-40 1.5t-40 -1.5t-34 -1.5h-14v7h1q35 0 44.5 9t9.5 41v342q0 32 -9.5 40.5t-44.5 8.5h-1
v7h6q33 0 68 13t41 30h6v-76l106 41q89 35 127 35q62 0 62 -70v-371q0 -32 9.5 -41t44.5 -9h1v-7zM224 542l-6 4q19 35 42 88.5t37 74.5q11 15 26 15q13 0 21 -8t8 -20q0 -11 -6 -20q-11 -16 -53.5 -55.5t-68.5 -78.5z" />
    <glyph glyph-name="Ncommaaccent" unicode="&#x145;" horiz-adv-x="690" 
d="M585 78l53 -78q-11 0 -22.5 0.5t-16.5 0.5q-7 0 -21 -0.5t-23 -0.5l-437 617v-486q0 -56 18.5 -89.5t70.5 -33.5h1v-8h-25q-5 0 -28 1.5t-41 1.5t-41.5 -1.5t-28.5 -1.5h-24v8h1q51 0 69 33t18 90v496q-1 2 -7 10t-7 9.5t-6 7.5t-7.5 7t-7.5 4.5t-9.5 4.5t-11 2t-13.5 1
h-1v8h7q15 0 30 -0.5t23 -0.5q11 0 30 0.5t29 0.5l418 -589v458q0 57 -18 90t-70 33h-1v8h25q5 0 28 -1.5t41 -1.5t41 1.5t29 1.5h24v-8h-1q-52 0 -70 -33t-18 -90v-472zM357 -155q-19 0 -31 12.5t-12 30.5t12.5 31t32.5 13q21 0 35.5 -16.5t14.5 -40.5q0 -48 -25.5 -78
t-56.5 -37l-1 6q28 7 50 32.5t22 62.5q0 4 -1 11q-13 -27 -40 -27z" />
    <glyph glyph-name="ncommaaccent" unicode="&#x146;" horiz-adv-x="547" 
d="M514 0h-14q-12 0 -34 1.5t-40 1.5t-40 -1.5t-34 -1.5h-14v7h1q35 0 44.5 9t9.5 41v374q0 48 -35 48q-17 0 -85 -24l-109 -42v-356q0 -32 9.5 -41t44.5 -9h1v-7h-14q-11 0 -34 1.5t-40 1.5t-40 -1.5t-34 -1.5h-14v7h1q35 0 44.5 9t9.5 41v342q0 32 -9.5 40.5t-44.5 8.5h-1
v7h6q33 0 68 13t41 30h6v-76l106 41q89 35 127 35q62 0 62 -70v-371q0 -32 9.5 -41t44.5 -9h1v-7zM276 -155q-19 0 -31 12.5t-12 30.5t12.5 31t32.5 13q21 0 35.5 -16.5t14.5 -40.5q0 -48 -25.5 -78t-56.5 -37l-1 6q28 7 50 32.5t22 62.5q0 4 -1 11q-13 -27 -40 -27z" />
    <glyph glyph-name="Ncaron" unicode="&#x147;" horiz-adv-x="690" 
d="M585 78l53 -78q-11 0 -22.5 0.5t-16.5 0.5q-7 0 -21 -0.5t-23 -0.5l-437 617v-486q0 -56 18.5 -89.5t70.5 -33.5h1v-8h-25q-5 0 -28 1.5t-41 1.5t-41.5 -1.5t-28.5 -1.5h-24v8h1q51 0 69 33t18 90v496q-1 2 -7 10t-7 9.5t-6 7.5t-7.5 7t-7.5 4.5t-9.5 4.5t-11 2t-13.5 1
h-1v8h7q15 0 30 -0.5t23 -0.5q11 0 30 0.5t29 0.5l418 -589v458q0 57 -18 90t-70 33h-1v8h25q5 0 28 -1.5t41 -1.5t41 1.5t29 1.5h24v-8h-1q-52 0 -70 -33t-18 -90v-472zM367 734q-11 0 -18.5 7.5t-17.5 26.5q-7 12 -22 42.5t-28.5 55.5t-27.5 46l6 4q16 -21 33 -39.5
t42.5 -44l32.5 -32.5l32.5 32.5t42.5 44t33 39.5l6 -4q-14 -21 -27.5 -46t-28.5 -55.5t-22 -42.5q-10 -19 -17.5 -26.5t-18.5 -7.5z" />
    <glyph glyph-name="ncaron" unicode="&#x148;" horiz-adv-x="547" 
d="M514 0h-14q-12 0 -34 1.5t-40 1.5t-40 -1.5t-34 -1.5h-14v7h1q35 0 44.5 9t9.5 41v374q0 48 -35 48q-17 0 -85 -24l-109 -42v-356q0 -32 9.5 -41t44.5 -9h1v-7h-14q-11 0 -34 1.5t-40 1.5t-40 -1.5t-34 -1.5h-14v7h1q35 0 44.5 9t9.5 41v342q0 32 -9.5 40.5t-44.5 8.5h-1
v7h6q33 0 68 13t41 30h6v-76l106 41q89 35 127 35q62 0 62 -70v-371q0 -32 9.5 -41t44.5 -9h1v-7zM279 543q-11 0 -18.5 7.5t-17.5 26.5q-7 12 -22 42.5t-28.5 55.5t-27.5 46l6 4q16 -21 33 -39.5t42.5 -44l32.5 -32.5l32.5 32.5t42.5 44t33 39.5l6 -4q-14 -21 -27.5 -46
t-28.5 -55.5t-22 -42.5q-10 -19 -17.5 -26.5t-18.5 -7.5z" />
    <glyph glyph-name="napostrophe" unicode="&#x149;" horiz-adv-x="631" 
d="M598 0h-14q-12 0 -34 1.5t-40 1.5t-40 -1.5t-34 -1.5h-14v7h1q35 0 44.5 9t9.5 41v374q0 48 -35 48q-17 0 -85 -24l-109 -42v-356q0 -32 9.5 -41t44.5 -9h1v-7h-14q-11 0 -34 1.5t-40 1.5t-40 -1.5t-34 -1.5h-14v7h1q35 0 44.5 9t9.5 41v342q0 32 -9.5 40.5t-44.5 8.5h-1
v7h6q33 0 68 13t41 30h6v-76l106 41q89 35 127 35q62 0 62 -70v-371q0 -32 9.5 -41t44.5 -9h1v-7zM47 596q-20 0 -33 13t-13 33q0 19 14 33t35 14q22 0 37.5 -17.5t15.5 -43.5q0 -52 -27.5 -84.5t-60.5 -39.5l-2 7q30 7 55 36t25 69q0 6 -1 9q-14 -29 -45 -29z" />
    <glyph glyph-name="Eng" unicode="&#x14a;" horiz-adv-x="675" 
d="M374 -236q-35 0 -35 30q0 31 31 31q11 0 44 -10.5t48 -10.5q33 0 68.5 53t44.5 144l-20 -1l-437 617v-486q0 -56 18.5 -89.5t70.5 -33.5h1v-8h-25q-5 0 -28 1.5t-41 1.5t-41.5 -1.5t-28.5 -1.5h-24v8h1q51 0 69 33t18 90v496q-1 2 -7 10t-7 9.5t-6 7.5t-7.5 7t-7.5 4.5
t-9.5 4.5t-11 2t-13.5 1h-1v8h7q15 0 30 -0.5t23 -0.5q11 0 30 0.5t29 0.5l418 -589v458q0 57 -18 90t-70 33h-1v8h25q5 0 28 -1.5t41 -1.5t41 1.5t29 1.5h24v-8h-1q-52 0 -70 -33t-18 -90v-472l53 -78q-9 0 -24 0.5t-29 0.5q-11 -122 -69 -179.5t-142 -57.5z" />
    <glyph glyph-name="eng" unicode="&#x14b;" horiz-adv-x="536" 
d="M459 428v-389q0 -106 -46 -184q-56 -91 -142 -91q-13 0 -22 7t-9 19q0 26 29 26q12 0 36.5 -5t33.5 -5q54 0 54 85v540q0 48 -35 48q-17 0 -85 -24l-109 -42v-356q0 -32 9.5 -41t44.5 -9h1v-7h-14q-11 0 -34 1.5t-40 1.5t-40 -1.5t-34 -1.5h-14v7h1q35 0 44.5 9t9.5 41
v342q0 32 -9.5 40.5t-44.5 8.5h-1v7h6q33 0 68 13t41 30h6v-76l106 41q89 35 127 35q62 0 62 -70z" />
    <glyph glyph-name="Omacron" unicode="&#x14c;" horiz-adv-x="658" 
d="M329 -1q215 0 215 342q0 341 -215 341t-215 -341q0 -342 215 -342zM329 -10q-128 0 -211.5 100t-83.5 251t83.5 250.5t211.5 99.5t211.5 -99.5t83.5 -250.5t-83.5 -251t-211.5 -100zM448 797h-240v22h240v-22z" />
    <glyph glyph-name="omacron" unicode="&#x14d;" horiz-adv-x="512" 
d="M256 -8q-88 0 -151 73.5t-63 179.5t63 179.5t151 73.5t151 -73.5t63 -179.5t-63 -179.5t-151 -73.5zM256 0q69 0 103.5 51.5t34.5 193.5t-34.5 193.5t-103.5 51.5t-103.5 -51.5t-34.5 -193.5t34.5 -193.5t103.5 -51.5zM375 608h-240v22h240v-22z" />
    <glyph glyph-name="Obreve" unicode="&#x14e;" horiz-adv-x="658" 
d="M329 -1q215 0 215 342q0 341 -215 341t-215 -341q0 -342 215 -342zM329 -10q-128 0 -211.5 100t-83.5 251t83.5 250.5t211.5 99.5t211.5 -99.5t83.5 -250.5t-83.5 -251t-211.5 -100zM329 758q-46 0 -79 35t-50 80l6 3q34 -67 123 -67t123 67l6 -3q-17 -45 -50 -80
t-79 -35z" />
    <glyph glyph-name="obreve" unicode="&#x14f;" horiz-adv-x="512" 
d="M256 -8q-88 0 -151 73.5t-63 179.5t63 179.5t151 73.5t151 -73.5t63 -179.5t-63 -179.5t-151 -73.5zM256 0q69 0 103.5 51.5t34.5 193.5t-34.5 193.5t-103.5 51.5t-103.5 -51.5t-34.5 -193.5t34.5 -193.5t103.5 -51.5zM256 569q-46 0 -79 35t-50 80l6 3q34 -67 123 -67
t123 67l6 -3q-17 -45 -50 -80t-79 -35z" />
    <glyph glyph-name="Ohungarumlaut" unicode="&#x150;" horiz-adv-x="658" 
d="M329 -1q215 0 215 342q0 341 -215 341t-215 -341q0 -342 215 -342zM329 -10q-128 0 -211.5 100t-83.5 251t83.5 250.5t211.5 99.5t211.5 -99.5t83.5 -250.5t-83.5 -251t-211.5 -100zM264 733l-6 4q19 38 35.5 89t26.5 70q9 17 26 17q12 0 20 -7.5t8 -18.5q0 -7 -5 -19
q-9 -18 -46 -58t-59 -77zM384 733l-6 4q19 38 35.5 89t26.5 70q9 17 26 17q12 0 20 -7.5t8 -18.5q0 -7 -5 -19q-9 -18 -46 -58t-59 -77z" />
    <glyph glyph-name="ohungarumlaut" unicode="&#x151;" horiz-adv-x="512" 
d="M256 -8q-88 0 -151 73.5t-63 179.5t63 179.5t151 73.5t151 -73.5t63 -179.5t-63 -179.5t-151 -73.5zM256 0q69 0 103.5 51.5t34.5 193.5t-34.5 193.5t-103.5 51.5t-103.5 -51.5t-34.5 -193.5t34.5 -193.5t103.5 -51.5zM191 544l-6 4q19 38 35.5 89t26.5 70q9 17 26 17
q12 0 20 -7.5t8 -18.5q0 -7 -5 -19q-9 -18 -46 -58t-59 -77zM311 544l-6 4q19 38 35.5 89t26.5 70q9 17 26 17q12 0 20 -7.5t8 -18.5q0 -7 -5 -19q-9 -18 -46 -58t-59 -77z" />
    <glyph glyph-name="OE" unicode="&#x152;" horiz-adv-x="988" 
d="M866 -31l-6 2q2 14 -5 21.5t-26 7.5h-237q-14 0 -41 0.5t-48 0.5q-17 0 -38 -0.5t-32 -0.5h-93q-135 0 -220 90t-85 250q0 161 85 251t220 90h93q11 0 32 -0.5t38 -0.5q21 0 48 0.5t41 0.5h224q20 0 27.5 7.5t5.5 22.5l6 2l92 -226l-6 -3q-78 109 -113 148t-96 39h-195
v-320h128q55 0 73 31t25 101h7v-277h-7q-4 35 -8 55t-14 41t-28.5 30t-47.5 9h-128v-331h206q33 0 54.5 8.5t46.5 36.5q50 57 111 160l6 -3zM469 10v661h-113q-139 0 -190.5 -73t-51.5 -258t51.5 -257.5t190.5 -72.5h113z" />
    <glyph glyph-name="oe" unicode="&#x153;" horiz-adv-x="830" 
d="M604 -8q-54 0 -99.5 28.5t-74.5 81.5q-28 -52 -73.5 -81t-100.5 -29q-88 0 -151 73.5t-63 179.5t63 179.5t151 73.5q56 0 102 -30.5t74 -83.5q29 55 75.5 84.5t101.5 29.5q70 0 125 -49.5t51 -132.5h-314q-1 -15 -1 -45q0 -109 43.5 -183t115.5 -74q106 0 149 126l6 -2
q-47 -146 -180 -146zM256 0q69 0 103.5 51.5t34.5 193.5t-34.5 193.5t-103.5 51.5t-103.5 -51.5t-34.5 -193.5t34.5 -193.5t103.5 -51.5zM472 325h245q-4 165 -113 165q-56 0 -89.5 -46t-42.5 -119z" />
    <glyph glyph-name="Racute" unicode="&#x154;" horiz-adv-x="633" 
d="M625 8v-8q-25 0 -46 1.5t-41 1.5q-11 0 -26 -1.5t-22 -1.5l-179 320h-147v-263q0 -32 9 -40.5t42 -8.5h1v-8h-16q-10 0 -32 1.5t-38 1.5t-38 -1.5t-32 -1.5h-16v8h1q33 0 42 8.5t9 40.5v567q0 32 -9 40.5t-42 8.5h-1v8h16q10 0 32 -0.5t38 -0.5q20 0 47 0.5t42 0.5h108
q95 0 159.5 -49t64.5 -132q0 -75 -60.5 -127.5t-162.5 -52.5h-4q19 -30 39.5 -41.5t55.5 -11.5l92 -165q33 -58 54.5 -75t59.5 -19zM474 500q0 87 -32.5 129t-117.5 42h-160v-341h160q84 0 117 39.5t33 130.5zM253 731l-6 4q19 35 42 88.5t37 74.5q10 15 26 15
q12 0 20.5 -8.5t8.5 -19.5t-6 -20q-11 -16 -53.5 -55.5t-68.5 -78.5z" />
    <glyph glyph-name="racute" unicode="&#x155;" horiz-adv-x="354" 
d="M242 0h-23q-15 0 -42 1.5t-47 1.5q-18 0 -40 -1.5t-34 -1.5h-14v7h1q35 0 44.5 9t9.5 41v342q0 32 -9.5 40.5t-44.5 8.5h-1v7h6q33 0 68 13t41 30h6v-115q38 56 74 86q37 29 76 29q40 0 40 -26q0 -27 -39 -27q-9 0 -30 4.5t-33 4.5q-31 0 -88 -84v-313q0 -31 14 -40.5
t51 -9.5h14v-7zM147 542l-6 4q19 35 42 88.5t37 74.5q10 15 26 15q12 0 20.5 -8t8.5 -20q0 -11 -6 -20q-11 -16 -53.5 -55.5t-68.5 -78.5z" />
    <glyph glyph-name="Rcommaaccent" unicode="&#x156;" horiz-adv-x="633" 
d="M625 8v-8q-25 0 -46 1.5t-41 1.5q-11 0 -26 -1.5t-22 -1.5l-179 320h-147v-263q0 -32 9 -40.5t42 -8.5h1v-8h-16q-10 0 -32 1.5t-38 1.5t-38 -1.5t-32 -1.5h-16v8h1q33 0 42 8.5t9 40.5v567q0 32 -9 40.5t-42 8.5h-1v8h16q10 0 32 -0.5t38 -0.5q20 0 47 0.5t42 0.5h108
q95 0 159.5 -49t64.5 -132q0 -75 -60.5 -127.5t-162.5 -52.5h-4q19 -30 39.5 -41.5t55.5 -11.5l92 -165q33 -58 54.5 -75t59.5 -19zM474 500q0 87 -32.5 129t-117.5 42h-160v-341h160q84 0 117 39.5t33 130.5zM320 -155q-19 0 -31 12.5t-12 30.5t12.5 31t32.5 13
q21 0 35.5 -16.5t14.5 -40.5q0 -48 -25.5 -78t-56.5 -37l-1 6q28 7 50 32.5t22 62.5q0 4 -1 11q-13 -27 -40 -27z" />
    <glyph glyph-name="rcommaaccent" unicode="&#x157;" horiz-adv-x="354" 
d="M242 0h-23q-15 0 -42 1.5t-47 1.5q-18 0 -40 -1.5t-34 -1.5h-14v7h1q35 0 44.5 9t9.5 41v342q0 32 -9.5 40.5t-44.5 8.5h-1v7h6q33 0 68 13t41 30h6v-115q38 56 74 86q37 29 76 29q40 0 40 -26q0 -27 -39 -27q-9 0 -30 4.5t-33 4.5q-31 0 -88 -84v-313q0 -31 14 -40.5
t51 -9.5h14v-7zM128 -155q-19 0 -31 12.5t-12 30.5t12.5 31t32.5 13q21 0 35.5 -16.5t14.5 -40.5q0 -48 -25.5 -78t-56.5 -37l-1 6q28 7 50 32.5t22 62.5q0 4 -1 11q-13 -27 -40 -27z" />
    <glyph glyph-name="Rcaron" unicode="&#x158;" horiz-adv-x="633" 
d="M625 8v-8q-25 0 -46 1.5t-41 1.5q-11 0 -26 -1.5t-22 -1.5l-179 320h-147v-263q0 -32 9 -40.5t42 -8.5h1v-8h-16q-10 0 -32 1.5t-38 1.5t-38 -1.5t-32 -1.5h-16v8h1q33 0 42 8.5t9 40.5v567q0 32 -9 40.5t-42 8.5h-1v8h16q10 0 32 -0.5t38 -0.5q20 0 47 0.5t42 0.5h108
q95 0 159.5 -49t64.5 -132q0 -75 -60.5 -127.5t-162.5 -52.5h-4q19 -30 39.5 -41.5t55.5 -11.5l92 -165q33 -58 54.5 -75t59.5 -19zM474 500q0 87 -32.5 129t-117.5 42h-160v-341h160q84 0 117 39.5t33 130.5zM308 732q-11 0 -18.5 7.5t-17.5 26.5q-7 12 -22 42.5
t-28.5 55.5t-27.5 46l6 4q16 -21 33 -39.5t42.5 -44l32.5 -32.5l32.5 32.5t42.5 44t33 39.5l6 -4q-14 -21 -27.5 -46t-28.5 -55.5t-22 -42.5q-10 -19 -17.5 -26.5t-18.5 -7.5z" />
    <glyph glyph-name="rcaron" unicode="&#x159;" horiz-adv-x="354" 
d="M242 0h-23q-15 0 -42 1.5t-47 1.5q-18 0 -40 -1.5t-34 -1.5h-14v7h1q35 0 44.5 9t9.5 41v342q0 32 -9.5 40.5t-44.5 8.5h-1v7h6q33 0 68 13t41 30h6v-115q38 56 74 86q37 29 76 29q40 0 40 -26q0 -27 -39 -27q-9 0 -30 4.5t-33 4.5q-31 0 -88 -84v-313q0 -31 14 -40.5
t51 -9.5h14v-7zM202 543q-11 0 -18.5 7.5t-17.5 26.5q-7 12 -22 42.5t-28.5 55.5t-27.5 46l6 4q16 -21 33 -39.5t42.5 -44l32.5 -32.5l32.5 32.5t42.5 44t33 39.5l6 -4q-14 -21 -27.5 -46t-28.5 -55.5t-22 -42.5q-10 -19 -17.5 -26.5t-18.5 -7.5z" />
    <glyph glyph-name="Sacute" unicode="&#x15a;" horiz-adv-x="554" 
d="M516 188q0 -63 -32.5 -109.5t-78 -67.5t-94.5 -21q-44 0 -100 15.5t-63 15.5q-36 0 -33 -33l-6 -2l-81 230l6 3q32 -60 67.5 -104t62.5 -65.5t58.5 -34t48.5 -14.5t39 -2q68 0 114.5 41t46.5 99q0 108 -165 170l-81 30q-71 26 -118.5 73t-47.5 114q0 75 54 120t135 45
q28 0 72 -9.5t55 -9.5q37 0 33 33l6 2l87 -206l-6 -3q-66 108 -125 146t-122 38q-71 0 -110.5 -35t-39.5 -87q0 -53 36.5 -87.5t118.5 -64.5l83 -31q180 -66 180 -189zM202 731l-6 4q19 35 42 88.5t37 74.5q11 15 26 15q13 0 21 -8.5t8 -19.5t-6 -20q-11 -16 -53.5 -55.5
t-68.5 -78.5z" />
    <glyph glyph-name="sacute" unicode="&#x15b;" horiz-adv-x="451" 
d="M245 -8q-27 0 -67 10t-58 10q-11 0 -18.5 -5.5t-5.5 -14.5l-6 -2l-50 172l6 2q77 -164 200 -164q60 0 91.5 29t31.5 73q0 69 -112 112l-81 31q-107 41 -107 133q0 53 34.5 86.5t95.5 33.5q26 0 60.5 -8.5t48.5 -8.5q13 0 20 5t5 15l6 2l50 -168l-6 -2q-72 157 -184 157
q-51 0 -76 -23t-25 -54q0 -33 24.5 -57.5t83.5 -47.5l80 -31q60 -24 88.5 -56t28.5 -79q0 -70 -45 -110t-113 -40zM154 542l-6 4q19 35 42 88.5t37 74.5q11 15 26 15q13 0 21 -8t8 -20q0 -11 -6 -20q-11 -16 -53.5 -55.5t-68.5 -78.5z" />
    <glyph glyph-name="Scircumflex" unicode="&#x15c;" horiz-adv-x="554" 
d="M516 188q0 -63 -32.5 -109.5t-78 -67.5t-94.5 -21q-44 0 -100 15.5t-63 15.5q-36 0 -33 -33l-6 -2l-81 230l6 3q32 -60 67.5 -104t62.5 -65.5t58.5 -34t48.5 -14.5t39 -2q68 0 114.5 41t46.5 99q0 108 -165 170l-81 30q-71 26 -118.5 73t-47.5 114q0 75 54 120t135 45
q28 0 72 -9.5t55 -9.5q37 0 33 33l6 2l87 -206l-6 -3q-66 108 -125 146t-122 38q-71 0 -110.5 -35t-39.5 -87q0 -53 36.5 -87.5t118.5 -64.5l83 -31q180 -66 180 -189zM371 735l-6 -4q-16 21 -33 39.5t-42.5 44l-32.5 32.5l-32.5 -32.5t-42.5 -44t-33 -39.5l-6 4
q14 21 27.5 46t28.5 55.5t22 42.5q10 19 17.5 26.5t18.5 7.5t18.5 -7.5t17.5 -26.5q7 -12 22 -42.5t28.5 -55.5t27.5 -46z" />
    <glyph glyph-name="scircumflex" unicode="&#x15d;" horiz-adv-x="451" 
d="M245 -8q-27 0 -67 10t-58 10q-11 0 -18.5 -5.5t-5.5 -14.5l-6 -2l-50 172l6 2q77 -164 200 -164q60 0 91.5 29t31.5 73q0 69 -112 112l-81 31q-107 41 -107 133q0 53 34.5 86.5t95.5 33.5q26 0 60.5 -8.5t48.5 -8.5q13 0 20 5t5 15l6 2l50 -168l-6 -2q-72 157 -184 157
q-51 0 -76 -23t-25 -54q0 -33 24.5 -57.5t83.5 -47.5l80 -31q60 -24 88.5 -56t28.5 -79q0 -70 -45 -110t-113 -40zM323 546l-6 -4q-16 21 -33 39.5t-42.5 44l-32.5 32.5l-32.5 -32.5t-42.5 -44t-33 -39.5l-6 4q14 21 27.5 46t28.5 55.5t22 42.5q10 19 17.5 26.5t18.5 7.5
t18.5 -7.5t17.5 -26.5q7 -12 22 -42.5t28.5 -55.5t27.5 -46z" />
    <glyph glyph-name="Scedilla" unicode="&#x15e;" horiz-adv-x="554" 
d="M368 -117q0 -50 -60 -88t-128 -45l-1 7q65 8 105.5 41.5t40.5 69.5q0 41 -51 41q-35 0 -56 -12l-3 3l78 91q-38 2 -87.5 16t-57.5 14q-36 0 -33 -33l-6 -2l-81 230l6 3q32 -60 67.5 -104t62.5 -65.5t58.5 -34t48.5 -14.5t39 -2q68 0 114.5 41t46.5 99q0 108 -165 170
l-81 30q-71 26 -118.5 73t-47.5 114q0 75 54 120t135 45q28 0 72 -9.5t55 -9.5q37 0 33 33l6 2l87 -206l-6 -3q-66 108 -125 146t-122 38q-71 0 -110.5 -35t-39.5 -87q0 -53 36.5 -87.5t118.5 -64.5l83 -31q180 -66 180 -189q0 -63 -32.5 -109.5t-78 -67.5t-94.5 -21h-10
l-30 -48q14 2 20 2q34 0 55.5 -16t21.5 -45z" />
    <glyph glyph-name="scedilla" unicode="&#x15f;" horiz-adv-x="451" 
d="M311 -117q0 -50 -60 -88t-128 -45l-1 7q65 8 105.5 41.5t40.5 69.5q0 41 -51 41q-35 0 -56 -12l-3 3l79 92q-24 1 -60.5 10.5t-56.5 9.5q-11 0 -18.5 -5.5t-5.5 -14.5l-6 -2l-50 172l6 2q77 -164 200 -164q60 0 91.5 29t31.5 73q0 69 -112 112l-81 31q-107 41 -107 133
q0 53 34.5 86.5t95.5 33.5q26 0 60.5 -8.5t48.5 -8.5q13 0 20 5t5 15l6 2l50 -168l-6 -2q-72 157 -184 157q-51 0 -76 -23t-25 -54q0 -33 24.5 -57.5t83.5 -47.5l80 -31q60 -24 88.5 -56t28.5 -79q0 -70 -44.5 -110t-114.5 -40l-30 -50q14 2 20 2q34 0 55.5 -16t21.5 -45z
" />
    <glyph glyph-name="Scaron" unicode="&#x160;" horiz-adv-x="554" 
d="M516 188q0 -63 -32.5 -109.5t-78 -67.5t-94.5 -21q-44 0 -100 15.5t-63 15.5q-36 0 -33 -33l-6 -2l-81 230l6 3q32 -60 67.5 -104t62.5 -65.5t58.5 -34t48.5 -14.5t39 -2q68 0 114.5 41t46.5 99q0 108 -165 170l-81 30q-71 26 -118.5 73t-47.5 114q0 75 54 120t135 45
q28 0 72 -9.5t55 -9.5q37 0 33 33l6 2l87 -206l-6 -3q-66 108 -125 146t-122 38q-71 0 -110.5 -35t-39.5 -87q0 -53 36.5 -87.5t118.5 -64.5l83 -31q180 -66 180 -189zM257 732q-11 0 -18.5 7.5t-17.5 26.5q-7 12 -22 42.5t-28.5 55.5t-27.5 46l6 4q16 -21 33 -39.5
t42.5 -44l32.5 -32.5l32.5 32.5t42.5 44t33 39.5l6 -4q-14 -21 -27.5 -46t-28.5 -55.5t-22 -42.5q-10 -19 -17.5 -26.5t-18.5 -7.5z" />
    <glyph glyph-name="scaron" unicode="&#x161;" horiz-adv-x="451" 
d="M245 -8q-27 0 -67 10t-58 10q-11 0 -18.5 -5.5t-5.5 -14.5l-6 -2l-50 172l6 2q77 -164 200 -164q60 0 91.5 29t31.5 73q0 69 -112 112l-81 31q-107 41 -107 133q0 53 34.5 86.5t95.5 33.5q26 0 60.5 -8.5t48.5 -8.5q13 0 20 5t5 15l6 2l50 -168l-6 -2q-72 157 -184 157
q-51 0 -76 -23t-25 -54q0 -33 24.5 -57.5t83.5 -47.5l80 -31q60 -24 88.5 -56t28.5 -79q0 -70 -45 -110t-113 -40zM216 543q-11 0 -18.5 7.5t-17.5 26.5q-7 12 -22 42.5t-28.5 55.5t-27.5 46l6 4q16 -21 33 -39.5t42.5 -44l32.5 -32.5l32.5 32.5t42.5 44t33 39.5l6 -4
q-14 -21 -27.5 -46t-28.5 -55.5t-22 -42.5q-10 -19 -17.5 -26.5t-18.5 -7.5z" />
    <glyph glyph-name="Tcommaaccent" unicode="&#x162;" horiz-adv-x="640" 
d="M394 -117q0 -50 -60 -88t-128 -45l-1 7q65 8 105.5 41.5t40.5 69.5q0 41 -51 41q-35 0 -56 -12l-3 3q42 55 85 103h-6q-16 0 -38 -1.5t-32 -1.5h-16v8h1q33 0 42 8.5t9 40.5v614h-88q-30 0 -43.5 -6t-33.5 -30q-34 -42 -106 -179l-6 3l76 253l6 -1q0 -30 36 -30h110
q7 0 34.5 -0.5t48.5 -0.5t48.5 0.5t34.5 0.5h110q36 0 36 30l6 1l76 -253l-6 -3q-72 137 -106 179q-20 24 -33.5 30t-43.5 6h-88v-614q0 -32 9 -40.5t42 -8.5h1v-8h-16q-11 0 -29.5 1.5t-26.5 1.5l-37 -61q14 2 20 2q34 0 55.5 -16t21.5 -45z" />
    <glyph glyph-name="tcommaaccent" unicode="&#x163;" horiz-adv-x="279" 
d="M221 -117q0 -50 -60 -88t-128 -45l-1 7q65 8 105.5 41.5t40.5 69.5q0 41 -51 41q-35 0 -56 -12l-3 3l80 93q-60 10 -60 82v406h-68v9h68v79q27 0 43.5 17.5t16.5 42.5v1h6v-140h101v-9h-101v-417q0 -52 37 -52q15 0 32 14t29 35l6 -3q-13 -27 -38 -46.5t-56 -19.5h-10
l-30 -50q14 2 20 2q34 0 55.5 -16t21.5 -45z" />
    <glyph glyph-name="Tcaron" unicode="&#x164;" horiz-adv-x="640" 
d="M406 8v-8h-16q-10 0 -32 1.5t-38 1.5t-38 -1.5t-32 -1.5h-16v8h1q33 0 42 8.5t9 40.5v614h-88q-30 0 -43.5 -6t-33.5 -30q-34 -42 -106 -179l-6 3l76 253l6 -1q0 -30 36 -30h110q7 0 34.5 -0.5t48.5 -0.5t48.5 0.5t34.5 0.5h110q36 0 36 30l6 1l76 -253l-6 -3
q-72 137 -106 179q-20 24 -33.5 30t-43.5 6h-88v-614q0 -32 9 -40.5t42 -8.5h1zM320 732q-11 0 -18.5 7.5t-17.5 26.5q-7 12 -22 42.5t-28.5 55.5t-27.5 46l6 4q16 -21 33 -39.5t42.5 -44l32.5 -32.5l32.5 32.5t42.5 44t33 39.5l6 -4q-14 -21 -27.5 -46t-28.5 -55.5
t-22 -42.5q-10 -19 -17.5 -26.5t-18.5 -7.5z" />
    <glyph glyph-name="tcaron" unicode="&#x165;" horiz-adv-x="279" 
d="M164 -8q-76 0 -76 83v406h-68v9h68v79q27 0 43.5 17.5t16.5 42.5v1h6v-140h101v-9h-101v-417q0 -52 37 -52q15 0 32 14t29 35l6 -3q-13 -27 -38 -46.5t-56 -19.5zM211 540l-7 2q8 45 12.5 114t10.5 92q8 26 31 26q12 0 21 -7.5t9 -19.5q0 -11 -3 -18q-5 -16 -32.5 -78.5
t-41.5 -110.5z" />
    <glyph glyph-name="Tbar" unicode="&#x166;" horiz-adv-x="640" 
d="M406 0h-16q-10 0 -32 1.5t-38 1.5t-38 -1.5t-32 -1.5h-16v8h1q33 0 42 8.5t9 40.5v284h-125v10h125v320h-88q-30 0 -43.5 -6t-33.5 -30q-34 -42 -106 -179l-6 3l76 253l6 -1q0 -30 36 -30h110q7 0 34.5 -0.5t48.5 -0.5t48.5 0.5t34.5 0.5h110q36 0 36 30l6 1l76 -253
l-6 -3q-72 137 -106 179q-20 24 -33.5 30t-43.5 6h-88v-320h125v-10h-125v-284q0 -32 9 -40.5t42 -8.5h1v-8z" />
    <glyph glyph-name="tbar" unicode="&#x167;" horiz-adv-x="279" 
d="M252 61l6 -3q-13 -27 -38 -46.5t-56 -19.5q-76 0 -76 83v259h-68v9h68v138h-68v9h68v79q27 0 43.5 17.5t16.5 42.5v1h6v-140h101v-9h-101v-138h86v-9h-86v-270q0 -52 37 -52q15 0 32 14t29 35z" />
    <glyph glyph-name="Utilde" unicode="&#x168;" horiz-adv-x="620" 
d="M533 550v-339q0 -100 -57 -159.5t-156 -59.5q-240 0 -240 220v412q0 32 -9 40.5t-42 8.5h-1v8h16q10 0 32 -1.5t38 -1.5t38 1.5t32 1.5h16v-8h-1q-33 0 -42 -8.5t-9 -40.5v-371q0 -132 42.5 -190.5t140.5 -58.5q86 0 139 56.5t53 150.5v339q0 57 -18 90t-70 33h-1v8h25
q5 0 28 -1.5t41 -1.5t41 1.5t29 1.5h24v-8h-1q-52 0 -70 -33t-18 -90zM367 777q-21 0 -55 21.5t-61 21.5q-11 0 -23.5 -11t-18 -18.5t-17.5 -26.5l-6 4q2 3 13 21t17.5 26.5t18 21.5t24.5 18.5t28 5.5q21 0 55 -21.5t61 -21.5q11 0 23.5 11t18 18.5t17.5 26.5l6 -4
q-35 -59 -58 -77q-21 -16 -43 -16z" />
    <glyph glyph-name="utilde" unicode="&#x169;" horiz-adv-x="534" 
d="M499 0h-14q-11 0 -34 1t-40 1q-9 0 -19.5 -1t-13.5 -1v68l-101 -41q-85 -35 -127 -35q-62 0 -62 70v337q0 32 -9.5 40.5t-44.5 8.5h-1v7h6q33 0 68 13t41 30h6v-439q0 -48 35 -48q23 0 85 24l104 42v322q0 32 -9.5 40.5t-44.5 8.5h-1v7h6q33 0 68 13t41 30h6v-441
q0 -32 9.5 -41t44.5 -9h1v-7zM306 588q-20 0 -55 21.5t-61 21.5q-11 0 -23.5 -11t-18 -18.5t-17.5 -26.5l-6 4q2 3 13 21t17.5 26.5t18 21.5t24.5 18.5t28 5.5q20 0 55 -21.5t61 -21.5q11 0 23.5 11t18 18.5t17.5 26.5l6 -4q-35 -59 -58 -77q-21 -16 -43 -16z" />
    <glyph glyph-name="Umacron" unicode="&#x16a;" horiz-adv-x="620" 
d="M533 550v-339q0 -100 -57 -159.5t-156 -59.5q-240 0 -240 220v412q0 32 -9 40.5t-42 8.5h-1v8h16q10 0 32 -1.5t38 -1.5t38 1.5t32 1.5h16v-8h-1q-33 0 -42 -8.5t-9 -40.5v-371q0 -132 42.5 -190.5t140.5 -58.5q86 0 139 56.5t53 150.5v339q0 57 -18 90t-70 33h-1v8h25
q5 0 28 -1.5t41 -1.5t41 1.5t29 1.5h24v-8h-1q-52 0 -70 -33t-18 -90zM446 797h-240v22h240v-22z" />
    <glyph glyph-name="umacron" unicode="&#x16b;" horiz-adv-x="534" 
d="M499 0h-14q-11 0 -34 1t-40 1q-9 0 -19.5 -1t-13.5 -1v68l-101 -41q-85 -35 -127 -35q-62 0 -62 70v337q0 32 -9.5 40.5t-44.5 8.5h-1v7h6q33 0 68 13t41 30h6v-439q0 -48 35 -48q23 0 85 24l104 42v322q0 32 -9.5 40.5t-44.5 8.5h-1v7h6q33 0 68 13t41 30h6v-441
q0 -32 9.5 -41t44.5 -9h1v-7zM385 608h-240v22h240v-22z" />
    <glyph glyph-name="Ubreve" unicode="&#x16c;" horiz-adv-x="620" 
d="M533 550v-339q0 -100 -57 -159.5t-156 -59.5q-240 0 -240 220v412q0 32 -9 40.5t-42 8.5h-1v8h16q10 0 32 -1.5t38 -1.5t38 1.5t32 1.5h16v-8h-1q-33 0 -42 -8.5t-9 -40.5v-371q0 -132 42.5 -190.5t140.5 -58.5q86 0 139 56.5t53 150.5v339q0 57 -18 90t-70 33h-1v8h25
q5 0 28 -1.5t41 -1.5t41 1.5t29 1.5h24v-8h-1q-52 0 -70 -33t-18 -90zM327 758q-46 0 -79 35t-50 80l6 3q34 -67 123 -67t123 67l6 -3q-17 -45 -50 -80t-79 -35z" />
    <glyph glyph-name="ubreve" unicode="&#x16d;" horiz-adv-x="534" 
d="M499 0h-14q-11 0 -34 1t-40 1q-9 0 -19.5 -1t-13.5 -1v68l-101 -41q-85 -35 -127 -35q-62 0 -62 70v337q0 32 -9.5 40.5t-44.5 8.5h-1v7h6q33 0 68 13t41 30h6v-439q0 -48 35 -48q23 0 85 24l104 42v322q0 32 -9.5 40.5t-44.5 8.5h-1v7h6q33 0 68 13t41 30h6v-441
q0 -32 9.5 -41t44.5 -9h1v-7zM266 569q-46 0 -79 35t-50 80l6 3q34 -67 123 -67t123 67l6 -3q-17 -45 -50 -80t-79 -35z" />
    <glyph glyph-name="Uring" unicode="&#x16e;" horiz-adv-x="620" 
d="M533 550v-339q0 -100 -57 -159.5t-156 -59.5q-240 0 -240 220v412q0 32 -9 40.5t-42 8.5h-1v8h16q10 0 32 -1.5t38 -1.5t38 1.5t32 1.5h16v-8h-1q-33 0 -42 -8.5t-9 -40.5v-371q0 -132 42.5 -190.5t140.5 -58.5q86 0 139 56.5t53 150.5v339q0 57 -18 90t-70 33h-1v8h25
q5 0 28 -1.5t41 -1.5t41 1.5t29 1.5h24v-8h-1q-52 0 -70 -33t-18 -90zM411 828q0 -36 -24 -61t-60 -25t-60 25t-24 61t24 61t60 25t60 -25t24 -61zM401 828q0 31 -21 53.5t-53 22.5t-53 -22.5t-21 -53.5t21 -53.5t53 -22.5t53 22.5t21 53.5z" />
    <glyph glyph-name="uring" unicode="&#x16f;" horiz-adv-x="534" 
d="M499 0h-14q-11 0 -34 1t-40 1q-9 0 -19.5 -1t-13.5 -1v68l-101 -41q-85 -35 -127 -35q-62 0 -62 70v337q0 32 -9.5 40.5t-44.5 8.5h-1v7h6q33 0 68 13t41 30h6v-439q0 -48 35 -48q23 0 85 24l104 42v322q0 32 -9.5 40.5t-44.5 8.5h-1v7h6q33 0 68 13t41 30h6v-441
q0 -32 9.5 -41t44.5 -9h1v-7zM350 639q0 -36 -24 -61t-60 -25t-60 25t-24 61t24 61t60 25t60 -25t24 -61zM340 639q0 31 -21 53.5t-53 22.5t-53 -22.5t-21 -53.5t21 -53.5t53 -22.5t53 22.5t21 53.5z" />
    <glyph glyph-name="Uhungarumlaut" unicode="&#x170;" horiz-adv-x="620" 
d="M533 550v-339q0 -100 -57 -159.5t-156 -59.5q-240 0 -240 220v412q0 32 -9 40.5t-42 8.5h-1v8h16q10 0 32 -1.5t38 -1.5t38 1.5t32 1.5h16v-8h-1q-33 0 -42 -8.5t-9 -40.5v-371q0 -132 42.5 -190.5t140.5 -58.5q86 0 139 56.5t53 150.5v339q0 57 -18 90t-70 33h-1v8h25
q5 0 28 -1.5t41 -1.5t41 1.5t29 1.5h24v-8h-1q-52 0 -70 -33t-18 -90zM262 733l-6 4q19 38 35.5 89t26.5 70q9 17 26 17q12 0 20 -7.5t8 -18.5q0 -7 -5 -19q-9 -18 -46 -58t-59 -77zM382 733l-6 4q19 38 35.5 89t26.5 70q9 17 26 17q12 0 20 -7.5t8 -18.5q0 -7 -5 -19
q-9 -18 -46 -58t-59 -77z" />
    <glyph glyph-name="uhungarumlaut" unicode="&#x171;" horiz-adv-x="534" 
d="M499 0h-14q-11 0 -34 1t-40 1q-9 0 -19.5 -1t-13.5 -1v68l-101 -41q-85 -35 -127 -35q-62 0 -62 70v337q0 32 -9.5 40.5t-44.5 8.5h-1v7h6q33 0 68 13t41 30h6v-439q0 -48 35 -48q23 0 85 24l104 42v322q0 32 -9.5 40.5t-44.5 8.5h-1v7h6q33 0 68 13t41 30h6v-441
q0 -32 9.5 -41t44.5 -9h1v-7zM201 544l-6 4q19 38 35.5 89t26.5 70q9 17 26 17q12 0 20 -7.5t8 -18.5q0 -7 -5 -19q-9 -18 -46 -58t-59 -77zM321 544l-6 4q19 38 35.5 89t26.5 70q9 17 26 17q12 0 20 -7.5t8 -18.5q0 -7 -5 -19q-9 -18 -46 -58t-59 -77z" />
    <glyph glyph-name="Uogonek" unicode="&#x172;" horiz-adv-x="620" 
d="M533 550v-339q0 -178 -167 -218q-29 -7 -54.5 -32t-25.5 -55q0 -27 17.5 -43.5t44.5 -16.5q41 0 73 40l6 -4q-18 -25 -49 -42.5t-65 -17.5q-39 0 -62 18.5t-23 48.5t38 60t80 44q-3 0 -12.5 -0.5t-13.5 -0.5q-240 0 -240 220v412q0 32 -9 40.5t-42 8.5h-1v8h16
q10 0 32 -1.5t38 -1.5t38 1.5t32 1.5h16v-8h-1q-33 0 -42 -8.5t-9 -40.5v-371q0 -132 42.5 -190.5t140.5 -58.5q86 0 139 56.5t53 150.5v339q0 57 -18 90t-70 33h-1v8h25q5 0 28 -1.5t41 -1.5t41 1.5t29 1.5h24v-8h-1q-52 0 -70 -33t-18 -90z" />
    <glyph glyph-name="uogonek" unicode="&#x173;" horiz-adv-x="534" 
d="M499 0h-14q-8 0 -21.5 0.5t-20.5 0.5q-83 -39 -83 -95q0 -27 17.5 -43.5t44.5 -16.5q41 0 73 40l6 -4q-18 -25 -49 -42.5t-65 -17.5q-39 0 -62 18.5t-23 48.5q0 54 128 113h-19q-9 0 -19.5 -1t-13.5 -1v68l-101 -41q-85 -35 -127 -35q-62 0 -62 70v337q0 32 -9.5 40.5
t-44.5 8.5h-1v7h6q33 0 68 13t41 30h6v-439q0 -48 35 -48q23 0 85 24l104 42v322q0 32 -9.5 40.5t-44.5 8.5h-1v7h6q33 0 68 13t41 30h6v-441q0 -32 9.5 -41t44.5 -9h1v-7z" />
    <glyph glyph-name="Wcircumflex" unicode="&#x174;" horiz-adv-x="976" 
d="M723 83l28 -83q-9 0 -20 0.5t-17 0.5t-15 -0.5t-20 -0.5l-191 554l-151 -474l29 -80q-9 0 -19.5 0.5t-17.5 0.5q-6 0 -15.5 -0.5t-20.5 -0.5l-231 622q-20 51 -69 51v8h21q6 0 31 -1.5t41 -1.5q18 0 45 1.5t32 1.5h21v-8q-53 0 -53 -30q0 -9 5 -24l195 -524l151 476
l-18 52q-11 29 -27 39.5t-42 10.5v8h21q6 0 33 -1.5t43 -1.5q18 0 42 1.5t30 1.5h21v-8q-53 0 -53 -30q0 -9 5 -24l180 -519l146 461q14 38 14 59q0 53 -71 53v8h12q11 0 41 -1.5t43 -1.5q7 0 34.5 1.5t35.5 1.5h21v-8q-86 -5 -120 -114zM599 735l-6 -4q-16 21 -33 39.5
t-42.5 44l-32.5 32.5l-32.5 -32.5t-42.5 -44t-33 -39.5l-6 4q14 21 27.5 46t28.5 55.5t22 42.5q10 19 17.5 26.5t18.5 7.5t18.5 -7.5t17.5 -26.5q7 -12 22 -42.5t28.5 -55.5t27.5 -46z" />
    <glyph glyph-name="wcircumflex" unicode="&#x175;" horiz-adv-x="752" 
d="M557 75l28 -75q-10 0 -20.5 0.5t-15.5 0.5q-6 0 -17 -0.5t-19 -0.5l-139 370l-105 -295l28 -75q-10 0 -20 0.5t-15 0.5q-6 0 -17.5 -0.5t-19.5 -0.5l-163 433q-11 30 -25.5 40t-42.5 10v7h23q6 0 27.5 -1.5t40.5 -1.5t40.5 1.5t26.5 1.5h24v-7q-50 0 -50 -24q0 -6 3 -15
l135 -357l105 295l-19 51q-11 30 -25.5 40t-42.5 10v7h23q6 0 27 -1.5t40 -1.5t41 1.5t27 1.5h24v-7q-50 0 -50 -24q0 -7 3 -15l135 -357l110 309q8 22 8 40q0 47 -66 47v7h10q12 0 35 -1.5t38 -1.5t37.5 1.5t30.5 1.5h17v-7q-41 -2 -63.5 -24.5t-38.5 -66.5zM486 546l-6 -4
q-16 21 -33 39.5t-42.5 44l-32.5 32.5l-32.5 -32.5t-42.5 -44t-33 -39.5l-6 4q14 21 27.5 46t28.5 55.5t22 42.5q10 19 17.5 26.5t18.5 7.5t18.5 -7.5t17.5 -26.5q7 -12 22 -42.5t28.5 -55.5t27.5 -46z" />
    <glyph glyph-name="Ycircumflex" unicode="&#x176;" horiz-adv-x="593" 
d="M339 327v-270q0 -32 9 -40.5t42 -8.5h1v-8h-16q-11 0 -32 1.5t-38 1.5t-38 -1.5t-32 -1.5h-16v8h1q33 0 42 8.5t9 40.5v253l-202 313q-18 27 -36 38.5t-45 11.5v8h29q6 0 28.5 -1.5t40.5 -1.5t42 1.5t30 1.5h34v-8q-29 0 -40 -5.5t-11 -19.5q0 -13 10 -29l183 -282
l139 227q26 43 26 63q0 46 -64 46h-1v8h13q11 0 39.5 -1.5t41.5 -1.5q6 0 34.5 1.5t36.5 1.5h19v-8h-1q-41 0 -71 -29t-66 -88zM427 735l-6 -4q-16 21 -33 39.5t-42.5 44l-32.5 32.5l-32.5 -32.5t-42.5 -44t-33 -39.5l-6 4q14 21 27.5 46t28.5 55.5t22 42.5q10 19 17.5 26.5
t18.5 7.5t18.5 -7.5t17.5 -26.5q7 -12 22 -42.5t28.5 -55.5t27.5 -46z" />
    <glyph glyph-name="ycircumflex" unicode="&#x177;" horiz-adv-x="465" 
d="M269 75l28 -75q-9 0 -20 0.5t-16 0.5q-3 0 -11.5 -0.5t-14.5 -0.5l-20 -45q-49 -109 -82 -150t-95 -41q-41 0 -41 27q0 12 8 18.5t20 6.5t37 -6.5t35 -6.5q26 0 49 33t61 122l19 42l-164 434q-11 29 -25.5 39t-42.5 10v7h23q6 0 27.5 -1.5t40.5 -1.5t40.5 1.5t26.5 1.5
h24v-7q-50 0 -50 -24q0 -6 3 -15l135 -357l110 309q8 21 8 40q0 47 -66 47v7h10q12 0 35 -1.5t37 -1.5q15 0 38 1.5t31 1.5h17v-7q-41 -2 -63.5 -25t-38.5 -66zM356 546l-6 -4q-16 21 -33 39.5t-42.5 44l-32.5 32.5l-32.5 -32.5t-42.5 -44t-33 -39.5l-6 4q14 21 27.5 46
t28.5 55.5t22 42.5q10 19 17.5 26.5t18.5 7.5t18.5 -7.5t17.5 -26.5q7 -12 22 -42.5t28.5 -55.5t27.5 -46z" />
    <glyph glyph-name="Ydieresis" unicode="&#x178;" horiz-adv-x="593" 
d="M339 327v-270q0 -32 9 -40.5t42 -8.5h1v-8h-16q-11 0 -32 1.5t-38 1.5t-38 -1.5t-32 -1.5h-16v8h1q33 0 42 8.5t9 40.5v253l-202 313q-18 27 -36 38.5t-45 11.5v8h29q6 0 28.5 -1.5t40.5 -1.5t42 1.5t30 1.5h34v-8q-29 0 -40 -5.5t-11 -19.5q0 -13 10 -29l183 -282
l139 227q26 43 26 63q0 46 -64 46h-1v8h13q11 0 39.5 -1.5t41.5 -1.5q6 0 34.5 1.5t36.5 1.5h19v-8h-1q-41 0 -71 -29t-66 -88zM264 807q0 -19 -13 -31.5t-32 -12.5q-18 0 -31 12.5t-13 31.5t13 32t31 13q19 0 32 -13t13 -32zM453 807q0 -18 -13.5 -31t-31.5 -13
q-19 0 -31.5 12.5t-12.5 31.5t12.5 32t31.5 13q18 0 31.5 -13t13.5 -32z" />
    <glyph glyph-name="Zacute" unicode="&#x179;" horiz-adv-x="586" 
d="M567 212l-95 -243l-6 2q2 14 -5 21.5t-26 7.5h-411v4l445 667h-209q-61 0 -96 -39q-42 -46 -116 -156l-6 3l95 234l6 -2q-2 -15 5.5 -22.5t27.5 -7.5h376v-4l-445 -667h244q33 0 53.5 8.5t45.5 36.5q50 57 111 160zM272 731l-6 4q19 35 42 88.5t37 74.5q11 15 26 15
q13 0 21 -8.5t8 -19.5t-6 -20q-11 -16 -53.5 -55.5t-68.5 -78.5z" />
    <glyph glyph-name="zacute" unicode="&#x17a;" horiz-adv-x="446" 
d="M359 -21l-6 1q0 12 -9.5 16t-31.5 4h-280v4l299 478h-120q-34 0 -50.5 -6t-36.5 -26q-46 -46 -88 -113l-5 3l68 171l6 -1q0 -12 9.5 -16t31.5 -4h261v-4l-300 -478h135q41 0 60 8.5t46 37.5q21 22 79 105l5 -3zM193 542l-6 4q19 35 42 88.5t37 74.5q10 15 26 15
q12 0 20.5 -8t8.5 -20q0 -11 -6 -20q-11 -16 -53.5 -55.5t-68.5 -78.5z" />
    <glyph glyph-name="Zdotaccent" unicode="&#x17b;" horiz-adv-x="586" 
d="M567 212l-95 -243l-6 2q2 14 -5 21.5t-26 7.5h-411v4l445 667h-209q-61 0 -96 -39q-42 -46 -116 -156l-6 3l95 234l6 -2q-2 -15 5.5 -22.5t27.5 -7.5h376v-4l-445 -667h244q33 0 53.5 8.5t45.5 36.5q50 57 111 160zM327 755q-20 0 -34 13.5t-14 34.5t14 35t34 14
t34.5 -14t14.5 -35t-14 -34.5t-35 -13.5z" />
    <glyph glyph-name="zdotaccent" unicode="&#x17c;" horiz-adv-x="446" 
d="M359 -21l-6 1q0 12 -9.5 16t-31.5 4h-280v4l299 478h-120q-34 0 -50.5 -6t-36.5 -26q-46 -46 -88 -113l-5 3l68 171l6 -1q0 -12 9.5 -16t31.5 -4h261v-4l-300 -478h135q41 0 60 8.5t46 37.5q21 22 79 105l5 -3zM248 576q-20 0 -34 13.5t-14 34.5t14 35t34 14t34.5 -14
t14.5 -35t-14 -34.5t-35 -13.5z" />
    <glyph glyph-name="Zcaron" unicode="&#x17d;" horiz-adv-x="586" 
d="M567 212l-95 -243l-6 2q2 14 -5 21.5t-26 7.5h-411v4l445 667h-209q-61 0 -96 -39q-42 -46 -116 -156l-6 3l95 234l6 -2q-2 -15 5.5 -22.5t27.5 -7.5h376v-4l-445 -667h244q33 0 53.5 8.5t45.5 36.5q50 57 111 160zM327 732q-11 0 -18.5 7.5t-17.5 26.5q-7 12 -22 42.5
t-28.5 55.5t-27.5 46l6 4q16 -21 33 -39.5t42.5 -44l32.5 -32.5l32.5 32.5t42.5 44t33 39.5l6 -4q-14 -21 -27.5 -46t-28.5 -55.5t-22 -42.5q-10 -19 -17.5 -26.5t-18.5 -7.5z" />
    <glyph glyph-name="zcaron" unicode="&#x17e;" horiz-adv-x="446" 
d="M359 -21l-6 1q0 12 -9.5 16t-31.5 4h-280v4l299 478h-120q-34 0 -50.5 -6t-36.5 -26q-46 -46 -88 -113l-5 3l68 171l6 -1q0 -12 9.5 -16t31.5 -4h261v-4l-300 -478h135q41 0 60 8.5t46 37.5q21 22 79 105l5 -3zM248 543q-11 0 -18.5 7.5t-17.5 26.5q-7 12 -22 42.5
t-28.5 55.5t-27.5 46l6 4q16 -21 33 -39.5t42.5 -44l32.5 -32.5l32.5 32.5t42.5 44t33 39.5l6 -4q-14 -21 -27.5 -46t-28.5 -55.5t-22 -42.5q-10 -19 -17.5 -26.5t-18.5 -7.5z" />
    <glyph glyph-name="florin" unicode="&#x192;" horiz-adv-x="356" 
d="M338 326h-128v-269q0 -110 -51 -183q-35 -50 -88 -79.5t-100 -29.5q-30 0 -30 26q0 27 30 27q6 0 33 -2t37 -2q59 0 81 33t22 115v364h-97v9h97v72q0 110 51 183q35 50 88 79.5t100 29.5q30 0 30 -26q0 -27 -30 -27q-6 0 -33 2t-37 2q-59 0 -81 -33t-22 -115v-167h128v-9
z" />
    <glyph glyph-name="uni01B5" unicode="&#x1b5;" horiz-adv-x="586" 
d="M567 212l-95 -243l-6 2q5 29 -32 29h-410v4l225 337h-139v10h146l213 320h-209q-61 0 -96 -39q-42 -46 -116 -156l-6 3l95 234l6 -2q-2 -15 5.5 -22.5t27.5 -7.5h376v-4l-217 -326h132v-10h-139l-221 -331h242q33 0 54.5 8.5t46.5 36.5q50 57 111 160z" />
    <glyph glyph-name="uni01B6" unicode="&#x1b6;" horiz-adv-x="446" 
d="M345 243h-91l-147 -235h135q39 0 57 8.5t49 37.5q25 23 79 105l5 -3l-73 -177l-6 1q0 12 -9.5 16t-31.5 4h-280v4l150 239h-87v9h92l144 230h-120q-32 0 -49 -6.5t-38 -25.5q-41 -38 -88 -113l-5 3l68 171l6 -1q0 -12 9.5 -16t31.5 -4h261v-4l-147 -234h85v-9z" />
    <glyph glyph-name="Aringacute" unicode="&#x1fa;" horiz-adv-x="638" 
d="M653 0h-21q-6 0 -32 1.5t-41 1.5q-18 0 -45 -1.5t-32 -1.5h-21v8q52 0 52 31q0 11 -7 25l-52 124h-322l-27 -68q-14 -38 -14 -59q0 -53 71 -53v-8h-12q-11 0 -41 1.5t-43 1.5q-7 0 -34.5 -1.5t-35.5 -1.5h-21v8q42 2 69 27.5t51 86.5l187 478l-34 81q9 0 21 -0.5t18 -0.5
t16.5 0.5t18.5 0.5l260 -621q22 -52 71 -52v-8zM288 589l-152 -391h314zM381 828q0 -36 -24 -61t-60 -25t-60 25t-24 61q0 28 13 50q20 36 42.5 88t35.5 72q10 15 26 15q12 0 20.5 -8.5t8.5 -19.5t-6 -20q-12 -18 -51 -53t-58 -57q23 19 53 19q36 0 60 -25t24 -61zM371 828
q0 31 -21 53.5t-53 22.5t-53 -22.5t-21 -53.5t21 -53.5t53 -22.5t53 22.5t21 53.5z" />
    <glyph glyph-name="aringacute" unicode="&#x1fb;" horiz-adv-x="500" 
d="M403 -8q-30 0 -45.5 19t-15.5 47q-78 -66 -158 -66q-63 0 -98.5 34t-35.5 93q0 107 163 172l129 52v78q0 39 -10 54t-41 15q-50 0 -88 -26t-78 -75q-14 -17 -29 -17q-10 0 -18 7.5t-8 18.5q0 30 70 65t152 35q63 0 89.5 -23.5t26.5 -67.5v-362q0 -35 24 -35q25 0 46 36
l5 -3q-27 -51 -80 -51zM193 3q34 0 75.5 18.5t73.5 46.5v18v248l-126 -52q-54 -22 -72 -61t-18 -100q0 -118 67 -118zM338 639q0 -36 -24 -61t-60 -25t-60 25t-24 61q0 28 13 50q20 36 42.5 88t35.5 72q11 15 26 15q13 0 21 -8t8 -20q0 -11 -6 -20q-12 -18 -51 -53t-58 -57
q23 19 53 19q36 0 60 -25t24 -61zM328 639q0 31 -21 53.5t-53 22.5t-53 -22.5t-21 -53.5t21 -53.5t53 -22.5t53 22.5t21 53.5z" />
    <glyph glyph-name="AEacute" unicode="&#x1fc;" horiz-adv-x="1001" 
d="M482 198v429l-315 -429h315zM879 -31l-6 2q2 14 -5 21.5t-26 7.5h-237q-15 0 -42 0.5t-47 0.5q-16 0 -38 -0.5t-32 -0.5h-16v8h1q33 0 42 8.5t9 40.5v131h-323l-52 -71q-30 -40 -30 -67q0 -20 12.5 -31t48.5 -11h2v-8h-12q-12 0 -42 1.5t-44 1.5q-8 0 -36.5 -1.5
t-37.5 -1.5h-23v8h2q69 4 151 114l365 496q13 17 13 33q0 22 -41 22h-5v8h16q10 0 32 -0.5t38 -0.5q20 0 47 0.5t42 0.5h224q20 0 27.5 7.5t5.5 22.5l6 2l92 -226l-6 -3q-78 109 -113 148t-96 39h-195v-320h128q55 0 73 31t25 101h7v-277h-7q-4 35 -8 55t-14 41t-28.5 30
t-47.5 9h-128v-331h206q33 0 54.5 8.5t46.5 36.5q50 57 111 160l6 -3zM557 733l-6 4q19 35 42 88.5t37 74.5q10 15 26 15q12 0 20.5 -8.5t8.5 -19.5t-6 -20q-11 -16 -53.5 -55.5t-68.5 -78.5z" />
    <glyph glyph-name="aeacute" unicode="&#x1fd;" horiz-adv-x="770" 
d="M544 -8q-102 0 -164 99q-78 -99 -181 -99q-61 0 -105 39t-44 118q0 82 65 129t157 47h70v94q0 40 -9.5 55.5t-41.5 15.5q-51 0 -87 -25.5t-79 -75.5q-14 -17 -29 -17q-10 0 -18 7.5t-8 18.5q0 30 70 65t152 35q55 0 78 -17.5t29 -58.5q58 76 150 76q70 0 125 -49.5
t51 -132.5h-314q-1 -15 -1 -45q0 -109 43.5 -183t115.5 -74q106 0 149 126l6 -2q-47 -146 -180 -146zM204 2q95 0 171 96q-33 64 -33 168v50h-68q-83 0 -115.5 -39.5t-32.5 -125.5q0 -149 78 -149zM545 490q-54 0 -89 -43t-44 -122h245q-4 165 -112 165zM345 542l-6 4
q19 35 42 88.5t37 74.5q10 15 26 15q12 0 20.5 -8t8.5 -20q0 -11 -6 -20q-11 -16 -53.5 -55.5t-68.5 -78.5z" />
    <glyph glyph-name="Oslashacute" unicode="&#x1fe;" horiz-adv-x="658" 
d="M329 -10q-99 0 -171 60l-64 -105l-8 5l64 106q-116 102 -116 285q0 151 83.5 250.5t211.5 99.5q99 0 171 -60l63 104l9 -5l-64 -105q116 -103 116 -284q0 -151 -83.5 -251t-211.5 -100zM329 682q-215 0 -215 -341q0 -171 54 -257l316 521q-53 77 -155 77zM329 -1
q215 0 215 342q0 170 -54 255l-317 -521q57 -76 156 -76zM292 733l-6 4q19 35 42 88.5t37 74.5q11 15 26 15q13 0 21 -8.5t8 -19.5t-6 -20q-11 -16 -53.5 -55.5t-68.5 -78.5z" />
    <glyph glyph-name="oslashacute" unicode="&#x1ff;" horiz-adv-x="512" 
d="M256 -8q-67 0 -122 44l-53 -86l-7 5l53 87q-85 74 -85 203q0 106 63 179.5t151 73.5q66 0 122 -45l53 88l8 -5l-54 -88q85 -78 85 -203q0 -106 -63 -179.5t-151 -73.5zM256 0q69 0 103.5 51.5t34.5 193.5q0 115 -26 175l-220 -360q32 -60 108 -60zM256 490
q-69 0 -103.5 -51.5t-34.5 -193.5q0 -116 26 -176l219 361q-31 60 -107 60zM202 542l-6 4q19 35 42 88.5t37 74.5q11 15 26 15q13 0 21 -8t8 -20q0 -11 -6 -20q-11 -16 -53.5 -55.5t-68.5 -78.5z" />
    <glyph glyph-name="Scommaaccent" unicode="&#x218;" horiz-adv-x="554" 
d="M516 188q0 -63 -32.5 -109.5t-78 -67.5t-94.5 -21q-44 0 -100 15.5t-63 15.5q-36 0 -33 -33l-6 -2l-81 230l6 3q32 -60 67.5 -104t62.5 -65.5t58.5 -34t48.5 -14.5t39 -2q68 0 114.5 41t46.5 99q0 108 -165 170l-81 30q-71 26 -118.5 73t-47.5 114q0 75 54 120t135 45
q28 0 72 -9.5t55 -9.5q37 0 33 33l6 2l87 -206l-6 -3q-66 108 -125 146t-122 38q-71 0 -110.5 -35t-39.5 -87q0 -53 36.5 -87.5t118.5 -64.5l83 -31q180 -66 180 -189zM308 -155q-19 0 -31 12.5t-12 30.5t12.5 31t32.5 13q21 0 35.5 -16.5t14.5 -40.5q0 -48 -25.5 -78
t-56.5 -37l-1 6q28 7 50 32.5t22 62.5q0 4 -1 11q-13 -27 -40 -27z" />
    <glyph glyph-name="scommaaccent" unicode="&#x219;" horiz-adv-x="451" 
d="M245 -8q-27 0 -67 10t-58 10q-11 0 -18.5 -5.5t-5.5 -14.5l-6 -2l-50 172l6 2q77 -164 200 -164q60 0 91.5 29t31.5 73q0 69 -112 112l-81 31q-107 41 -107 133q0 53 34.5 86.5t95.5 33.5q26 0 60.5 -8.5t48.5 -8.5q13 0 20 5t5 15l6 2l50 -168l-6 -2q-72 157 -184 157
q-51 0 -76 -23t-25 -54q0 -33 24.5 -57.5t83.5 -47.5l80 -31q60 -24 88.5 -56t28.5 -79q0 -70 -45 -110t-113 -40zM242 -155q-19 0 -31 12.5t-12 30.5t12.5 31t32.5 13q21 0 35.5 -16.5t14.5 -40.5q0 -48 -25.5 -78t-56.5 -37l-1 6q28 7 50 32.5t22 62.5q0 4 -1 11
q-13 -27 -40 -27z" />
    <glyph glyph-name="uni021A" unicode="&#x21a;" horiz-adv-x="640" 
d="M406 8v-8h-16q-10 0 -32 1.5t-38 1.5t-38 -1.5t-32 -1.5h-16v8h1q33 0 42 8.5t9 40.5v614h-88q-30 0 -43.5 -6t-33.5 -30q-34 -42 -106 -179l-6 3l76 253l6 -1q0 -30 36 -30h110q7 0 34.5 -0.5t48.5 -0.5t48.5 0.5t34.5 0.5h110q36 0 36 30l6 1l76 -253l-6 -3
q-72 137 -106 179q-20 24 -33.5 30t-43.5 6h-88v-614q0 -32 9 -40.5t42 -8.5h1zM317 -155q-19 0 -31 12.5t-12 30.5t12.5 31t32.5 13q21 0 35.5 -16.5t14.5 -40.5q0 -48 -25.5 -78t-56.5 -37l-1 6q28 7 50 32.5t22 62.5q0 4 -1 11q-13 -27 -40 -27z" />
    <glyph glyph-name="uni021B" unicode="&#x21b;" horiz-adv-x="279" 
d="M164 -8q-76 0 -76 83v406h-68v9h68v79q27 0 43.5 17.5t16.5 42.5v1h6v-140h101v-9h-101v-417q0 -52 37 -52q15 0 32 14t29 35l6 -3q-13 -27 -38 -46.5t-56 -19.5zM144 -155q-19 0 -31 12.5t-12 30.5t12.5 31t32.5 13q21 0 35.5 -16.5t14.5 -40.5q0 -48 -25.5 -78
t-56.5 -37l-1 6q28 7 50 32.5t22 62.5q0 4 -1 11q-13 -27 -40 -27z" />
    <glyph glyph-name="dotlessj" unicode="&#x237;" horiz-adv-x="241" 
d="M164 498v-459q0 -106 -46 -184q-56 -91 -142 -91q-13 0 -22 7t-9 19q0 26 29 26q12 0 36.5 -5t33.5 -5q54 0 54 85v508q0 32 -9.5 40.5t-44.5 8.5h-1v7h6q33 0 68 13t41 30h6z" />
    <glyph glyph-name="circumflex" unicode="&#x2c6;" horiz-adv-x="326" 
d="M277 546l-6 -4q-16 21 -33 39.5t-42.5 44l-32.5 32.5l-32.5 -32.5t-42.5 -44t-33 -39.5l-6 4q14 21 27.5 46t28.5 55.5t22 42.5q10 19 17.5 26.5t18.5 7.5t18.5 -7.5t17.5 -26.5q7 -12 22 -42.5t28.5 -55.5t27.5 -46z" />
    <glyph glyph-name="caron" unicode="&#x2c7;" horiz-adv-x="326" 
d="M163 543q-11 0 -18.5 7.5t-17.5 26.5q-7 12 -22 42.5t-28.5 55.5t-27.5 46l6 4q16 -21 33 -39.5t42.5 -44l32.5 -32.5l32.5 32.5t42.5 44t33 39.5l6 -4q-14 -21 -27.5 -46t-28.5 -55.5t-22 -42.5q-10 -19 -17.5 -26.5t-18.5 -7.5z" />
    <glyph glyph-name="breve" unicode="&#x2d8;" horiz-adv-x="388" 
d="M194 569q-46 0 -79 35t-50 80l6 3q34 -67 123 -67t123 67l6 -3q-17 -45 -50 -80t-79 -35z" />
    <glyph glyph-name="dotaccent" unicode="&#x2d9;" horiz-adv-x="197" 
d="M98 576q-20 0 -34 13.5t-14 34.5t14 35t34 14t34.5 -14t14.5 -35t-14 -34.5t-35 -13.5z" />
    <glyph glyph-name="ring" unicode="&#x2da;" horiz-adv-x="267" 
d="M217 639q0 -36 -24 -61t-60 -25t-60 25t-24 61t24 61t60 25t60 -25t24 -61zM207 639q0 31 -21 53.5t-53 22.5t-53 -22.5t-21 -53.5t21 -53.5t53 -22.5t53 22.5t21 53.5z" />
    <glyph glyph-name="ogonek" unicode="&#x2db;" horiz-adv-x="298" 
d="M181 0h13q-86 -41 -86 -94q0 -27 17.5 -43.5t44.5 -16.5q41 0 73 40l6 -4q-18 -25 -49 -42.5t-65 -17.5q-39 0 -62 18.5t-23 48.5q0 32 42.5 62t88.5 49z" />
    <glyph glyph-name="tilde" unicode="&#x2dc;" horiz-adv-x="402" 
d="M241 588q-21 0 -55 21.5t-61 21.5q-11 0 -23.5 -11t-18 -18.5t-17.5 -26.5l-6 4q2 3 13 21t17.5 26.5t18 21.5t24.5 18.5t28 5.5q21 0 55 -21.5t61 -21.5q11 0 23.5 11t18 18.5t17.5 26.5l6 -4q-35 -59 -58 -77q-21 -16 -43 -16z" />
    <glyph glyph-name="hungarumlaut" unicode="&#x2dd;" horiz-adv-x="335" 
d="M55 544l-6 4q19 38 35.5 89t26.5 70q9 17 26 17q12 0 20 -7.5t8 -18.5q0 -7 -5 -19q-9 -18 -46 -58t-59 -77zM175 544l-6 4q19 38 35.5 89t26.5 70q9 17 26 17q12 0 20 -7.5t8 -18.5q0 -7 -5 -19q-9 -18 -46 -58t-59 -77z" />
    <glyph glyph-name="pi" unicode="&#x3c0;" horiz-adv-x="557" 
d="M514 0h-14q-12 0 -34 1.5t-40 1.5t-40 -1.5t-34 -1.5h-14v7h1q35 0 44.5 9t9.5 41v424h-229v-424q0 -32 9.5 -41t44.5 -9h1v-7h-14q-11 0 -34 1.5t-40 1.5t-40 -1.5t-34 -1.5h-14v7h1q35 0 44.5 9t9.5 41v376q0 32 -9.5 41t-44.5 9h-1v7h14q11 0 33.5 -0.5t40.5 -0.5
q17 0 45 0.5t39 0.5h127q12 0 39 -0.5t45 -0.5t40 0.5t34 0.5h14v-7h-1q-35 0 -44.5 -9t-9.5 -41v-376q0 -32 9.5 -41t44.5 -9h1v-7z" />
    <glyph glyph-name="Wgrave" unicode="&#x1e80;" horiz-adv-x="976" 
d="M723 83l28 -83q-9 0 -20 0.5t-17 0.5t-15 -0.5t-20 -0.5l-191 554l-151 -474l29 -80q-9 0 -19.5 0.5t-17.5 0.5q-6 0 -15.5 -0.5t-20.5 -0.5l-231 622q-20 51 -69 51v8h21q6 0 31 -1.5t41 -1.5q18 0 45 1.5t32 1.5h21v-8q-53 0 -53 -30q0 -9 5 -24l195 -524l151 476
l-18 52q-11 29 -27 39.5t-42 10.5v8h21q6 0 33 -1.5t43 -1.5q18 0 42 1.5t30 1.5h21v-8q-53 0 -53 -30q0 -9 5 -24l180 -519l146 461q14 38 14 59q0 53 -71 53v8h12q11 0 41 -1.5t43 -1.5q7 0 34.5 1.5t35.5 1.5h21v-8q-86 -5 -120 -114zM546 735l-6 -4q-26 38 -68.5 77.5
t-53.5 56.5q-6 9 -6 20t8 19.5t21 8.5q15 0 26 -15q14 -21 37 -74.5t42 -88.5z" />
    <glyph glyph-name="wgrave" unicode="&#x1e81;" horiz-adv-x="752" 
d="M557 75l28 -75q-10 0 -20.5 0.5t-15.5 0.5q-6 0 -17 -0.5t-19 -0.5l-139 370l-105 -295l28 -75q-10 0 -20 0.5t-15 0.5q-6 0 -17.5 -0.5t-19.5 -0.5l-163 433q-11 30 -25.5 40t-42.5 10v7h23q6 0 27.5 -1.5t40.5 -1.5t40.5 1.5t26.5 1.5h24v-7q-50 0 -50 -24q0 -6 3 -15
l135 -357l105 295l-19 51q-11 30 -25.5 40t-42.5 10v7h23q6 0 27 -1.5t40 -1.5t41 1.5t27 1.5h24v-7q-50 0 -50 -24q0 -7 3 -15l135 -357l110 309q8 22 8 40q0 47 -66 47v7h10q12 0 35 -1.5t38 -1.5t37.5 1.5t30.5 1.5h17v-7q-41 -2 -63.5 -24.5t-38.5 -66.5zM433 546l-6 -4
q-26 38 -68.5 77.5t-53.5 56.5q-6 9 -6 20q0 12 8.5 20t20.5 8q16 0 26 -15q14 -21 37 -74.5t42 -88.5z" />
    <glyph glyph-name="Wacute" unicode="&#x1e82;" horiz-adv-x="976" 
d="M723 83l28 -83q-9 0 -20 0.5t-17 0.5t-15 -0.5t-20 -0.5l-191 554l-151 -474l29 -80q-9 0 -19.5 0.5t-17.5 0.5q-6 0 -15.5 -0.5t-20.5 -0.5l-231 622q-20 51 -69 51v8h21q6 0 31 -1.5t41 -1.5q18 0 45 1.5t32 1.5h21v-8q-53 0 -53 -30q0 -9 5 -24l195 -524l151 476
l-18 52q-11 29 -27 39.5t-42 10.5v8h21q6 0 33 -1.5t43 -1.5q18 0 42 1.5t30 1.5h21v-8q-53 0 -53 -30q0 -9 5 -24l180 -519l146 461q14 38 14 59q0 53 -71 53v8h12q11 0 41 -1.5t43 -1.5q7 0 34.5 1.5t35.5 1.5h21v-8q-86 -5 -120 -114zM430 731l-6 4q19 35 42 88.5
t37 74.5q11 15 26 15q13 0 21 -8.5t8 -19.5t-6 -20q-11 -16 -53.5 -55.5t-68.5 -78.5z" />
    <glyph glyph-name="wacute" unicode="&#x1e83;" horiz-adv-x="752" 
d="M557 75l28 -75q-10 0 -20.5 0.5t-15.5 0.5q-6 0 -17 -0.5t-19 -0.5l-139 370l-105 -295l28 -75q-10 0 -20 0.5t-15 0.5q-6 0 -17.5 -0.5t-19.5 -0.5l-163 433q-11 30 -25.5 40t-42.5 10v7h23q6 0 27.5 -1.5t40.5 -1.5t40.5 1.5t26.5 1.5h24v-7q-50 0 -50 -24q0 -6 3 -15
l135 -357l105 295l-19 51q-11 30 -25.5 40t-42.5 10v7h23q6 0 27 -1.5t40 -1.5t41 1.5t27 1.5h24v-7q-50 0 -50 -24q0 -7 3 -15l135 -357l110 309q8 22 8 40q0 47 -66 47v7h10q12 0 35 -1.5t38 -1.5t37.5 1.5t30.5 1.5h17v-7q-41 -2 -63.5 -24.5t-38.5 -66.5zM317 542l-6 4
q19 35 42 88.5t37 74.5q10 15 26 15q12 0 20.5 -8t8.5 -20q0 -11 -6 -20q-11 -16 -53.5 -55.5t-68.5 -78.5z" />
    <glyph glyph-name="Wdieresis" unicode="&#x1e84;" horiz-adv-x="976" 
d="M723 83l28 -83q-9 0 -20 0.5t-17 0.5t-15 -0.5t-20 -0.5l-191 554l-151 -474l29 -80q-9 0 -19.5 0.5t-17.5 0.5q-6 0 -15.5 -0.5t-20.5 -0.5l-231 622q-20 51 -69 51v8h21q6 0 31 -1.5t41 -1.5q18 0 45 1.5t32 1.5h21v-8q-53 0 -53 -30q0 -9 5 -24l195 -524l151 476
l-18 52q-11 29 -27 39.5t-42 10.5v8h21q6 0 33 -1.5t43 -1.5q18 0 42 1.5t30 1.5h21v-8q-53 0 -53 -30q0 -9 5 -24l180 -519l146 461q14 38 14 59q0 53 -71 53v8h12q11 0 41 -1.5t43 -1.5q7 0 34.5 1.5t35.5 1.5h21v-8q-86 -5 -120 -114zM436 807q0 -19 -13 -31.5t-32 -12.5
q-18 0 -31 12.5t-13 31.5t13 32t31 13q19 0 32 -13t13 -32zM625 807q0 -18 -13.5 -31t-31.5 -13q-19 0 -31.5 12.5t-12.5 31.5t12.5 32t31.5 13q18 0 31.5 -13t13.5 -32z" />
    <glyph glyph-name="wdieresis" unicode="&#x1e85;" horiz-adv-x="752" 
d="M557 75l28 -75q-10 0 -20.5 0.5t-15.5 0.5q-6 0 -17 -0.5t-19 -0.5l-139 370l-105 -295l28 -75q-10 0 -20 0.5t-15 0.5q-6 0 -17.5 -0.5t-19.5 -0.5l-163 433q-11 30 -25.5 40t-42.5 10v7h23q6 0 27.5 -1.5t40.5 -1.5t40.5 1.5t26.5 1.5h24v-7q-50 0 -50 -24q0 -6 3 -15
l135 -357l105 295l-19 51q-11 30 -25.5 40t-42.5 10v7h23q6 0 27 -1.5t40 -1.5t41 1.5t27 1.5h24v-7q-50 0 -50 -24q0 -7 3 -15l135 -357l110 309q8 22 8 40q0 47 -66 47v7h10q12 0 35 -1.5t38 -1.5t37.5 1.5t30.5 1.5h17v-7q-41 -2 -63.5 -24.5t-38.5 -66.5zM323 628
q0 -19 -13 -31.5t-32 -12.5q-18 0 -31 12.5t-13 31.5t13 32t31 13q19 0 32 -13t13 -32zM512 628q0 -18 -13.5 -31t-31.5 -13q-19 0 -31.5 12.5t-12.5 31.5t12.5 32t31.5 13q18 0 31.5 -13t13.5 -32z" />
    <glyph glyph-name="uni1E8A" unicode="&#x1e8a;" horiz-adv-x="632" 
d="M627 0h-39q-4 0 -26.5 1.5t-40.5 1.5q-17 0 -42 -1.5t-31 -1.5h-39v8q56 0 56 27q0 13 -11 30l-155 249l-142 -197q-29 -40 -29 -66q0 -20 12.5 -31.5t47.5 -11.5h1v-8h-13q-11 0 -40 1.5t-41 1.5q-6 0 -34.5 -1.5t-36.5 -1.5h-19v8h1q41 0 71.5 28t71.5 87l144 200
l-186 298q-33 52 -90 52v8h39q4 0 27 -1.5t41 -1.5t43 1.5t30 1.5h39v-8q-56 0 -56 -27q0 -13 11 -30l149 -240l126 188q29 40 29 66q0 20 -12.5 31.5t-47.5 11.5h-1v8h13q11 0 40 -1.5t41 -1.5q6 0 34.5 1.5t36.5 1.5h19v-8h-1q-42 -1 -73.5 -29.5t-69.5 -85.5l-128 -191
l191 -307q33 -52 90 -52v-8zM340 757q-20 0 -34 13.5t-14 34.5t14 35t34 14t34.5 -14t14.5 -35t-14 -34.5t-35 -13.5z" />
    <glyph glyph-name="uni1E8B" unicode="&#x1e8b;" horiz-adv-x="485" 
d="M480 0h-26q-6 0 -28 1.5t-41 1.5t-40 -1.5t-26 -1.5h-24v7q47 0 47 22q0 8 -6 17l-114 175l-92 -135q-16 -24 -16 -42q0 -19 11 -28t44 -9h1v-7h-10q-12 0 -35 1.5t-37 1.5q-15 0 -36.5 -1.5t-29.5 -1.5h-17v7h1q32 0 59 20t57 63l94 138l-126 196q-19 30 -37 44.5
t-42 14.5v7h26q6 0 28 -1.5t41 -1.5t40 1.5t26 1.5h24v-7q-47 0 -47 -22q0 -8 6 -17l107 -165l82 125q16 24 16 42q0 19 -11 28t-44 9h-1v7h10q12 0 35 -1.5t37 -1.5q15 0 36.5 1.5t29.5 1.5h17v-7h-1q-62 0 -116 -83l-84 -128l133 -206q19 -30 37 -44.5t42 -14.5v-7z
M243 576q-20 0 -34 13.5t-14 34.5t14 35t34 14t34.5 -14t14.5 -35t-14 -34.5t-35 -13.5z" />
    <glyph glyph-name="Ygrave" unicode="&#x1ef2;" horiz-adv-x="593" 
d="M339 327v-270q0 -32 9 -40.5t42 -8.5h1v-8h-16q-11 0 -32 1.5t-38 1.5t-38 -1.5t-32 -1.5h-16v8h1q33 0 42 8.5t9 40.5v253l-202 313q-18 27 -36 38.5t-45 11.5v8h29q6 0 28.5 -1.5t40.5 -1.5t42 1.5t30 1.5h34v-8q-29 0 -40 -5.5t-11 -19.5q0 -13 10 -29l183 -282
l139 227q26 43 26 63q0 46 -64 46h-1v8h13q11 0 39.5 -1.5t41.5 -1.5q6 0 34.5 1.5t36.5 1.5h19v-8h-1q-41 0 -71 -29t-66 -88zM374 735l-6 -4q-26 38 -68.5 77.5t-53.5 56.5q-6 9 -6 20t8 19.5t21 8.5q15 0 26 -15q14 -21 37 -74.5t42 -88.5z" />
    <glyph glyph-name="ygrave" unicode="&#x1ef3;" horiz-adv-x="465" 
d="M269 75l28 -75q-9 0 -20 0.5t-16 0.5q-3 0 -11.5 -0.5t-14.5 -0.5l-20 -45q-49 -109 -82 -150t-95 -41q-41 0 -41 27q0 12 8 18.5t20 6.5t37 -6.5t35 -6.5q26 0 49 33t61 122l19 42l-164 434q-11 29 -25.5 39t-42.5 10v7h23q6 0 27.5 -1.5t40.5 -1.5t40.5 1.5t26.5 1.5
h24v-7q-50 0 -50 -24q0 -6 3 -15l135 -357l110 309q8 21 8 40q0 47 -66 47v7h10q12 0 35 -1.5t37 -1.5q15 0 38 1.5t31 1.5h17v-7q-41 -2 -63.5 -25t-38.5 -66zM303 546l-6 -4q-26 38 -68.5 77.5t-53.5 56.5q-6 9 -6 20q0 12 8.5 20t20.5 8q16 0 26 -15q14 -21 37 -74.5
t42 -88.5z" />
    <glyph glyph-name="endash" unicode="&#x2013;" horiz-adv-x="512" 
d="M467 276h-422v10h422v-10z" />
    <glyph glyph-name="emdash" unicode="&#x2014;" horiz-adv-x="988" 
d="M943 276h-898v10h898v-10z" />
    <glyph glyph-name="quoteleft" unicode="&#x2018;" horiz-adv-x="192" 
d="M101 597q20 0 33 -13t13 -33q0 -19 -14 -33t-35 -14q-22 0 -37.5 17.5t-15.5 43.5q0 52 27.5 84.5t60.5 39.5l2 -7q-30 -7 -55 -36t-25 -69q0 -6 1 -9q14 29 45 29z" />
    <glyph glyph-name="quoteright" unicode="&#x2019;" horiz-adv-x="192" 
d="M91 596q-20 0 -33 13t-13 33q0 19 14 33t35 14q22 0 37.5 -17.5t15.5 -43.5q0 -52 -27.5 -84.5t-60.5 -39.5l-2 7q30 7 55 36t25 69q0 6 -1 9q-14 -29 -45 -29z" />
    <glyph glyph-name="quotesinglbase" unicode="&#x201a;" horiz-adv-x="192" 
d="M91 -9q-20 0 -33 13t-13 33q0 19 14 33t35 14q22 0 37.5 -17.5t15.5 -43.5q0 -52 -27.5 -84.5t-60.5 -39.5l-2 7q30 7 55 36t25 69q0 6 -1 9q-14 -29 -45 -29z" />
    <glyph glyph-name="quotedblleft" unicode="&#x201c;" horiz-adv-x="329" 
d="M238 597q20 0 33 -13t13 -33q0 -19 -14 -33t-35 -14q-22 0 -37.5 17.5t-15.5 43.5q0 52 27.5 84.5t60.5 39.5l2 -7q-30 -7 -55 -36t-25 -69q0 -6 1 -9q14 29 45 29zM101 597q20 0 33 -13t13 -33q0 -19 -14 -33t-35 -14q-22 0 -37.5 17.5t-15.5 43.5q0 52 27.5 84.5
t60.5 39.5l2 -7q-30 -7 -55 -36t-25 -69q0 -6 1 -9q14 29 45 29z" />
    <glyph glyph-name="quotedblright" unicode="&#x201d;" horiz-adv-x="329" 
d="M91 596q-20 0 -33 13t-13 33q0 19 14 33t35 14q22 0 37.5 -17.5t15.5 -43.5q0 -52 -27.5 -84.5t-60.5 -39.5l-2 7q30 7 55 36t25 69q0 6 -1 9q-14 -29 -45 -29zM228 596q-20 0 -33 13t-13 33q0 19 14 33t35 14q22 0 37.5 -17.5t15.5 -43.5q0 -52 -27.5 -84.5t-60.5 -39.5
l-2 7q30 7 55 36t25 69q0 6 -1 9q-14 -29 -45 -29z" />
    <glyph glyph-name="quotedblbase" unicode="&#x201e;" horiz-adv-x="329" 
d="M91 -9q-20 0 -33 13t-13 33q0 19 14 33t35 14q22 0 37.5 -17.5t15.5 -43.5q0 -52 -27.5 -84.5t-60.5 -39.5l-2 7q30 7 55 36t25 69q0 6 -1 9q-14 -29 -45 -29zM228 -9q-20 0 -33 13t-13 33q0 19 14 33t35 14q22 0 37.5 -17.5t15.5 -43.5q0 -52 -27.5 -84.5t-60.5 -39.5
l-2 7q30 7 55 36t25 69q0 6 -1 9q-14 -29 -45 -29z" />
    <glyph glyph-name="dagger" unicode="&#x2020;" horiz-adv-x="432" 
d="M220 -10h-8q0 239 -25 407q5 11 14 46.5t11 52.5q-19 0 -65 -12.5t-61 -12.5q-36 0 -36 30q0 33 36 33q15 0 61 -15t65 -15q-3 56 -17.5 103t-14.5 58q0 18 10.5 29t25.5 11t25.5 -11t10.5 -29q0 -11 -14.5 -58t-17.5 -103q19 0 65 15t61 15q36 0 36 -33q0 -30 -36 -30
q-15 0 -61 12.5t-65 12.5q2 -17 11 -52.5t14 -46.5q-25 -168 -25 -407z" />
    <glyph glyph-name="daggerdbl" unicode="&#x2021;" horiz-adv-x="432" 
d="M220 360h-8q0 49 -19 87q1 4 5.5 19.5t9 32t5.5 27.5q-20 0 -66 -12.5t-61 -12.5q-36 0 -36 30q0 33 36 33q15 0 61 -15t66 -15q-3 55 -18 87.5t-15 43.5q0 18 10.5 29t25.5 11t25.5 -11t10.5 -29q0 -11 -15 -43.5t-18 -87.5q20 0 66 15t61 15q36 0 36 -33q0 -30 -36 -30
q-15 0 -61 12.5t-66 12.5q1 -11 5.5 -27.5t9 -32t5.5 -19.5q0 -1 -5.5 -12.5t-9.5 -29.5t-4 -45zM212 337h8q0 -20 2.5 -37t5.5 -25t6.5 -15.5t4.5 -9.5q-1 -4 -5.5 -20t-8.5 -32t-5 -27q19 0 65 12.5t61 12.5q36 0 36 -30q0 -33 -36 -33q-15 0 -61 15t-65 15
q3 -55 17.5 -87.5t14.5 -43.5q0 -18 -10.5 -29t-25.5 -11t-25.5 11t-10.5 29q0 11 14.5 43.5t17.5 87.5q-19 0 -65 -15t-61 -15q-36 0 -36 33q0 30 36 30q15 0 61 -12.5t65 -12.5q-1 11 -5 27t-8.5 32t-5.5 20q19 34 19 87z" />
    <glyph glyph-name="bullet" unicode="&#x2022;" horiz-adv-x="338" 
d="M169 265q-36 0 -60.5 24t-24.5 61q0 38 24.5 62t60.5 24t60.5 -24t24.5 -62q0 -37 -24.5 -61t-60.5 -24z" />
    <glyph glyph-name="ellipsis" unicode="&#x2026;" horiz-adv-x="642" 
d="M107 -8q-21 0 -36.5 15t-15.5 37t15.5 37t36.5 15t36.5 -15t15.5 -37t-15.5 -37t-36.5 -15zM321 -8q-21 0 -36.5 15t-15.5 37t15.5 37t36.5 15t36.5 -15t15.5 -37t-15.5 -37t-36.5 -15zM535 -8q-21 0 -36.5 15t-15.5 37t15.5 37t36.5 15t36.5 -15t15.5 -37t-15.5 -37
t-36.5 -15z" />
    <glyph glyph-name="perthousand" unicode="&#x2030;" horiz-adv-x="1047" 
d="M198 346q-64 0 -102.5 48.5t-38.5 122.5q0 73 38.5 122t102.5 49q48 0 83 -33q47 -46 103 -46q39 0 86 20.5t80 58.5l8 -5l-388 -692l-9 5l374 665q-26 -26 -67.5 -43.5t-83.5 -17.5t-80 25q26 -47 26 -108q0 -73 -34 -122t-98 -49zM198 355q58 0 90 46t32 116
q0 69 -32 115.5t-90 46.5q-25 0 -41.5 -12.5t-24.5 -36.5t-11 -50.5t-3 -62.5q0 -37 3 -63.5t11 -50t24.5 -36t41.5 -12.5zM518 -8q-64 0 -102.5 48.5t-38.5 122.5q0 73 38.5 122t102.5 49t98 -49t34 -122t-34 -122t-98 -49zM518 1q58 0 90 46t32 116q0 69 -32 115.5
t-90 46.5q-25 0 -41.5 -12.5t-24.5 -36.5t-11 -50.5t-3 -62.5q0 -37 3 -63.5t11 -50t24.5 -36t41.5 -12.5zM870 -8q-64 0 -102.5 48.5t-38.5 122.5q0 73 38.5 122t102.5 49t98 -49t34 -122t-34 -122t-98 -49zM870 1q58 0 90 46t32 116q0 69 -32 115.5t-90 46.5
q-25 0 -41.5 -12.5t-24.5 -36.5t-11 -50.5t-3 -62.5q0 -37 3 -63.5t11 -50t24.5 -36t41.5 -12.5z" />
    <glyph glyph-name="guilsinglleft" unicode="&#x2039;" horiz-adv-x="345" 
d="M276 74l-5 -5q-25 26 -79 71t-94.5 76.5t-47.5 36.5q7 5 47.5 36.5t94.5 76.5t79 71l5 -5q-64 -73 -134 -179q105 -144 134 -179z" />
    <glyph glyph-name="guilsinglright" unicode="&#x203a;" horiz-adv-x="345" 
d="M74 69l-5 5q63 73 134 179q-3 4 -28 39.5t-53.5 74.5t-52.5 65l5 5q25 -26 79 -71t94.5 -76.5t47.5 -36.5q-7 -5 -47.5 -36.5t-94.5 -76.5t-79 -71z" />
    <glyph glyph-name="fraction" unicode="&#x2044;" horiz-adv-x="58" 
d="M284 691l-503 -710l-8 6l503 710z" />
    <glyph glyph-name="uni2070" unicode="&#x2070;" 
d="M80 539q0 -143 65 -143t65 143t-65 143t-65 -143zM266 539q0 -64 -34 -107t-87 -43t-87 43t-34 107t34 107t87 43t87 -43t34 -107z" />
    <glyph glyph-name="uni2074" unicode="&#x2074;" 
d="M232 397h-11q-5 0 -20 1.5t-34 1.5t-34 -1.5t-20 -1.5h-22v7h11q24 0 31.5 9t7.5 41v19h-129v4l137 204q1 0 9 -0.5t12 -0.5q5 0 12 0.5t11 0.5v-200h3q33 0 65 66l5 -1l-16 -73h-57v-19q0 -32 7 -41t30 -9h2v-7zM141 481v174l-116 -174h116z" />
    <glyph glyph-name="uni2075" unicode="&#x2075;" 
d="M244 492q0 -44 -33 -73.5t-74 -29.5q-47 0 -77 19.5t-30 46.5q0 9 6 16t15 7q21 0 26 -25q8 -32 21.5 -44t38.5 -12q29 0 40 21.5t11 72.5q0 49 -10.5 67.5t-39.5 18.5q-52 0 -75 -41l-6 2l11 72l11 71h109q31 0 41 24l5 -1l-15 -67h-139l-12 -81q25 29 73 29
q45 0 74 -25.5t29 -67.5z" />
    <glyph glyph-name="uni2076" unicode="&#x2076;" 
d="M34 522q0 62 55 110.5t139 60.5l1 -7q-121 -18 -137 -126q25 33 65 33q41 0 70 -26t29 -69q0 -46 -35.5 -77.5t-72.5 -31.5q-41 0 -77.5 33t-36.5 100zM90 522q0 -70 14.5 -98t43.5 -28q52 0 52 101q0 49 -10 68.5t-35 19.5q-37 0 -64 -37q-1 -8 -1 -26z" />
    <glyph glyph-name="uni2077" unicode="&#x2077;" 
d="M123 389q-12 0 -20.5 8t-8.5 22q0 35 21 77.5t42.5 70t59.5 70.5h-132q-31 0 -43 -31l-6 1l21 98l6 -1q-1 -14 6 -18.5t24 -4.5h163v-4q-6 -8 -23 -30t-22 -28.5t-17 -25t-16 -28t-11.5 -28t-9.5 -34t-4.5 -37.5t-2.5 -47q0 -14 -7.5 -22t-19.5 -8z" />
    <glyph glyph-name="uni2078" unicode="&#x2078;" 
d="M149 389q-43 0 -75.5 21.5t-32.5 54.5q0 52 71 75q-20 8 -38 27t-18 47q0 32 27 53.5t68 21.5q37 0 63.5 -18.5t26.5 -47.5q0 -19 -14 -36.5t-41 -26.5q69 -28 69 -83q0 -38 -31 -63t-75 -25zM150 397q31 0 47 17t16 45q0 40 -53 61l-40 17q-33 -22 -33 -72q0 -68 63 -68
zM202 622q0 27 -14 43t-38 16q-29 0 -43.5 -13t-14.5 -33q0 -37 46 -55l40 -17q24 24 24 59z" />
    <glyph glyph-name="uni2079" unicode="&#x2079;" 
d="M256 556q0 -62 -55 -110.5t-139 -60.5l-1 7q121 18 137 126q-25 -33 -65 -33q-41 0 -70 26t-29 69q0 46 35.5 77.5t72.5 31.5q41 0 77.5 -33t36.5 -100zM200 556q0 72 -13.5 99t-44.5 27q-52 0 -52 -101q0 -49 10 -68.5t35 -19.5q37 0 64 37q1 8 1 26z" />
    <glyph glyph-name="parenleft.sups" unicode="&#x207d;" horiz-adv-x="177" 
d="M80 539q0 -51 16 -103.5t46 -77.5l-5 -6q-42 31 -72 81t-30 106t30 106t72 81l5 -6q-30 -25 -46 -77.5t-16 -103.5z" />
    <glyph glyph-name="parenright.sups" unicode="&#x207e;" horiz-adv-x="177" 
d="M97 539q0 51 -16 103.5t-46 77.5l5 6q42 -31 72 -81t30 -106t-30 -106t-72 -81l-5 6q30 25 46 77.5t16 103.5z" />
    <glyph glyph-name="uni2080" unicode="&#x2080;" 
d="M80 142q0 -143 65 -143t65 143t-65 143t-65 -143zM266 142q0 -64 -34 -107t-87 -43t-87 43t-34 107t34 107t87 43t87 -43t34 -107z" />
    <glyph glyph-name="uni2081" unicode="&#x2081;" 
d="M223 0h-7q-11 0 -29 1.5t-35 1.5t-35 -1.5t-29 -1.5h-22v7h18q26 0 34 9t8 41v141q0 22 -16 22q-4 0 -40 -17l-3 6l15 8q32 18 58.5 43t32.5 42h5v-245q0 -30 7 -40t30 -10h8v-7z" />
    <glyph glyph-name="uni2082" unicode="&#x2082;" 
d="M238 223q0 -17 -6 -33t-23.5 -35t-27 -29t-38.5 -34t-37 -31l-19 -17h156l-16 -76l-6 1q2 31 -27 31h-160v4l61 60q87 87 87 159q0 62 -36 62q-32 0 -48 -48q-9 -27 -27 -27q-21 0 -21 21t28 41t72 20q39 0 63.5 -17.5t24.5 -51.5z" />
    <glyph glyph-name="uni2083" unicode="&#x2083;" 
d="M254 84q0 -40 -33 -66t-74 -26q-50 0 -81 22.5t-31 53.5q0 9 6 16t15 7q21 0 26 -25q8 -38 22.5 -52t42.5 -14t39.5 19.5t11.5 62.5q0 73 -33 73q-7 0 -21 -6l-33 -16l-3 7l41 20q30 15 30 68q0 57 -36 57q-31 0 -47 -48q-9 -27 -27 -27q-21 0 -21 21q0 20 28 40.5
t70 20.5q39 0 63 -15.5t24 -44.5q0 -22 -19.5 -41t-48.5 -29q35 0 62 -21t27 -57z" />
    <glyph glyph-name="uni2084" unicode="&#x2084;" 
d="M232 0h-11q-5 0 -20 1.5t-34 1.5t-34 -1.5t-20 -1.5h-22v7h11q24 0 31.5 9t7.5 41v19h-129v4l137 204q1 0 9 -0.5t12 -0.5q5 0 12 0.5t11 0.5v-200h3q33 0 65 66l5 -1l-16 -73h-57v-19q0 -32 7 -41t30 -9h2v-7zM141 84v174l-116 -174h116z" />
    <glyph glyph-name="uni2085" unicode="&#x2085;" 
d="M244 95q0 -44 -33 -73.5t-74 -29.5q-47 0 -77 19.5t-30 46.5q0 9 6 16t15 7q21 0 26 -25q8 -32 21.5 -44t38.5 -12q29 0 40 21.5t11 72.5q0 49 -10.5 67.5t-39.5 18.5q-52 0 -75 -41l-6 2l11 72l11 71h109q31 0 41 24l5 -1l-15 -67h-139l-12 -81q25 29 73 29
q45 0 74 -25.5t29 -67.5z" />
    <glyph glyph-name="uni2086" unicode="&#x2086;" 
d="M34 125q0 62 55 110.5t139 60.5l1 -7q-121 -18 -137 -126q25 33 65 33q41 0 70 -26t29 -69q0 -46 -35.5 -77.5t-72.5 -31.5q-41 0 -77.5 33t-36.5 100zM90 125q0 -70 14.5 -98t43.5 -28q52 0 52 101q0 49 -10 68.5t-35 19.5q-37 0 -64 -37q-1 -8 -1 -26z" />
    <glyph glyph-name="uni2087" unicode="&#x2087;" 
d="M123 -8q-12 0 -20.5 8t-8.5 22q0 35 21 77.5t42.5 70t59.5 70.5h-132q-31 0 -43 -31l-6 1l21 98l6 -1q-1 -14 6 -18.5t24 -4.5h163v-4q-6 -8 -23 -30t-22 -28.5t-17 -25t-16 -28t-11.5 -28t-9.5 -34t-4.5 -37.5t-2.5 -47q0 -14 -7.5 -22t-19.5 -8z" />
    <glyph glyph-name="uni2088" unicode="&#x2088;" 
d="M149 -8q-43 0 -75.5 21.5t-32.5 54.5q0 52 71 75q-20 8 -38 27t-18 47q0 32 27 53.5t68 21.5q37 0 63.5 -18.5t26.5 -47.5q0 -19 -14 -36.5t-41 -26.5q69 -28 69 -83q0 -38 -31 -63t-75 -25zM150 0q31 0 47 17t16 45q0 40 -53 61l-40 17q-33 -22 -33 -72q0 -68 63 -68z
M202 225q0 27 -14 43t-38 16q-29 0 -43.5 -13t-14.5 -33q0 -37 46 -55l40 -17q24 24 24 59z" />
    <glyph glyph-name="uni2089" unicode="&#x2089;" 
d="M256 159q0 -62 -55 -110.5t-139 -60.5l-1 7q121 18 137 126q-25 -33 -65 -33q-41 0 -70 26t-29 69q0 46 35.5 77.5t72.5 31.5q41 0 77.5 -33t36.5 -100zM200 159q0 72 -13.5 99t-44.5 27q-52 0 -52 -101q0 -49 10 -68.5t35 -19.5q37 0 64 37q1 8 1 26z" />
    <glyph glyph-name="Euro" unicode="&#x20ac;" horiz-adv-x="630" 
d="M124 340q0 37 3 57h-102v10h103q17 124 84.5 204t175.5 80q63 0 127.5 -40.5t64.5 -92.5q0 -14 -9 -22.5t-22 -8.5q-17 0 -26 15q-7 11 -16 45q-14 51 -41.5 73t-77.5 22q-53 0 -88.5 -20.5t-54.5 -60.5t-27 -85.5t-10 -108.5h257v-10h-257v-114h257v-10h-257
q2 -64 10 -109t27 -85t54.5 -60t88.5 -20q50 0 77.5 21.5t41.5 72.5q9 34 16 45q9 15 26 15q13 0 22 -8.5t9 -22.5q0 -51 -64.5 -91.5t-127.5 -40.5q-108 0 -175.5 79.5t-84.5 203.5h-103v10h102q-3 19 -3 57z" />
    <glyph glyph-name="trademark" unicode="&#x2122;" horiz-adv-x="787" 
d="M717 394h-17q-6 0 -18 1t-20 1t-20.5 -1t-18.5 -1h-16v7h1q21 0 26.5 4t5.5 18v241l-93 -226l20 -44q-6 0 -13.5 0.5t-10.5 0.5q-2 0 -10 -0.5t-13 -0.5l-111 252v-204q0 -22 9.5 -31.5t37.5 -9.5h2v-7h-11q-3 0 -18 1t-24 1t-24 -1t-18 -1h-7v7h2q26 0 34 9.5t8 31.5
v197q0 17 -8 25.5t-32 9.5h-2v7q8 0 23.5 -0.5t20.5 -0.5q6 0 18.5 0.5t18.5 0.5l102 -234l97 234q2 0 12 -0.5t12 -0.5q8 0 20 0.5t18 0.5h17v-7h-2q-21 0 -26.5 -4t-5.5 -17v-230q0 -14 5.5 -18t26.5 -4h2v-7zM258 394h-8q-5 0 -22 1t-26 1q-8 0 -25 -1t-22 -1h-7v7h2
q21 0 26 4t5 18v250h-28q-22 0 -40 -19q-6 -6 -48 -65l-5 3l38 103l5 -1q0 -13 17 -13h48q1 0 13 -0.5t21 -0.5t21.5 0.5t13.5 0.5h48q17 0 17 13l5 1l38 -103l-5 -3q-9 12 -19.5 27t-17 23.5t-11.5 14.5q-19 19 -40 19h-28v-250q0 -14 5.5 -18t26.5 -4h2v-7z" />
    <glyph glyph-name="Omega" unicode="&#x2126;" horiz-adv-x="738" 
d="M670 390q0 -89 -63 -178.5t-174 -125.5v-76h56q37 0 58 10.5t48 43.5q29 37 101 143l6 -4l-80 -233l-6 1q0 29 -33 29h-160v93q43 19 76 55t51 78.5t27 84t9 79.5q0 59 -11 109t-35 92.5t-67.5 66.5t-103.5 24t-103.5 -24t-67.5 -66.5t-35 -92.5t-11 -109q0 -38 9 -79.5
t27 -84t51 -78.5t76 -55v-93h-160q-33 0 -33 -29l-6 -1l-80 233l6 4q72 -106 101 -143q27 -33 48 -43.5t58 -10.5h56v76q-111 36 -174 125.5t-63 178.5q0 123 87 212t214 89t214 -89t87 -212z" />
    <glyph glyph-name="uni2153" unicode="&#x2153;" horiz-adv-x="390" 
d="M44 346h302v-9h-302v9zM271 397h-7q-11 0 -29 1.5t-35 1.5t-35 -1.5t-29 -1.5h-22v7h18q26 0 34 9t8 41v141q0 22 -16 22q-4 0 -40 -17l-3 6l15 8q32 18 58.5 43t32.5 42h5v-245q0 -30 7 -40t30 -10h8v-7zM308 84q0 -40 -33 -66t-74 -26q-50 0 -81 22.5t-31 53.5
q0 9 6 16t15 7q21 0 26 -25q8 -38 22.5 -52t42.5 -14t39.5 19.5t11.5 62.5q0 73 -33 73q-7 0 -21 -6l-33 -16l-3 7l41 20q30 15 30 68q0 57 -36 57q-31 0 -47 -48q-9 -27 -27 -27q-21 0 -21 21q0 20 28 40.5t70 20.5q39 0 63 -15.5t24 -44.5q0 -22 -19.5 -41t-48.5 -29
q35 0 62 -21t27 -57z" />
    <glyph glyph-name="uni2154" unicode="&#x2154;" horiz-adv-x="390" 
d="M44 346h302v-9h-302v9zM308 84q0 -40 -33 -66t-74 -26q-50 0 -81 22.5t-31 53.5q0 9 6 16t15 7q21 0 26 -25q8 -38 22.5 -52t42.5 -14t39.5 19.5t11.5 62.5q0 73 -33 73q-7 0 -21 -6l-33 -16l-3 7l41 20q30 15 30 68q0 57 -36 57q-31 0 -47 -48q-9 -27 -27 -27
q-21 0 -21 21q0 20 28 40.5t70 20.5q39 0 63 -15.5t24 -44.5q0 -22 -19.5 -41t-48.5 -29q35 0 62 -21t27 -57zM297 620q0 -17 -6 -33t-23.5 -35t-27 -29t-38.5 -34t-37 -31l-19 -17h156l-16 -76l-6 1q2 31 -27 31h-160v4l61 60q87 87 87 159q0 62 -36 62q-31 0 -48 -48
q-9 -27 -27 -27q-21 0 -21 21t28 41t72 20q39 0 63.5 -17.5t24.5 -51.5z" />
    <glyph glyph-name="uni2155" unicode="&#x2155;" horiz-adv-x="390" 
d="M44 346h302v-9h-302v9zM271 397h-7q-11 0 -29 1.5t-35 1.5t-35 -1.5t-29 -1.5h-22v7h18q26 0 34 9t8 41v141q0 22 -16 22q-4 0 -40 -17l-3 6l15 8q32 18 58.5 43t32.5 42h5v-245q0 -30 7 -40t30 -10h8v-7zM288 95q0 -44 -33 -73.5t-74 -29.5q-47 0 -77 19.5t-30 46.5
q0 9 6 16t15 7q21 0 26 -25q8 -32 21.5 -44t38.5 -12q29 0 40 21.5t11 72.5q0 49 -10.5 67.5t-39.5 18.5q-52 0 -75 -41l-6 2l11 72l11 71h109q30 0 41 24l5 -1l-15 -67h-139l-12 -81q25 29 73 29q45 0 74 -25.5t29 -67.5z" />
    <glyph glyph-name="uni2156" unicode="&#x2156;" horiz-adv-x="390" 
d="M44 346h302v-9h-302v9zM297 620q0 -17 -6 -33t-23.5 -35t-27 -29t-38.5 -34t-37 -31l-19 -17h156l-16 -76l-6 1q2 31 -27 31h-160v4l61 60q87 87 87 159q0 62 -36 62q-31 0 -48 -48q-9 -27 -27 -27q-21 0 -21 21t28 41t72 20q39 0 63.5 -17.5t24.5 -51.5zM288 95
q0 -44 -33 -73.5t-74 -29.5q-47 0 -77 19.5t-30 46.5q0 9 6 16t15 7q21 0 26 -25q8 -32 21.5 -44t38.5 -12q29 0 40 21.5t11 72.5q0 49 -10.5 67.5t-39.5 18.5q-52 0 -75 -41l-6 2l11 72l11 71h109q30 0 41 24l5 -1l-15 -67h-139l-12 -81q25 29 73 29q45 0 74 -25.5
t29 -67.5z" />
    <glyph glyph-name="uni2157" unicode="&#x2157;" horiz-adv-x="390" 
d="M44 346h302v-9h-302v9zM288 95q0 -44 -33 -73.5t-74 -29.5q-47 0 -77 19.5t-30 46.5q0 9 6 16t15 7q21 0 26 -25q8 -32 21.5 -44t38.5 -12q29 0 40 21.5t11 72.5q0 49 -10.5 67.5t-39.5 18.5q-52 0 -75 -41l-6 2l11 72l11 71h109q30 0 41 24l5 -1l-15 -67h-139l-12 -81
q25 29 73 29q45 0 74 -25.5t29 -67.5zM308 481q0 -40 -33 -66t-74 -26q-50 0 -81 22.5t-31 53.5q0 9 6 16t15 7q21 0 26 -25q8 -38 22.5 -52t42.5 -14t39.5 19.5t11.5 62.5q0 73 -33 73q-7 0 -21 -6l-33 -16l-3 7l41 20q30 15 30 68q0 57 -36 57q-31 0 -47 -48
q-9 -27 -27 -27q-21 0 -21 21q0 20 28 40.5t70 20.5q39 0 63 -15.5t24 -44.5q0 -22 -19.5 -41t-48.5 -29q35 0 62 -21t27 -57z" />
    <glyph glyph-name="uni2158" unicode="&#x2158;" horiz-adv-x="390" 
d="M44 346h302v-9h-302v9zM288 95q0 -44 -33 -73.5t-74 -29.5q-47 0 -77 19.5t-30 46.5q0 9 6 16t15 7q21 0 26 -25q8 -32 21.5 -44t38.5 -12q29 0 40 21.5t11 72.5q0 49 -10.5 67.5t-39.5 18.5q-52 0 -75 -41l-6 2l11 72l11 71h109q30 0 41 24l5 -1l-15 -67h-139l-12 -81
q25 29 73 29q45 0 74 -25.5t29 -67.5zM286 397h-11q-5 0 -20 1.5t-34 1.5t-34 -1.5t-20 -1.5h-22v7h11q24 0 31.5 9t7.5 41v19h-129v4l137 204q1 0 9 -0.5t12 -0.5q5 0 12 0.5t11 0.5v-200h3q33 0 65 66l5 -1l-16 -73h-57v-19q0 -32 7 -41t30 -9h2v-7zM195 481v174
l-116 -174h116z" />
    <glyph glyph-name="uni2159" unicode="&#x2159;" horiz-adv-x="390" 
d="M44 346h302v-9h-302v9zM271 397h-7q-11 0 -29 1.5t-35 1.5t-35 -1.5t-29 -1.5h-22v7h18q26 0 34 9t8 41v141q0 22 -16 22q-4 0 -40 -17l-3 6l15 8q32 18 58.5 43t32.5 42h5v-245q0 -30 7 -40t30 -10h8v-7zM88 125q0 62 55 110.5t139 60.5l1 -7q-121 -18 -137 -126
q25 33 65 33q41 0 70 -26t29 -69q0 -46 -35.5 -77.5t-72.5 -31.5q-41 0 -77.5 33t-36.5 100zM144 125q0 -70 14.5 -98t43.5 -28q52 0 52 101q0 49 -10 68.5t-35 19.5q-37 0 -64 -37q-1 -8 -1 -26z" />
    <glyph glyph-name="uni215A" unicode="&#x215a;" horiz-adv-x="390" 
d="M44 346h302v-9h-302v9zM88 125q0 62 55 110.5t139 60.5l1 -7q-121 -18 -137 -126q25 33 65 33q41 0 70 -26t29 -69q0 -46 -35.5 -77.5t-72.5 -31.5q-41 0 -77.5 33t-36.5 100zM144 125q0 -70 14.5 -98t43.5 -28q52 0 52 101q0 49 -10 68.5t-35 19.5q-37 0 -64 -37
q-1 -8 -1 -26zM308 492q0 -44 -33 -73.5t-74 -29.5q-47 0 -77 19.5t-30 46.5q0 9 6 16t15 7q21 0 26 -25q8 -32 21.5 -44t38.5 -12q29 0 40 21.5t11 72.5q0 49 -10.5 67.5t-39.5 18.5q-52 0 -75 -41l-6 2l11 72l11 71h109q30 0 41 24l5 -1l-15 -67h-139l-12 -81q25 29 73 29
q45 0 74 -25.5t29 -67.5z" />
    <glyph glyph-name="uni215B" unicode="&#x215b;" horiz-adv-x="390" 
d="M44 346h302v-9h-302v9zM271 397h-7q-11 0 -29 1.5t-35 1.5t-35 -1.5t-29 -1.5h-22v7h18q26 0 34 9t8 41v141q0 22 -16 22q-4 0 -40 -17l-3 6l15 8q32 18 58.5 43t32.5 42h5v-245q0 -30 7 -40t30 -10h8v-7zM193 -8q-43 0 -75.5 21.5t-32.5 54.5q0 52 71 75q-20 8 -38 27
t-18 47q0 32 27 53.5t68 21.5q37 0 63.5 -18.5t26.5 -47.5q0 -19 -14 -36.5t-41 -26.5q69 -28 69 -83q0 -38 -31 -63t-75 -25zM194 0q31 0 47 17t16 45q0 40 -53 61l-40 17q-33 -22 -33 -72q0 -68 63 -68zM246 225q0 27 -14 43t-38 16q-29 0 -43.5 -13t-14.5 -33
q0 -37 46 -55l40 -17q24 24 24 59z" />
    <glyph glyph-name="uni215C" unicode="&#x215c;" horiz-adv-x="390" 
d="M44 346h302v-9h-302v9zM193 -8q-43 0 -75.5 21.5t-32.5 54.5q0 52 71 75q-20 8 -38 27t-18 47q0 32 27 53.5t68 21.5q37 0 63.5 -18.5t26.5 -47.5q0 -19 -14 -36.5t-41 -26.5q69 -28 69 -83q0 -38 -31 -63t-75 -25zM194 0q31 0 47 17t16 45q0 40 -53 61l-40 17
q-33 -22 -33 -72q0 -68 63 -68zM246 225q0 27 -14 43t-38 16q-29 0 -43.5 -13t-14.5 -33q0 -37 46 -55l40 -17q24 24 24 59zM308 481q0 -40 -33 -66t-74 -26q-50 0 -81 22.5t-31 53.5q0 9 6 16t15 7q21 0 26 -25q8 -38 22.5 -52t42.5 -14t39.5 19.5t11.5 62.5q0 73 -33 73
q-7 0 -21 -6l-33 -16l-3 7l41 20q30 15 30 68q0 57 -36 57q-31 0 -47 -48q-9 -27 -27 -27q-21 0 -21 21q0 20 28 40.5t70 20.5q39 0 63 -15.5t24 -44.5q0 -22 -19.5 -41t-48.5 -29q35 0 62 -21t27 -57z" />
    <glyph glyph-name="uni215D" unicode="&#x215d;" horiz-adv-x="390" 
d="M44 346h302v-9h-302v9zM193 -8q-43 0 -75.5 21.5t-32.5 54.5q0 52 71 75q-20 8 -38 27t-18 47q0 32 27 53.5t68 21.5q37 0 63.5 -18.5t26.5 -47.5q0 -19 -14 -36.5t-41 -26.5q69 -28 69 -83q0 -38 -31 -63t-75 -25zM194 0q31 0 47 17t16 45q0 40 -53 61l-40 17
q-33 -22 -33 -72q0 -68 63 -68zM246 225q0 27 -14 43t-38 16q-29 0 -43.5 -13t-14.5 -33q0 -37 46 -55l40 -17q24 24 24 59zM308 492q0 -44 -33 -73.5t-74 -29.5q-47 0 -77 19.5t-30 46.5q0 9 6 16t15 7q21 0 26 -25q8 -32 21.5 -44t38.5 -12q29 0 40 21.5t11 72.5
q0 49 -10.5 67.5t-39.5 18.5q-52 0 -75 -41l-6 2l11 72l11 71h109q30 0 41 24l5 -1l-15 -67h-139l-12 -81q25 29 73 29q45 0 74 -25.5t29 -67.5z" />
    <glyph glyph-name="uni215E" unicode="&#x215e;" horiz-adv-x="390" 
d="M44 346h302v-9h-302v9zM193 -8q-43 0 -75.5 21.5t-32.5 54.5q0 52 71 75q-20 8 -38 27t-18 47q0 32 27 53.5t68 21.5q37 0 63.5 -18.5t26.5 -47.5q0 -19 -14 -36.5t-41 -26.5q69 -28 69 -83q0 -38 -31 -63t-75 -25zM194 0q31 0 47 17t16 45q0 40 -53 61l-40 17
q-33 -22 -33 -72q0 -68 63 -68zM246 225q0 27 -14 43t-38 16q-29 0 -43.5 -13t-14.5 -33q0 -37 46 -55l40 -17q24 24 24 59zM193 389q-12 0 -20.5 8t-8.5 22q0 35 21 77.5t42.5 70t59.5 70.5h-132q-31 0 -43 -31l-6 1l21 98l6 -1q-1 -14 6 -18.5t24 -4.5h163v-4
q-6 -8 -23 -30t-22 -28.5t-17 -25t-16 -28t-11.5 -28t-9.5 -34t-4.5 -37.5t-2.5 -47q0 -14 -7.5 -22t-19.5 -8z" />
    <glyph glyph-name="partialdiff" unicode="&#x2202;" horiz-adv-x="513" 
d="M256 -8q-88 0 -151 73.5t-63 179.5t63 179.5t151 73.5q64 0 111 -41q-63 190 -263 229l2 8q156 -30 260.5 -142.5t104.5 -257.5q0 -83 -20 -144.5t-53 -94t-68.5 -48t-73.5 -15.5zM256 0q34 0 57 10.5t42.5 38.5t29 84t9.5 142q0 89 -21 165q-45 50 -117 50
q-69 0 -103.5 -52t-34.5 -193t34.5 -193t103.5 -52z" />
    <glyph glyph-name="Delta" unicode="&#x2206;" horiz-adv-x="630" 
d="M593 4v-4h-556v4l233 596l-34 81q9 0 21 -0.5t18 -0.5t16.5 0.5t18.5 0.5zM276 589l-226 -579h466z" />
    <glyph glyph-name="product" unicode="&#x220f;" horiz-adv-x="691" 
d="M647 0h-16q-11 0 -32 1.5t-38 1.5t-38 -1.5t-32 -1.5h-16v8h1q33 0 42 8.5t9 40.5v614h-363v-614q0 -32 9 -40.5t42 -8.5h1v-8h-16q-10 0 -32 1.5t-38 1.5t-38 -1.5t-32 -1.5h-16v8h1q33 0 42 8.5t9 40.5v567q0 32 -9 40.5t-42 8.5h-1v8h16q10 0 32 -0.5t38 -0.5t38 0.5
t32 0.5h291q11 0 32 -0.5t38 -0.5t38 0.5t32 0.5h16v-8h-1q-33 0 -42 -8.5t-9 -40.5v-567q0 -32 9 -40.5t42 -8.5h1v-8z" />
    <glyph glyph-name="summation" unicode="&#x2211;" horiz-adv-x="604" 
d="M539 -62l-6 1q5 37 -8.5 49t-48.5 12h-432v4l255 296l-189 327q-15 27 -28 36.5t-44 9.5h-3v8h17q12 0 28 -0.5t34 -0.5q21 0 40 0.5t34 0.5h248q19 0 26 7.5t7 22.5l6 1l92 -225l-6 -3q-69 99 -113 148q-35 39 -96 39h-187l188 -324l-242 -281h454z" />
    <glyph glyph-name="minus" unicode="&#x2212;" horiz-adv-x="490" 
d="M45 317v10h400v-10h-400z" />
    <glyph glyph-name="radical" unicode="&#x221a;" horiz-adv-x="514" 
d="M471 750l-263 -750h-8l-157 444l9 3l152 -430l258 736z" />
    <glyph glyph-name="infinity" unicode="&#x221e;" horiz-adv-x="752" 
d="M45 325q0 55 37.5 98t94.5 43q15 0 29.5 -3.5t25.5 -7.5t26 -14t23 -16t24 -21t22.5 -22t24.5 -26t24 -25q9 9 38 39t40 39.5t34 27t43 23.5t44 6q57 0 94.5 -43t37.5 -98t-37.5 -98t-94.5 -43q-15 0 -29.5 3.5t-25.5 7t-26 13.5t-23 16t-24 21t-22.5 21.5t-24.5 25.5
t-24 25q-5 -5 -21.5 -22.5t-21.5 -23t-20 -20t-21.5 -19.5t-20 -15.5t-22.5 -14t-22 -9t-25 -7.5t-25 -2q-57 0 -94.5 43t-37.5 98zM575 456q-16 0 -30.5 -3t-30 -12t-25 -14.5t-27.5 -22.5t-24.5 -23t-28 -29t-26.5 -28q10 -10 37.5 -38t39 -38t33.5 -26t41 -22t41 -6
q52 0 87 40.5t35 90.5t-35 90.5t-87 40.5zM55 325q0 -50 35 -90.5t87 -40.5q15 0 29.5 3t29.5 11.5t26 15t27.5 21.5t24.5 23t27.5 28t27.5 28q-5 5 -26.5 28t-28 29t-24.5 23t-27.5 22.5t-25 14.5t-30 12t-30.5 3q-52 0 -87 -40.5t-35 -90.5z" />
    <glyph glyph-name="integral" unicode="&#x222b;" horiz-adv-x="356" 
d="M383 646q-6 0 -33 2t-37 2q-59 0 -81 -33t-22 -115v-445q0 -110 -51 -183q-35 -50 -88 -79.5t-100 -29.5q-30 0 -30 26q0 27 30 27q6 0 33 -2t37 -2q59 0 81 33t22 115v445q0 110 51 183q35 50 88 79.5t100 29.5q30 0 30 -26q0 -27 -30 -27z" />
    <glyph glyph-name="approxequal" unicode="&#x2248;" horiz-adv-x="532" 
d="M379 385q60 0 98 58l9 -5q-15 -24 -43 -43.5t-64 -19.5q-41 0 -114 31t-113 31q-60 0 -98 -58l-9 5q15 24 43 43.5t64 19.5q43 0 115.5 -31t111.5 -31zM379 210q60 0 98 58l9 -5q-15 -24 -43 -43.5t-64 -19.5q-41 0 -114 31t-113 31q-60 0 -98 -58l-9 5q15 24 43 43.5
t64 19.5q43 0 115.5 -31t111.5 -31z" />
    <glyph glyph-name="notequal" unicode="&#x2260;" horiz-adv-x="490" 
d="M445 229h-246l-61 -110l-9 5l58 105h-142v10h148l94 169h-242v10h247l57 102l9 -5l-54 -97h141v-10h-146l-94 -169h240v-10z" />
    <glyph glyph-name="lessequal" unicode="&#x2264;" horiz-adv-x="530" 
d="M45 109v10h440v-10h-440zM81 378l374 122l3 -10l-360 -117l360 -117l-3 -10l-374 122v10z" />
    <glyph glyph-name="greaterequal" unicode="&#x2265;" horiz-adv-x="530" 
d="M485 119v-10h-440v10h440zM75 500l374 -122v-10l-374 -122l-3 10l360 117l-360 117z" />
    <glyph glyph-name="lozenge" unicode="&#x25ca;" horiz-adv-x="530" 
d="M487 324l-219 -405h-6l-219 405l219 405h6zM475 324l-210 391l-210 -391l210 -391z" />
    <glyph glyph-name="commaaccent" unicode="&#xf6c3;" horiz-adv-x="199" 
d="M93 -155q-19 0 -31 12.5t-12 30.5t12.5 31t32.5 13q21 0 35.5 -16.5t14.5 -40.5q0 -48 -25.5 -78t-56.5 -37l-1 6q28 7 50 32.5t22 62.5q0 4 -1 11q-13 -27 -40 -27z" />
    <glyph glyph-name="apple" unicode="&#xf8ff;" horiz-adv-x="1231" 
d="M655 345q-7 0 -40 1.5t-40 1.5q-54 0 -84.5 -24.5t-53.5 -75.5q-25 -57 -62.5 -89t-100.5 -32q-13 0 -42.5 2t-40.5 2q-59 0 -95 -31t-36 -78q0 -15 1 -22h-10q-1 7 -1 22q0 52 39.5 85.5t102.5 33.5q12 0 42.5 -2t40.5 -2q106 0 153 115q22 51 55 78t92 27q7 0 40 -1.5
t40 -1.5q56 0 85.5 24t52.5 76q25 57 62.5 89t100.5 32q13 0 42.5 -2t40.5 -2q59 0 95 31t36 78q0 15 -1 22h10q1 -7 1 -22q0 -52 -39.5 -85.5t-102.5 -33.5q-12 0 -42.5 2t-40.5 2q-106 0 -153 -115q-23 -51 -55.5 -78t-91.5 -27z" />
    <glyph glyph-name="Euro.osf" horiz-adv-x="612" 
d="M120 324q0 28 3 58h-98v9h99q15 118 79 194t167 76q60 0 121 -38.5t61 -87.5q0 -14 -8.5 -22t-20.5 -8q-16 0 -25 14q-6 10 -15 43q-13 48 -39 69.5t-74 21.5q-50 0 -84 -19.5t-52 -58t-25.5 -81.5t-9.5 -103h244v-9h-244v-114h244v-9h-244q2 -61 9.5 -103.5t25.5 -80.5
t52 -57.5t84 -19.5q48 0 74 21t39 69q9 33 15 43q9 14 25 14q12 0 20.5 -8t8.5 -22q0 -48 -61 -86.5t-121 -38.5q-103 0 -167 75.5t-79 193.5h-99v9h98q-3 29 -3 56z" />
    <glyph glyph-name="Jacute" horiz-adv-x="296" 
d="M207 624v-428q0 -152 -60 -223t-154 -71q-35 0 -35 30q0 31 31 31q11 0 44 -11t49 -11q31 0 44 27t13 85v571q0 32 -9 40.5t-42 8.5h-1v8h16q11 0 32 -1.5t38 -1.5t38 1.5t32 1.5h16v-8h-1q-33 0 -42 -8.5t-9 -40.5zM130 733l-6 4q19 35 42 88.5t37 74.5q11 15 26 15
q13 0 21 -8.5t8 -19.5t-6 -20q-11 -16 -53.5 -55.5t-68.5 -78.5z" />
    <glyph glyph-name="R.alt" horiz-adv-x="633" 
d="M216 0h-16q-10 0 -32 1.5t-38 1.5t-38 -1.5t-32 -1.5h-16v8h1q33 0 42 8.5t9 40.5v567q0 32 -9 40.5t-42 8.5h-1v8h16q10 0 32 -0.5t38 -0.5q20 0 47 0.5t42 0.5h108q95 0 159.5 -49.5t64.5 -133.5q0 -73 -48 -123.5t-130 -58.5l134 -214q35 -58 57.5 -75t60.5 -19v-8
q-25 0 -46 1.5t-41 1.5q-11 0 -26 -1.5t-22 -1.5l-191 315h-135v-258q0 -32 9 -40.5t42 -8.5h1v-8zM164 325h129l-37 62q10 0 21.5 -0.5t18.5 -0.5t15.5 0.5t18.5 0.5l37 -61q61 8 84 52.5t23 119.5q0 87 -32.5 130t-117.5 43h-160v-346z" />
    <glyph glyph-name="approxequal.osf" horiz-adv-x="532" 
d="M379 315q60 0 98 58l9 -5q-15 -24 -43 -43.5t-64 -19.5q-41 0 -114 31t-113 31q-60 0 -98 -58l-9 5q15 24 43 43.5t64 19.5q43 0 115.5 -31t111.5 -31zM379 140q60 0 98 58l9 -5q-15 -24 -43 -43.5t-64 -19.5q-41 0 -114 31t-113 31q-60 0 -98 -58l-9 5q15 24 43 43.5
t64 19.5q43 0 115.5 -31t111.5 -31z" />
    <glyph glyph-name="asciicircum.osf" horiz-adv-x="450" 
d="M402 321l-9 -4l-168 374l-168 -374l-9 4l173 384h8z" />
    <glyph glyph-name="asciitilde.osf" horiz-adv-x="531" 
d="M379 212q-42 0 -115 31t-112 31q-60 0 -98 -58l-9 5q15 24 43 43.5t64 19.5q43 0 115.5 -31t111.5 -31q60 0 98 58l9 -5q-15 -24 -43 -43.5t-64 -19.5z" />
    <glyph glyph-name="backslash.case" horiz-adv-x="351" 
d="M321 -120l-300 893l9 3l300 -893z" />
    <glyph glyph-name="bar.case" horiz-adv-x="207" 
d="M109 -165h-10v987h10v-987z" />
    <glyph glyph-name="braceleft.case" horiz-adv-x="292" 
d="M170 -10q0 -47 21 -68.5t81 -35.5l-2 -8q-88 22 -123 52.5t-35 104.5q0 33 5 94.5t5 77.5q0 58 -16 85.5t-66 29.5v10q50 2 66 30t16 85q0 16 -5 78t-5 94q0 74 35 104.5t123 52.5l2 -8q-60 -14 -81 -35.5t-21 -68.5q0 -20 5 -100t5 -103q0 -59 -25.5 -92.5t-92.5 -41.5
q67 -8 92.5 -41.5t25.5 -92.5q0 -23 -5 -103t-5 -100z" />
    <glyph glyph-name="braceright.case" horiz-adv-x="292" 
d="M122 -10q0 20 -5 100t-5 103q0 59 25.5 92.5t92.5 41.5q-67 8 -92.5 41.5t-25.5 92.5q0 23 5 103t5 100q0 47 -21 68.5t-81 35.5l2 8q88 -22 123 -52.5t35 -104.5q0 -32 -5 -94t-5 -78q0 -57 16 -85t66 -30v-10q-50 -2 -66 -29.5t-16 -85.5q0 -16 5 -77.5t5 -94.5
q0 -74 -35 -104.5t-123 -52.5l-2 8q60 14 81 35.5t21 68.5z" />
    <glyph glyph-name="bracketleft.case" horiz-adv-x="275" 
d="M85 -122v901q61 -3 165 -3v-9q-20 0 -55 -0.5t-48 -0.5l-47 -2q51 -196 51 -436q0 -243 -51 -435l47 -2q15 0 49.5 -0.5t53.5 -0.5v-9q-104 0 -165 -3z" />
    <glyph glyph-name="bracketright.case" horiz-adv-x="275" 
d="M190 779v-901q-60 3 -165 3v9q20 0 55 0.5t48 0.5l47 2q-51 192 -51 435q0 240 51 436l-47 2q-15 0 -49.5 0.5t-53.5 0.5v9q105 0 165 3z" />
    <glyph glyph-name="caron.slovak" horiz-adv-x="183" 
d="M56 490l-7 2q8 45 12.5 114t10.5 92q8 26 31 26q12 0 21 -7.5t9 -19.5q0 -11 -3 -18q-5 -16 -32.5 -78.5t-41.5 -110.5z" />
    <glyph glyph-name="cent.osf" horiz-adv-x="500" 
d="M265 -8q-54 0 -101 30l-55 -165l-9 3l55 167q-100 68 -100 210q0 118 64 189.5t151 71.5q15 0 40 -5l46 138l9 -3l-46 -137q52 -14 87 -51.5t35 -72.5q0 -12 -7.5 -20t-19.5 -8q-20 0 -27 20q-2 6 -8 35q-13 68 -63 87l-134 -405q42 -62 108 -62q107 0 149 126l6 -2
q-47 -146 -180 -146zM131 276q0 -118 44 -190l132 398q-17 6 -38 6q-67 0 -102.5 -59t-35.5 -155z" />
    <glyph glyph-name="commatop" horiz-adv-x="199" 
d="M107 653q19 0 31 -12.5t12 -30.5t-12.5 -31t-32.5 -13q-21 0 -35.5 16.5t-14.5 40.5q0 48 25.5 78t56.5 37l1 -6q-28 -7 -50 -32.5t-22 -62.5q0 -4 1 -11q13 27 40 27z" />
    <glyph glyph-name="divide.osf" horiz-adv-x="530" 
d="M259 356q-20 0 -34 13.5t-14 34.5t14 35t34 14t34.5 -14t14.5 -35t-14 -34.5t-35 -13.5zM45 247v10h440v-10h-440zM259 52q-20 0 -34 13.5t-14 34.5t14 35t34 14t34.5 -14t14.5 -35t-14 -34.5t-35 -13.5z" />
    <glyph glyph-name="dollar.osf" horiz-adv-x="509" 
d="M266 -72h-9v68q-79 4 -143 41t-64 89q0 15 8.5 24.5t20.5 9.5q24 0 33 -23l4.5 -18t7.5 -23q29 -88 133 -92v297l-51 16q-59 19 -95.5 61t-36.5 103q0 71 48.5 118.5t134.5 47.5v69h9v-69q60 -2 116 -39t56 -86q0 -13 -9 -21t-19 -8q-22 0 -29 20q-2 6 -6 18.5t-6 19.5
q-13 45 -36 65.5t-67 22.5v-268l54 -15q139 -40 139 -172q0 -88 -57 -138t-132 -50h-4v-68zM423 146q0 60 -32.5 94t-103.5 53l-21 6v-295h3q68 0 111 41t43 101zM100 511q0 -49 30.5 -78t99.5 -51l27 -8v265q-74 0 -115.5 -37t-41.5 -91z" />
    <glyph glyph-name="eight.osf" horiz-adv-x="519" 
d="M265 -10q-94 0 -156 50t-62 129q0 53 40 100t107 77q-54 25 -85.5 64.5t-31.5 89.5q0 65 54.5 113t129.5 48q69 0 125 -38.5t56 -102.5q0 -95 -110 -161q140 -60 140 -184q0 -80 -60.5 -132.5t-146.5 -52.5zM265 -2q71 0 113.5 40.5t42.5 107.5q0 107 -122 157l-95 39
q-41 -26 -65.5 -73t-24.5 -94q0 -72 39.5 -124.5t111.5 -52.5zM385 519q0 61 -32.5 97.5t-91.5 36.5t-98.5 -31.5t-39.5 -82.5q0 -93 102 -136l97 -40q29 26 46 70t17 86z" />
    <glyph glyph-name="emdash.case" horiz-adv-x="988" 
d="M943 331h-898v10h898v-10z" />
    <glyph glyph-name="endash.case" horiz-adv-x="512" 
d="M467 331h-422v10h422v-10z" />
    <glyph glyph-name="equal.osf" horiz-adv-x="490" 
d="M45 338v10h400v-10h-400zM45 159v10h400v-10h-400z" />
    <glyph glyph-name="exclamdown.case" horiz-adv-x="254" 
d="M115 475h10v-43q0 -63 16.5 -203.5t16.5 -187.5q0 -48 -38 -48q-37 0 -37 48q0 46 16 187t16 204v43zM120 689q21 0 36.5 -15t15.5 -37t-15.5 -37t-36.5 -15t-36.5 15t-15.5 37t15.5 37t36.5 15z" />
    <glyph glyph-name="five.osf" horiz-adv-x="457" 
d="M407 146q0 -101 -98 -184.5t-253 -115.5l-1 9q148 34 213 110t65 178q0 138 -96 138q-46 0 -94 -28.5t-75 -77.5l-8 2l48 334h215q35 0 52 7t27 34l6 -1l-23 -102h-278l-35 -251q29 41 74.5 66.5t90.5 25.5q78 0 124 -39t46 -105z" />
    <glyph glyph-name="four.osf" horiz-adv-x="500" 
d="M349 36v-119q0 -32 9.5 -41t44.5 -9h1v-7h-14q-12 0 -34 2t-40 2t-40 -2t-34 -2h-28v7h14q35 0 45 9t10 41v118h-279v5l285 471q3 0 14 -0.5t14 -0.5t13.5 0.5t18.5 0.5v-467h5q79 0 135 129l5 -1l-29 -136h-116zM283 44v440l-266 -440h266z" />
    <glyph glyph-name="greater.osf" horiz-adv-x="469" 
d="M50 432l376 -174v-10l-376 -174l-4 9l368 170l-368 170z" />
    <glyph glyph-name="greaterequal.osf" horiz-adv-x="530" 
d="M485 49v-10h-440v10h440zM75 430l374 -122v-10l-374 -122l-3 10l360 117l-360 117z" />
    <glyph glyph-name="guillemotleft.case" horiz-adv-x="502" 
d="M276 139l-5 -5q-25 26 -79 71t-94.5 76.5t-47.5 36.5q7 5 47.5 36.5t94.5 76.5t79 71l5 -5q-22 -26 -52.5 -67t-54 -74t-27.5 -38q1 -2 52.5 -72.5t81.5 -106.5zM433 139l-5 -5q-25 26 -79 71t-94.5 76.5t-47.5 36.5q7 5 47.5 36.5t94.5 76.5t79 71l5 -5
q-18 -21 -41.5 -51.5t-39.5 -53t-34.5 -48t-18.5 -26.5q95 -132 134 -179z" />
    <glyph glyph-name="guillemotright.case" horiz-adv-x="502" 
d="M74 134l-5 5q71 82 134 179q-87 127 -134 179l5 5q25 -26 79 -71t94.5 -76.5t47.5 -36.5q-7 -5 -47.5 -36.5t-94.5 -76.5t-79 -71zM231 134l-5 5q71 82 134 179q-80 120 -134 179l5 5q25 -26 79 -71t94.5 -76.5t47.5 -36.5q-7 -5 -47.5 -36.5t-94.5 -76.5t-79 -71z" />
    <glyph glyph-name="guilsinglleft.case" horiz-adv-x="345" 
d="M276 139l-5 -5q-25 26 -79 71t-94.5 76.5t-47.5 36.5q7 5 47.5 36.5t94.5 76.5t79 71l5 -5q-64 -73 -134 -179q105 -144 134 -179z" />
    <glyph glyph-name="guilsinglright.case" horiz-adv-x="345" 
d="M74 134l-5 5q63 73 134 179q-3 4 -28 39.5t-53.5 74.5t-52.5 65l5 5q25 -26 79 -71t94.5 -76.5t47.5 -36.5q-7 -5 -47.5 -36.5t-94.5 -76.5t-79 -71z" />
    <glyph glyph-name="hyphen.case" horiz-adv-x="303" 
d="M238 317h-173v39h173v-39z" />
    <glyph glyph-name="i.trk" horiz-adv-x="254" 
d="M219 0h-14q-11 0 -34 1.5t-40 1.5t-40 -1.5t-34 -1.5h-14v7h1q35 0 44.5 9t9.5 41v342q0 32 -9.5 40.5t-44.5 8.5h-1v7h6q33 0 68 13t41 30h6v-441q0 -32 9.5 -41t44.5 -9h1v-7zM131 592q-20 0 -34 13.5t-14 34.5t14 35t34 14t34.5 -14t14.5 -35t-14 -34.5t-35 -13.5z
" />
    <glyph glyph-name="infinity.osf" horiz-adv-x="752" 
d="M45 255q0 55 37.5 98t94.5 43q15 0 29.5 -3.5t25.5 -7.5t26 -14t23 -16t24 -21t22.5 -22t24.5 -26t24 -25q9 9 38 39t40 39.5t34 27t43 23.5t44 6q57 0 94.5 -43t37.5 -98t-37.5 -98t-94.5 -43q-15 0 -29.5 3.5t-25.5 7t-26 13.5t-23 16t-24 21t-22.5 21.5t-24.5 25.5
t-24 25q-5 -5 -21.5 -22.5t-21.5 -23t-20 -20t-21.5 -19.5t-20 -15.5t-22.5 -14t-22 -9t-25 -7.5t-25 -2q-57 0 -94.5 43t-37.5 98zM575 386q-16 0 -30.5 -3t-30 -12t-25 -14.5t-27.5 -22.5t-24.5 -23t-28 -29t-26.5 -28q10 -10 37.5 -38t39 -38t33.5 -26t41 -22t41 -6
q52 0 87 40.5t35 90.5t-35 90.5t-87 40.5zM55 255q0 -50 35 -90.5t87 -40.5q15 0 29.5 3t29.5 11.5t26 15t27.5 21.5t24.5 23t27.5 28t27.5 28q-5 5 -26.5 28t-28 29t-24.5 23t-27.5 22.5t-25 14.5t-30 12t-30.5 3q-52 0 -87 -40.5t-35 -90.5z" />
    <glyph glyph-name="jacute" horiz-adv-x="241" 
d="M164 498v-459q0 -106 -46 -184q-56 -91 -142 -91q-13 0 -22 7t-9 19q0 26 29 26q12 0 36.5 -5t33.5 -5q54 0 54 85v508q0 32 -9.5 40.5t-44.5 8.5h-1v7h6q33 0 68 13t41 30h6zM76 542l-6 4q19 35 42 88.5t37 74.5q11 15 26 15q13 0 21 -8t8 -20q0 -11 -6 -20
q-11 -16 -53.5 -55.5t-68.5 -78.5z" />
    <glyph glyph-name="less.osf" horiz-adv-x="469" 
d="M43 258l376 174l4 -9l-368 -170l368 -170l-4 -9l-376 174v10z" />
    <glyph glyph-name="lessequal.osf" horiz-adv-x="530" 
d="M45 39v10h440v-10h-440zM81 308l374 122l3 -10l-360 -117l360 -117l-3 -10l-374 122v10z" />
    <glyph glyph-name="logicalnot.osf" horiz-adv-x="506" 
d="M461 37h-10v213h-406v10h416v-223z" />
    <glyph glyph-name="minus.osf" horiz-adv-x="490" 
d="M45 247v10h400v-10h-400z" />
    <glyph glyph-name="multiply.osf" horiz-adv-x="407" 
d="M372 415l-162 -162l163 -163l-7 -7l-163 163l-163 -163l-7 7l163 163l-162 162l7 7l162 -162l162 162z" />
    <glyph glyph-name="nine.osf" horiz-adv-x="529" 
d="M257 518q27 0 54 -6.5t57 -26t53 -50t38 -82t15 -118.5q0 -141 -105.5 -250t-266.5 -139l-1 9q258 55 292 302q-27 -35 -70 -57t-82 -22q-32 0 -63.5 10t-62.5 32t-50.5 66t-19.5 103q0 55 21 100.5t54 72.5t68.5 41.5t68.5 14.5zM257 510q-66 0 -100 -56t-34 -162
q0 -205 118 -205q38 0 81 22.5t72 62.5q4 25 4 63q0 151 -35.5 213t-105.5 62z" />
    <glyph glyph-name="notequal.osf" horiz-adv-x="490" 
d="M445 159h-246l-61 -110l-9 5l58 105h-142v10h148l94 169h-242v10h247l57 102l9 -5l-54 -97h141v-10h-146l-94 -169h240v-10z" />
    <glyph glyph-name="one.osf" horiz-adv-x="276" 
d="M171 453v-396q0 -32 9.5 -41t44.5 -9h1v-7h-14q-12 0 -34 1.5t-40 1.5t-40 -1.5t-34 -1.5h-14v7h1q35 0 44.5 9t9.5 41v396q0 32 -9.5 41t-44.5 9h-1v7h14q12 0 34 -1.5t40 -1.5t40 1.5t34 1.5h14v-7h-1q-35 0 -44.5 -9t-9.5 -41z" />
    <glyph glyph-name="parenleft.case" 
d="M127 328q0 -137 35.5 -260t119.5 -184l-5 -7q-97 67 -157 193.5t-60 257.5t60 258t157 194l5 -7q-84 -61 -119.5 -184t-35.5 -261z" />
    <glyph glyph-name="parenleft.subs" horiz-adv-x="177" 
d="M80 142q0 -51 16 -103.5t46 -77.5l-5 -6q-42 31 -72 81t-30 106t30 106t72 81l5 -6q-30 -25 -46 -77.5t-16 -103.5z" />
    <glyph glyph-name="parenright.case" 
d="M163 328q0 86 -11.5 164t-48.5 159t-95 122l5 7q97 -67 157 -194t60 -258t-60 -257.5t-157 -193.5l-5 7q58 41 95 122t48.5 158.5t11.5 163.5z" />
    <glyph glyph-name="parenright.subs" horiz-adv-x="177" 
d="M97 142q0 51 -16 103.5t-46 77.5l5 6q42 -31 72 -81t30 -106t-30 -106t-72 -81l-5 6q30 25 46 77.5t16 103.5z" />
    <glyph glyph-name="plus.osf" horiz-adv-x="530" 
d="M270 33h-10v214h-215v10h215v216h10v-216h215v-10h-215v-214z" />
    <glyph glyph-name="plusminus.osf" horiz-adv-x="490" 
d="M45 300v10h195v165h10v-165h195v-10h-195v-169h-10v169h-195zM45 41v10h400v-10h-400z" />
    <glyph glyph-name="questiondown.case" horiz-adv-x="345" 
d="M202 475h10v-202q-69 -14 -108 -52t-39 -83q0 -35 25 -60t73 -25q24 0 54 7t39 7q15 0 23.5 -10.5t8.5 -25.5q0 -38 -57 -38q-80 0 -129 48.5t-49 121.5q0 142 149 186v126zM208 689q21 0 36.5 -15t15.5 -37t-15.5 -37t-36.5 -15t-36.5 15t-15.5 37t15.5 37t36.5 15z" />
    <glyph glyph-name="ringacute" horiz-adv-x="268" 
d="M218 639q0 -36 -24 -61t-60 -25t-60 25t-24 61q0 28 13 50q20 36 42.5 88t35.5 72q11 15 26 15q13 0 21 -8t8 -20q0 -11 -6 -20q-12 -18 -51 -53t-58 -57q23 19 53 19q36 0 60 -25t24 -61zM208 639q0 31 -21 53.5t-53 22.5t-53 -22.5t-21 -53.5t21 -53.5t53 -22.5
t53 22.5t21 53.5z" />
    <glyph glyph-name="seven.osf" horiz-adv-x="443" 
d="M213 -107q0 -18 -11.5 -29t-27.5 -11q-18 0 -29.5 10.5t-11.5 30.5q0 206 256 555h-265q-35 0 -53 -14.5t-33 -51.5l-6 1l36 167l6 -1q-1 -23 12 -31t40 -8h312v-4q-63 -89 -98.5 -147.5t-68 -133t-45.5 -154t-13 -179.5z" />
    <glyph glyph-name="six.osf" horiz-adv-x="530" 
d="M272 -10q-27 0 -54 6.5t-57 26t-53 50t-38 82t-15 118.5q0 141 105.5 250t266.5 139l1 -9q-258 -55 -292 -302q27 35 70 57t82 22q32 0 63.5 -10t62.5 -32t50.5 -66t19.5 -103q0 -55 -21 -100.5t-54 -72.5t-68.5 -41.5t-68.5 -14.5zM272 -2q66 0 100 56t34 162
q0 205 -118 205q-38 0 -81 -22.5t-72 -62.5q-4 -25 -4 -63q0 -151 35.5 -213t105.5 -62z" />
    <glyph glyph-name="slash.case" horiz-adv-x="351" 
d="M330 773l-300 -893l-9 3l300 893z" />
    <glyph glyph-name="sterling.osf" horiz-adv-x="566" 
d="M405 -8q-12 0 -23.5 1.5t-26 7t-22.5 8.5t-25.5 12.5t-21.5 12t-25 15t-22 13.5q-45 -72 -127 -72q-34 0 -55.5 17.5t-21.5 48.5t26.5 51.5t71.5 20.5q42 0 106 -26q3 16 3 33q0 72 -42 163h-126v9h122q-20 44 -30 68t-19 58.5t-9 66.5q0 71 55 116t121 45
q60 0 117 -37.5t57 -88.5q0 -30 -27 -30q-17 0 -24.5 11t-14.5 41q-12 50 -36.5 73t-71.5 23q-53 0 -80.5 -32t-27.5 -82q0 -27 6 -60t10.5 -50t19 -64.5t17.5 -57.5h168v-9h-166q15 -55 15 -100q0 -57 -19 -103q8 -3 39.5 -15t45.5 -16.5t38 -9.5t44 -5q78 0 78 87
q0 49 -28 87l7 5q17 -23 26 -55.5t9 -52.5q0 -60 -30 -94t-81 -34zM112 -1q36 0 68.5 17.5t48.5 52.5q-73 44 -118 44q-30 0 -48.5 -15.5t-18.5 -41.5t19 -41.5t49 -15.5z" />
    </font>
</defs>
</svg>
